<svg width="11" height="18" viewBox="0 0 11 18" fill="none" xmlns="http://www.w3.org/2000/svg">
<path fill-rule="evenodd" clip-rule="evenodd" d="M11 0.5C11 0.224 10.775 0 10.5 0H8C5.238 0 3 2.015 3 4.5V7.2H0.5C0.224 7.2 0 7.424 0 7.7V10.3C0 10.576 0.224 10.8 0.5 10.8H3V17.5C3 17.776 3.224 18 3.5 18H6.5C6.775 18 7 17.776 7 17.5V10.8H9.619C9.844 10.8 10.041 10.65 10.102 10.434L10.823 7.834C10.912 7.516 10.672 7.2 10.342 7.2H7V4.5C7 4.003 7.447 3.6 8 3.6H10.5C10.775 3.6 11 3.376 11 3.1V0.5Z" fill="#2E3A59"/>
</svg>
