<svg width="28" height="28" viewBox="0 0 28 28" fill="none" xmlns="http://www.w3.org/2000/svg">
<path fill-rule="evenodd" clip-rule="evenodd" d="M4.66667 23.3333V4.08325H3.5V23.9166C3.5 24.2388 3.76117 24.4999 4.08333 24.4999H23.9167V23.3333H4.66667Z" fill="#222B45"/>
<path fill-rule="evenodd" clip-rule="evenodd" d="M8.61696 15.8291L4.53364 20.7874L3.63306 20.0457L7.71641 15.0874L8.61696 15.8291Z" fill="#222B45"/>
<path fill-rule="evenodd" clip-rule="evenodd" d="M14.359 16.5802L10.859 15.1219L11.3077 14.0449L14.8077 15.5033L14.359 16.5802Z" fill="#222B45"/>
<path fill-rule="evenodd" clip-rule="evenodd" d="M21.4555 11.1561L17.9555 15.5311L17.0445 14.8022L20.5445 10.4272L21.4555 11.1561Z" fill="#222B45"/>
<path fill-rule="evenodd" clip-rule="evenodd" d="M9.33333 15.1667C9.97768 15.1667 10.5 14.6444 10.5 14.0001C10.5 13.3557 9.97768 12.8334 9.33333 12.8334C8.68898 12.8334 8.16667 13.3557 8.16667 14.0001C8.16667 14.6444 8.68898 15.1667 9.33333 15.1667ZM9.33333 16.3334C10.622 16.3334 11.6667 15.2887 11.6667 14.0001C11.6667 12.7114 10.622 11.6667 9.33333 11.6667C8.04469 11.6667 7 12.7114 7 14.0001C7 15.2887 8.04469 16.3334 9.33333 16.3334Z" fill="#222B45"/>
<path fill-rule="evenodd" clip-rule="evenodd" d="M16.3333 17.5C16.9777 17.5 17.5 16.9777 17.5 16.3333C17.5 15.689 16.9777 15.1667 16.3333 15.1667C15.689 15.1667 15.1667 15.689 15.1667 16.3333C15.1667 16.9777 15.689 17.5 16.3333 17.5ZM16.3333 18.6667C17.622 18.6667 18.6667 17.622 18.6667 16.3333C18.6667 15.0447 17.622 14 16.3333 14C15.0447 14 14 15.0447 14 16.3333C14 17.622 15.0447 18.6667 16.3333 18.6667Z" fill="#222B45"/>
<path fill-rule="evenodd" clip-rule="evenodd" d="M22.1666 10.5C22.811 10.5 23.3333 9.97768 23.3333 9.33333C23.3333 8.68898 22.811 8.16667 22.1666 8.16667C21.5223 8.16667 21 8.68898 21 9.33333C21 9.97768 21.5223 10.5 22.1666 10.5ZM22.1666 11.6667C23.4553 11.6667 24.5 10.622 24.5 9.33333C24.5 8.04469 23.4553 7 22.1666 7C20.878 7 19.8333 8.04469 19.8333 9.33333C19.8333 10.622 20.878 11.6667 22.1666 11.6667Z" fill="#222B45"/>
</svg>
