<svg width="22" height="30" viewBox="0 0 22 30" fill="none" xmlns="http://www.w3.org/2000/svg">
<path fill-rule="evenodd" clip-rule="evenodd" d="M5.75 2.25C5.75 1.00736 6.75733 0 8 0H14C15.2427 0 16.25 1.00736 16.25 2.25H19.25C20.4927 2.25 21.5 3.25736 21.5 4.5V27.75C21.5 28.9927 20.4927 30 19.25 30H2.75C1.50732 30 0.5 28.9927 0.5 27.75V4.5C0.5 3.25736 1.50732 2.25 2.75 2.25H5.75ZM5.75 3.75H2.75C2.33578 3.75 2 4.08579 2 4.5V12.7414H6.22445L8.76553 8.22405L10.3533 13.7812L12.2963 11.2832H16.4131C16.8274 11.2832 17.1631 11.6189 17.1631 12.0332C17.1631 12.4474 16.8274 12.7832 16.4131 12.7832H13.03L9.7229 17.035L8.31073 12.0922L7.10172 14.2414H2V27.75C2 28.1642 2.33578 28.5 2.75 28.5H19.25C19.6642 28.5 20 28.1642 20 27.75V4.5C20 4.08578 19.6642 3.75 19.25 3.75H16.25C16.25 4.99267 15.2427 6 14 6H8C6.75733 6 5.75 4.99267 5.75 3.75ZM8 1.5C7.58577 1.5 7.25 1.83579 7.25 2.25V3.75C7.25 4.16421 7.58577 4.5 8 4.5H14C14.4142 4.5 14.75 4.16421 14.75 3.75V2.25C14.75 1.83579 14.4142 1.5 14 1.5H8ZM5 20.25C5 19.8358 5.33577 19.5 5.75 19.5H16.25C16.6642 19.5 17 19.8358 17 20.25C17 20.6642 16.6642 21 16.25 21H5.75C5.33577 21 5 20.6642 5 20.25ZM5 24.75C5 24.3358 5.33577 24 5.75 24H10.25C10.6642 24 11 24.3358 11 24.75C11 25.1642 10.6642 25.5 10.25 25.5H5.75C5.33577 25.5 5 25.1642 5 24.75Z" fill="#33B7B8"/>
</svg>
