<svg width="20" height="14" viewBox="0 0 20 14" fill="none" xmlns="http://www.w3.org/2000/svg">
<path fill-rule="evenodd" clip-rule="evenodd" d="M15.8726 1.08671L13.4093 1.82571L15.0494 6.11511C15.3541 6.04086 15.6724 6.00146 16 6.00146C18.2092 6.00146 20 7.79231 20 10.0015C20 12.2106 18.2092 14.0015 16 14.0015C13.7908 14.0015 12 12.2106 12 10.0015C12 8.47376 12.8564 7.14611 14.1154 6.47241L13.2915 4.31781L10.4505 10.2184C10.3671 10.3915 10.1921 10.5015 10 10.5015H7.96905C7.723 12.4746 6.0398 14.0015 4 14.0015C1.79086 14.0015 0 12.2106 0 10.0015C0 7.79231 1.79086 6.00146 4 6.00146C6.0398 6.00146 7.723 7.52831 7.96905 9.50146H9.21905L6.77915 2.66961C6.7593 2.61406 6.74985 2.55726 6.74985 2.50146H6C5.72385 2.50146 5.5 2.27761 5.5 2.00146C5.5 1.72531 5.72385 1.50146 6 1.50146H8.25C8.52615 1.50146 8.75 1.72531 8.75 2.00146C8.75 2.27761 8.52615 2.50146 8.25 2.50146H7.78095L8.7019 5.08016L12.7653 2.94156L12.283 1.68006C12.2334 1.55021 12.24 1.40556 12.3013 1.28081C12.3626 1.15611 12.4732 1.06251 12.6063 1.02256L15.5853 0.128906L15.8726 1.08671ZM9.04165 6.03141L10.0275 8.79181L12.1423 4.39951L9.04165 6.03141ZM15.5329 10.1801L14.4764 7.41661C13.5927 7.93861 13 8.90081 13 10.0015C13 11.6583 14.3432 13.0015 16 13.0015C17.6569 13.0015 19 11.6583 19 10.0015C19 8.34461 17.6569 7.00146 16 7.00146C15.7982 7.00146 15.601 7.02141 15.4104 7.05936L16.4671 9.82291C16.5657 10.0809 16.4365 10.3699 16.1786 10.4685C15.9207 10.5672 15.6316 10.438 15.5329 10.1801ZM6.9585 9.50146H4C3.72385 9.50146 3.5 9.72531 3.5 10.0015C3.5 10.2776 3.72385 10.5015 4 10.5015H6.9585C6.7205 11.9203 5.4865 13.0015 4 13.0015C2.34314 13.0015 1 11.6583 1 10.0015C1 8.34461 2.34314 7.00146 4 7.00146C5.4865 7.00146 6.7205 8.08261 6.9585 9.50146Z" fill="#46D7CB"/>
</svg>
