<svg width="60" height="66" viewBox="0 0 60 66" fill="none" xmlns="http://www.w3.org/2000/svg">
<path fill-rule="evenodd" clip-rule="evenodd" d="M1 25L30 5L59 25L30 45L1 25Z" fill="#E4E9F2"/>
<path d="M30 5L30.5677 4.17679C30.2259 3.94107 29.7741 3.94107 29.4323 4.17679L30 5ZM1 25L0.432267 24.1768C0.161611 24.3634 0 24.6712 0 25C0 25.3288 0.161611 25.6366 0.432267 25.8232L1 25ZM59 25L59.5677 25.8232C59.8384 25.6366 60 25.3288 60 25C60 24.6712 59.8384 24.3634 59.5677 24.1768L59 25ZM30 45L29.4323 45.8232C29.7741 46.0589 30.2259 46.0589 30.5677 45.8232L30 45ZM29.4323 4.17679L0.432267 24.1768L1.56773 25.8232L30.5677 5.82321L29.4323 4.17679ZM59.5677 24.1768L30.5677 4.17679L29.4323 5.82321L58.4323 25.8232L59.5677 24.1768ZM58.4323 24.1768L29.4323 44.1768L30.5677 45.8232L59.5677 25.8232L58.4323 24.1768ZM30.5677 44.1768L1.56773 24.1768L0.432267 25.8232L29.4323 45.8232L30.5677 44.1768Z" fill="#46D7CB"/>
<rect x="10" y="1" width="40" height="49" rx="1" fill="white" stroke="#46D7CB" stroke-width="2" stroke-linejoin="round"/>
<path d="M30 45L1 65H59L30 45Z" fill="white" stroke="#46D7CB" stroke-width="2" stroke-linejoin="round"/>
<path d="M1 65V25L30 45L1 65Z" fill="white" stroke="#46D7CB" stroke-width="2" stroke-linejoin="round"/>
<path d="M59 65V25L30 45L59 65Z" fill="white" stroke="#46D7CB" stroke-width="2" stroke-linejoin="round"/>
<path d="M21.586 25.396L22.286 26.656L20.466 27.314L22.286 27.972L21.558 29.274L20.046 28.028L20.368 29.96H18.912L19.22 28.028L17.722 29.302L16.952 27.958L18.772 27.3L16.966 26.67L17.68 25.382L19.234 26.614L18.912 24.668H20.382L20.046 26.614L21.586 25.396ZM28.8321 25.396L29.5321 26.656L27.7121 27.314L29.5321 27.972L28.8041 29.274L27.2921 28.028L27.6141 29.96H26.1581L26.4661 28.028L24.9681 29.302L24.1981 27.958L26.0181 27.3L24.2121 26.67L24.9261 25.382L26.4801 26.614L26.1581 24.668H27.6281L27.2921 26.614L28.8321 25.396ZM36.0782 25.396L36.7782 26.656L34.9582 27.314L36.7782 27.972L36.0502 29.274L34.5382 28.028L34.8602 29.96H33.4042L33.7122 28.028L32.2142 29.302L31.4442 27.958L33.2642 27.3L31.4582 26.67L32.1722 25.382L33.7262 26.614L33.4042 24.668H34.8742L34.5382 26.614L36.0782 25.396ZM43.3243 25.396L44.0243 26.656L42.2043 27.314L44.0243 27.972L43.2963 29.274L41.7843 28.028L42.1063 29.96H40.6503L40.9583 28.028L39.4603 29.302L38.6903 27.958L40.5103 27.3L38.7043 26.67L39.4183 25.382L40.9723 26.614L40.6503 24.668H42.1203L41.7843 26.614L43.3243 25.396Z" fill="#46D7CB"/>
<circle cx="29.9599" cy="13.9599" r="5.35992" stroke="#46D7CB" stroke-width="1.2"/>
<path d="M31.8433 12.4716C31.8433 13.5117 31.0001 14.3549 29.96 14.3549C28.9199 14.3549 28.0767 13.5117 28.0767 12.4716C28.0767 11.4315 28.9199 10.5883 29.96 10.5883C31.0001 10.5883 31.8433 11.4315 31.8433 12.4716Z" stroke="#46D7CB" stroke-width="1.2"/>
<path d="M26.1521 18.2439C26.6049 17.643 27.1935 17.1578 27.8698 16.8279C28.5461 16.4981 29.2908 16.333 30.0431 16.3461C30.7954 16.3592 31.534 16.5502 32.1983 16.9035C32.8627 17.2567 33.434 17.7622 33.8656 18.3785" stroke="#46D7CB" stroke-width="1.2"/>
</svg>
