<svg width="18" height="20" viewBox="0 0 18 20" fill="none" xmlns="http://www.w3.org/2000/svg">
<path fill-rule="evenodd" clip-rule="evenodd" d="M9 4C8.448 4 8 3.552 8 3C8 2.448 8.448 2 9 2C9.552 2 10 2.448 10 3C10 3.552 9.552 4 9 4ZM12 3C12 1.346 10.654 0 9 0C7.346 0 6 1.346 6 3C6 4.302 6.839 5.401 8 5.815V19C8 19.553 8.447 20 9 20C9.553 20 10 19.553 10 19V5.815C11.161 5.401 12 4.302 12 3ZM3 16C2.448 16 2 15.552 2 15C2 14.448 2.448 14 3 14C3.552 14 4 14.448 4 15C4 15.552 3.552 16 3 16ZM4 12.185V1C4 0.447 3.553 0 3 0C2.447 0 2 0.447 2 1V12.185C0.839 12.599 0 13.698 0 15C0 16.302 0.839 17.401 2 17.815V19C2 19.553 2.447 20 3 20C3.553 20 4 19.553 4 19V17.815C5.161 17.401 6 16.302 6 15C6 13.698 5.161 12.599 4 12.185ZM15 12C14.448 12 14 11.552 14 11C14 10.448 14.448 10 15 10C15.552 10 16 10.448 16 11C16 11.552 15.552 12 15 12ZM18 11C18 9.698 17.161 8.599 16 8.185V1C16 0.447 15.553 0 15 0C14.447 0 14 0.447 14 1V8.185C12.839 8.599 12 9.698 12 11C12 12.302 12.839 13.401 14 13.815V19C14 19.553 14.447 20 15 20C15.553 20 16 19.553 16 19V13.815C17.161 13.401 18 12.302 18 11Z" fill="#2E3A59"/>
</svg>
