<svg width="16" height="16" viewBox="0 0 16 16" fill="none" xmlns="http://www.w3.org/2000/svg">
<path fill-rule="evenodd" clip-rule="evenodd" d="M5.2 6C5.2 4.456 6.456 3.2 8 3.2C9.544 3.2 10.8 4.456 10.8 6C10.8 7.264 9.952 8.3224 8.8 8.6696V9.6C8.8 10.0424 8.4424 10.4 8 10.4C7.5576 10.4 7.2 10.0424 7.2 9.6V8C7.2 7.5576 7.5576 7.2 8 7.2C8.6616 7.2 9.2 6.6616 9.2 6C9.2 5.3384 8.6616 4.8 8 4.8C7.3384 4.8 6.8 5.3384 6.8 6C6.8 6.4424 6.4424 6.8 6 6.8C5.5576 6.8 5.2 6.4424 5.2 6ZM7.20005 12C7.20005 11.5576 7.55765 11.2 8.00005 11.2C8.44245 11.2 8.80005 11.5576 8.80005 12C8.80005 12.4424 8.44245 12.8 8.00005 12.8C7.55765 12.8 7.20005 12.4424 7.20005 12ZM8 14.4C4.4712 14.4 1.6 11.5288 1.6 8C1.6 4.4712 4.4712 1.6 8 1.6C11.5288 1.6 14.4 4.4712 14.4 8C14.4 11.5288 11.5288 14.4 8 14.4ZM8 0C3.5888 0 0 3.5888 0 8C0 12.4112 3.5888 16 8 16C12.4112 16 16 12.4112 16 8C16 3.5888 12.4112 0 8 0Z" fill="#46D7CB"/>
</svg>
