<svg width="26" height="26" viewBox="0 0 26 26" fill="none" xmlns="http://www.w3.org/2000/svg">
<path d="M1 13C1 6.37258 6.37258 1 13 1C19.6274 1 25 6.37258 25 13C25 19.6274 19.6274 25 13 25C6.37258 25 1 19.6274 1 13Z" fill="#DCFBED"/>
<path d="M12.5 7.24318C12.8094 7.06455 13.1906 7.06455 13.5001 7.24318L17.7354 9.68848C18.0448 9.86711 18.2354 10.1972 18.2354 10.5545V15.4451C18.2354 15.8024 18.0448 16.1325 17.7354 16.3111L13.5 18.7564C13.1906 18.9351 12.8095 18.9351 12.5 18.7564L8.26467 16.3111C7.95527 16.1325 7.76467 15.8024 7.76467 15.4451V10.5545C7.76467 10.1972 7.95527 9.86711 8.26467 9.68848L12.5 7.24318Z" fill="#90F3D9" stroke="#46D7CB" stroke-width="2"/>
<path d="M13 24C6.92487 24 2 19.0751 2 13H0C0 20.1797 5.8203 26 13 26V24ZM24 13C24 19.0751 19.0751 24 13 24V26C20.1797 26 26 20.1797 26 13H24ZM13 2C19.0751 2 24 6.92487 24 13H26C26 5.8203 20.1797 0 13 0V2ZM13 0C5.8203 0 0 5.8203 0 13H2C2 6.92487 6.92487 2 13 2V0Z" fill="#46D7CB"/>
</svg>
