<svg width="42" height="42" viewBox="0 0 42 42" fill="none" xmlns="http://www.w3.org/2000/svg">
<path d="M1 21C1 9.95431 9.95431 1 21 1C32.0457 1 41 9.95431 41 21C41 32.0457 32.0457 41 21 41C9.95431 41 1 32.0457 1 21Z" fill="#DCFBED"/>
<path d="M21.5 10.4434L29.8923 15.2887C30.2017 15.4673 30.3923 15.7974 30.3923 16.1547V25.8453C30.3923 26.2026 30.2017 26.5327 29.8923 26.7113L21.5 31.5566C21.1906 31.7353 20.8094 31.7353 20.5 31.5566L12.1077 26.7113C11.7983 26.5327 11.6077 26.2026 11.6077 25.8453V16.1547C11.6077 15.7974 11.7983 15.4673 12.1077 15.2887L20.5 10.4434C20.8094 10.2647 21.1906 10.2647 21.5 10.4434Z" fill="#90F3D9" stroke="#46D7CB" stroke-width="2"/>
<path d="M21 40C10.5066 40 2 31.4934 2 21H0C0 32.598 9.40202 42 21 42V40ZM40 21C40 31.4934 31.4934 40 21 40V42C32.598 42 42 32.598 42 21H40ZM21 2C31.4934 2 40 10.5066 40 21H42C42 9.40202 32.598 0 21 0V2ZM21 0C9.40202 0 0 9.40202 0 21H2C2 10.5066 10.5066 2 21 2V0Z" fill="#46D7CB"/>
</svg>
