<svg width="18" height="18" viewBox="0 0 18 18" fill="none" xmlns="http://www.w3.org/2000/svg">
<path fill-rule="evenodd" clip-rule="evenodd" d="M10.3509 11.3337C10.0719 11.4948 9.90001 11.7927 9.90001 12.114V16.2H8.10001V12.114C8.10001 11.7927 7.92811 11.4948 7.64911 11.3337C6.81661 10.8558 6.30001 9.9612 6.30001 9C6.30001 7.5114 7.51141 6.3 9.00001 6.3C10.4886 6.3 11.7 7.5114 11.7 9C11.7 9.9612 11.1834 10.8558 10.3509 11.3337ZM9 4.5C6.5187 4.5 4.5 6.5187 4.5 9C4.5 10.4211 5.1777 11.7558 6.3 12.5964V16.2C6.3 17.1927 7.1073 18 8.1 18H9.9C10.8927 18 11.7 17.1927 11.7 16.2V12.5964C12.8214 11.7558 13.5 10.4211 13.5 9C13.5 6.5187 11.4813 4.5 9 4.5Z" fill="#8F9BB3"/>
<path fill-rule="evenodd" clip-rule="evenodd" d="M9.00001 3.6C9.49681 3.6 9.90001 3.1977 9.90001 2.7V0.9C9.90001 0.4023 9.49681 0 9.00001 0C8.50321 0 8.10001 0.4023 8.10001 0.9V2.7C8.10001 3.1977 8.50321 3.6 9.00001 3.6Z" fill="#8F9BB3"/>
<path fill-rule="evenodd" clip-rule="evenodd" d="M17.1 8.10156H15.3C14.8023 8.10156 14.4 8.50386 14.4 9.00156C14.4 9.49926 14.8023 9.90156 15.3 9.90156H17.1C17.5977 9.90156 18 9.49926 18 9.00156C18 8.50386 17.5977 8.10156 17.1 8.10156Z" fill="#8F9BB3"/>
<path fill-rule="evenodd" clip-rule="evenodd" d="M2.7 8.10156H0.9C0.4032 8.10156 0 8.50386 0 9.00156C0 9.49926 0.4032 9.90156 0.9 9.90156H2.7C3.1968 9.90156 3.6 9.49926 3.6 9.00156C3.6 8.50386 3.1968 8.10156 2.7 8.10156Z" fill="#8F9BB3"/>
<path fill-rule="evenodd" clip-rule="evenodd" d="M5.09375 3.97536L3.79865 2.72436C3.44135 2.37966 2.87255 2.39046 2.52605 2.74776C2.18045 3.10416 2.19035 3.67476 2.54765 4.02036L3.84275 5.27046C4.01825 5.43966 4.24325 5.52336 4.46825 5.52336C4.70405 5.52336 4.93895 5.43066 5.11535 5.24796C5.46095 4.89156 5.45105 4.32096 5.09375 3.97536Z" fill="#8F9BB3"/>
<path fill-rule="evenodd" clip-rule="evenodd" d="M15.4732 2.7465C15.1303 2.3901 14.5579 2.3802 14.2015 2.7249L12.9064 3.975C12.5491 4.3197 12.5392 4.8903 12.8848 5.2467C13.0603 5.4294 13.2961 5.5221 13.5319 5.5221C13.7569 5.5221 13.9828 5.4375 14.1565 5.2692L15.4516 4.0182C15.8089 3.6735 15.8188 3.1029 15.4732 2.7465Z" fill="#8F9BB3"/>
</svg>
