<svg width="48" height="48" viewBox="0 0 48 48" fill="none" xmlns="http://www.w3.org/2000/svg">
<path fill-rule="evenodd" clip-rule="evenodd" d="M13.3333 18.6667C15.5413 18.6667 17.3333 16.8747 17.3333 14.6667C17.3333 12.4587 15.5413 10.6667 13.3333 10.6667C11.1253 10.6667 9.33333 12.4587 9.33333 14.6667C9.33333 16.8747 11.1253 18.6667 13.3333 18.6667ZM40.0001 42.6668H9.49609L28.1761 27.0801C28.8321 26.5228 30.0214 26.5254 30.6641 27.0774L42.6668 37.3174V40.0001C42.6668 41.4721 41.4721 42.6668 40.0001 42.6668ZM8 5.33333H40C41.472 5.33333 42.6667 6.528 42.6667 8V30.304L34.1253 23.0187C31.4853 20.7733 27.3547 20.7733 24.7387 23.0027L5.33333 39.1947V8C5.33333 6.528 6.528 5.33333 8 5.33333ZM40 0H8C3.58933 0 0 3.58933 0 8V40C0 44.4107 3.58933 48 8 48H40C44.4107 48 48 44.4107 48 40V8C48 3.58933 44.4107 0 40 0Z" fill="#E4E9F2"/>
</svg>
