<svg width="13" height="18" viewBox="0 0 13 18" fill="none" xmlns="http://www.w3.org/2000/svg">
<path d="M6.93662 2.63106C6.93662 3.51653 7.65715 4.23712 8.54251 4.23712C9.42836 4.23712 10.1484 3.5165 10.1484 2.63106C10.1484 1.74561 9.42836 1.025 8.54251 1.025C7.6572 1.025 6.93662 1.74559 6.93662 2.63106ZM7.51304 2.63106C7.51304 2.0635 7.97479 1.60159 8.54251 1.60159C9.11023 1.60159 9.57198 2.06333 9.57198 2.63106C9.57198 3.19862 9.11022 3.66053 8.54251 3.66053C7.97494 3.66053 7.51304 3.19878 7.51304 2.63106Z" fill="#46D7CB" stroke="#46D7CB" stroke-width="0.2"/>
<mask id="path-2-outside-1_1937_5944" maskUnits="userSpaceOnUse" x="-0.625" y="3.05469" width="13" height="15" fill="black">
<rect fill="white" x="-0.625" y="3.05469" width="13" height="15"/>
<path d="M1.19064 16.874C0.740692 16.874 0.375 16.5078 0.375 16.0579C0.375 15.8566 0.448871 15.6651 0.583491 15.5149C0.588539 15.5076 0.594092 15.5004 0.600655 15.4938L3.2557 12.6503L4.12484 9.67758C4.12939 9.66193 4.13595 9.64695 4.14436 9.63315L5.11987 5.63631H4.07018L3.37757 7.93578C3.3737 7.94857 3.36848 7.96086 3.36209 7.97247C3.24144 8.28781 2.94039 8.49716 2.60283 8.49716C2.15318 8.49716 1.78719 8.13116 1.78719 7.68152C1.78719 7.61606 1.79661 7.54925 1.81563 7.47807C1.81664 7.46579 1.819 7.4535 1.82287 7.44139L2.65415 4.6992C2.65953 4.67514 2.6671 4.65242 2.67484 4.62953L2.67972 4.61557C2.79499 4.27716 3.10428 4.05469 3.45177 4.05469H7.22517C7.24402 4.05469 7.26236 4.05755 7.27952 4.0626C7.53715 4.09171 7.76635 4.24248 7.89438 4.46746C7.90767 4.48092 7.91894 4.49657 7.92736 4.51458L9.24865 7.28421L10.9151 6.28333C10.9279 6.27559 10.9408 6.26936 10.9551 6.26516C11.0714 6.20508 11.1949 6.17462 11.3225 6.17462C11.772 6.17462 12.1381 6.54079 12.1381 6.99044C12.1381 7.2649 12.002 7.51664 11.772 7.66875C11.7646 7.67498 11.7565 7.68087 11.7479 7.68591L9.37842 9.10952C9.23505 9.21587 9.06796 9.27241 8.8931 9.27241C8.54023 9.27241 8.23164 9.04726 8.12088 8.71088L7.73974 7.91157L7.35961 9.46893L9.76592 11.3674C9.77719 11.3761 9.78712 11.3862 9.79604 11.3973C9.95624 11.5515 10.0476 11.763 10.0476 11.9831C10.0476 12.2507 9.91753 12.4982 9.6981 12.6512C9.69103 12.6579 9.68295 12.6641 9.67488 12.6694L6.10257 15.0294C5.96846 15.1293 5.80102 15.1852 5.62686 15.1852C5.17721 15.1852 4.81121 14.8191 4.81121 14.3691C4.81121 14.11 4.93405 13.8673 5.14154 13.7137C5.15046 13.7047 5.16055 13.6963 5.17149 13.6891L7.79405 11.9561L5.77054 10.4968L4.78124 13.383C4.77283 13.4081 4.75886 13.431 4.74069 13.4503L1.78544 16.6151C1.78056 16.6201 1.77551 16.625 1.77029 16.6296C1.61531 16.7872 1.41035 16.8741 1.19059 16.8741L1.19064 16.874ZM0.893137 15.7319C0.887583 15.7396 0.881526 15.747 0.874795 15.7538C0.795199 15.8367 0.751281 15.9446 0.751281 16.0577C0.751281 16.2998 0.948329 16.497 1.19064 16.497C1.31196 16.497 1.42538 16.4474 1.51002 16.3574C1.51406 16.3528 1.51827 16.3489 1.52281 16.3447L4.43835 13.2226L5.49596 10.1347C5.51531 10.0785 5.56008 10.0344 5.61712 10.0166C5.67383 9.9984 5.73575 10.0083 5.78422 10.0432L8.23498 11.8102C8.28496 11.8462 8.31407 11.905 8.31272 11.9667C8.31171 12.0285 8.28008 12.0857 8.22825 12.1199L5.40546 13.9847C5.39823 13.9917 5.38998 13.9985 5.38106 14.0042C5.2594 14.0861 5.18688 14.2224 5.18688 14.3687C5.18688 14.6108 5.38392 14.808 5.62623 14.808C5.71912 14.808 5.80881 14.7776 5.88604 14.7207L9.44336 12.3701C9.45043 12.3635 9.45884 12.3573 9.46742 12.3517C9.59413 12.2701 9.67002 12.1321 9.67002 11.9829C9.67002 11.8582 9.61769 11.7426 9.52211 11.6569C9.51774 11.6532 9.5142 11.6497 9.51084 11.6458L7.03065 9.68948C6.97276 9.64388 6.94668 9.56866 6.96486 9.49697L7.49911 7.30838C7.51796 7.23114 7.58358 7.17393 7.66268 7.16585C7.74176 7.15744 7.81783 7.20035 7.85198 7.27203L8.46602 8.55999C8.4704 8.56823 8.47309 8.57664 8.47595 8.58539C8.53333 8.77117 8.70127 8.89569 8.8931 8.89569C8.98784 8.89569 9.07955 8.86389 9.15847 8.80348C9.16403 8.7991 9.16975 8.79523 9.17581 8.79136L11.5335 7.37534C11.539 7.37046 11.5453 7.36642 11.5513 7.36255C11.6827 7.28127 11.7615 7.14211 11.7615 6.99016C11.7615 6.74801 11.5646 6.5508 11.3225 6.5508C11.2484 6.5508 11.1761 6.57083 11.1066 6.61037C11.0977 6.61576 11.0882 6.61996 11.0783 6.62367L9.26416 7.71359C9.21856 7.74068 9.16387 7.74758 9.11288 7.73244C9.06206 7.71729 9.02 7.68111 8.99728 7.63332L7.60817 4.72132C7.59724 4.7092 7.58798 4.69574 7.58091 4.68059C7.51209 4.53857 7.37124 4.4445 7.21357 4.43458C7.20465 4.43407 7.19574 4.4329 7.18732 4.43121L3.45127 4.43105C3.265 4.43105 3.09907 4.55085 3.03799 4.72923L3.03092 4.75077C3.02722 4.76171 3.02318 4.77231 3.02083 4.78358C3.01965 4.7893 3.01813 4.79519 3.01645 4.80091L2.1931 7.51721C2.19192 7.52899 2.18939 7.54111 2.18586 7.55272C2.17072 7.60185 2.16348 7.64274 2.16348 7.68128C2.16348 7.92343 2.36053 8.12029 2.60283 8.12029C2.78979 8.12029 2.95604 7.99964 3.01662 7.82026C3.01932 7.81286 3.02218 7.80528 3.02554 7.79839L3.74977 5.39324C3.77367 5.31381 3.84704 5.25929 3.93 5.25929H5.35933C5.41722 5.25929 5.47174 5.28554 5.50741 5.33115C5.54309 5.37675 5.55588 5.43615 5.54241 5.49202L4.52788 9.64855C4.53461 9.66689 4.53848 9.68641 4.53915 9.70644C4.54184 9.77055 4.51172 9.83012 4.46141 9.8663L3.60407 12.7983C3.59582 12.8266 3.58118 12.8526 3.56082 12.874L0.893137 15.7319Z"/>
</mask>
<path d="M1.19064 16.874C0.740692 16.874 0.375 16.5078 0.375 16.0579C0.375 15.8566 0.448871 15.6651 0.583491 15.5149C0.588539 15.5076 0.594092 15.5004 0.600655 15.4938L3.2557 12.6503L4.12484 9.67758C4.12939 9.66193 4.13595 9.64695 4.14436 9.63315L5.11987 5.63631H4.07018L3.37757 7.93578C3.3737 7.94857 3.36848 7.96086 3.36209 7.97247C3.24144 8.28781 2.94039 8.49716 2.60283 8.49716C2.15318 8.49716 1.78719 8.13116 1.78719 7.68152C1.78719 7.61606 1.79661 7.54925 1.81563 7.47807C1.81664 7.46579 1.819 7.4535 1.82287 7.44139L2.65415 4.6992C2.65953 4.67514 2.6671 4.65242 2.67484 4.62953L2.67972 4.61557C2.79499 4.27716 3.10428 4.05469 3.45177 4.05469H7.22517C7.24402 4.05469 7.26236 4.05755 7.27952 4.0626C7.53715 4.09171 7.76635 4.24248 7.89438 4.46746C7.90767 4.48092 7.91894 4.49657 7.92736 4.51458L9.24865 7.28421L10.9151 6.28333C10.9279 6.27559 10.9408 6.26936 10.9551 6.26516C11.0714 6.20508 11.1949 6.17462 11.3225 6.17462C11.772 6.17462 12.1381 6.54079 12.1381 6.99044C12.1381 7.2649 12.002 7.51664 11.772 7.66875C11.7646 7.67498 11.7565 7.68087 11.7479 7.68591L9.37842 9.10952C9.23505 9.21587 9.06796 9.27241 8.8931 9.27241C8.54023 9.27241 8.23164 9.04726 8.12088 8.71088L7.73974 7.91157L7.35961 9.46893L9.76592 11.3674C9.77719 11.3761 9.78712 11.3862 9.79604 11.3973C9.95624 11.5515 10.0476 11.763 10.0476 11.9831C10.0476 12.2507 9.91753 12.4982 9.6981 12.6512C9.69103 12.6579 9.68295 12.6641 9.67488 12.6694L6.10257 15.0294C5.96846 15.1293 5.80102 15.1852 5.62686 15.1852C5.17721 15.1852 4.81121 14.8191 4.81121 14.3691C4.81121 14.11 4.93405 13.8673 5.14154 13.7137C5.15046 13.7047 5.16055 13.6963 5.17149 13.6891L7.79405 11.9561L5.77054 10.4968L4.78124 13.383C4.77283 13.4081 4.75886 13.431 4.74069 13.4503L1.78544 16.6151C1.78056 16.6201 1.77551 16.625 1.77029 16.6296C1.61531 16.7872 1.41035 16.8741 1.19059 16.8741L1.19064 16.874ZM0.893137 15.7319C0.887583 15.7396 0.881526 15.747 0.874795 15.7538C0.795199 15.8367 0.751281 15.9446 0.751281 16.0577C0.751281 16.2998 0.948329 16.497 1.19064 16.497C1.31196 16.497 1.42538 16.4474 1.51002 16.3574C1.51406 16.3528 1.51827 16.3489 1.52281 16.3447L4.43835 13.2226L5.49596 10.1347C5.51531 10.0785 5.56008 10.0344 5.61712 10.0166C5.67383 9.9984 5.73575 10.0083 5.78422 10.0432L8.23498 11.8102C8.28496 11.8462 8.31407 11.905 8.31272 11.9667C8.31171 12.0285 8.28008 12.0857 8.22825 12.1199L5.40546 13.9847C5.39823 13.9917 5.38998 13.9985 5.38106 14.0042C5.2594 14.0861 5.18688 14.2224 5.18688 14.3687C5.18688 14.6108 5.38392 14.808 5.62623 14.808C5.71912 14.808 5.80881 14.7776 5.88604 14.7207L9.44336 12.3701C9.45043 12.3635 9.45884 12.3573 9.46742 12.3517C9.59413 12.2701 9.67002 12.1321 9.67002 11.9829C9.67002 11.8582 9.61769 11.7426 9.52211 11.6569C9.51774 11.6532 9.5142 11.6497 9.51084 11.6458L7.03065 9.68948C6.97276 9.64388 6.94668 9.56866 6.96486 9.49697L7.49911 7.30838C7.51796 7.23114 7.58358 7.17393 7.66268 7.16585C7.74176 7.15744 7.81783 7.20035 7.85198 7.27203L8.46602 8.55999C8.4704 8.56823 8.47309 8.57664 8.47595 8.58539C8.53333 8.77117 8.70127 8.89569 8.8931 8.89569C8.98784 8.89569 9.07955 8.86389 9.15847 8.80348C9.16403 8.7991 9.16975 8.79523 9.17581 8.79136L11.5335 7.37534C11.539 7.37046 11.5453 7.36642 11.5513 7.36255C11.6827 7.28127 11.7615 7.14211 11.7615 6.99016C11.7615 6.74801 11.5646 6.5508 11.3225 6.5508C11.2484 6.5508 11.1761 6.57083 11.1066 6.61037C11.0977 6.61576 11.0882 6.61996 11.0783 6.62367L9.26416 7.71359C9.21856 7.74068 9.16387 7.74758 9.11288 7.73244C9.06206 7.71729 9.02 7.68111 8.99728 7.63332L7.60817 4.72132C7.59724 4.7092 7.58798 4.69574 7.58091 4.68059C7.51209 4.53857 7.37124 4.4445 7.21357 4.43458C7.20465 4.43407 7.19574 4.4329 7.18732 4.43121L3.45127 4.43105C3.265 4.43105 3.09907 4.55085 3.03799 4.72923L3.03092 4.75077C3.02722 4.76171 3.02318 4.77231 3.02083 4.78358C3.01965 4.7893 3.01813 4.79519 3.01645 4.80091L2.1931 7.51721C2.19192 7.52899 2.18939 7.54111 2.18586 7.55272C2.17072 7.60185 2.16348 7.64274 2.16348 7.68128C2.16348 7.92343 2.36053 8.12029 2.60283 8.12029C2.78979 8.12029 2.95604 7.99964 3.01662 7.82026C3.01932 7.81286 3.02218 7.80528 3.02554 7.79839L3.74977 5.39324C3.77367 5.31381 3.84704 5.25929 3.93 5.25929H5.35933C5.41722 5.25929 5.47174 5.28554 5.50741 5.33115C5.54309 5.37675 5.55588 5.43615 5.54241 5.49202L4.52788 9.64855C4.53461 9.66689 4.53848 9.68641 4.53915 9.70644C4.54184 9.77055 4.51172 9.83012 4.46141 9.8663L3.60407 12.7983C3.59582 12.8266 3.58118 12.8526 3.56082 12.874L0.893137 15.7319Z" fill="#46D7CB"/>
<path d="M1.19064 16.874C0.740692 16.874 0.375 16.5078 0.375 16.0579C0.375 15.8566 0.448871 15.6651 0.583491 15.5149C0.588539 15.5076 0.594092 15.5004 0.600655 15.4938L3.2557 12.6503L4.12484 9.67758C4.12939 9.66193 4.13595 9.64695 4.14436 9.63315L5.11987 5.63631H4.07018L3.37757 7.93578C3.3737 7.94857 3.36848 7.96086 3.36209 7.97247C3.24144 8.28781 2.94039 8.49716 2.60283 8.49716C2.15318 8.49716 1.78719 8.13116 1.78719 7.68152C1.78719 7.61606 1.79661 7.54925 1.81563 7.47807C1.81664 7.46579 1.819 7.4535 1.82287 7.44139L2.65415 4.6992C2.65953 4.67514 2.6671 4.65242 2.67484 4.62953L2.67972 4.61557C2.79499 4.27716 3.10428 4.05469 3.45177 4.05469H7.22517C7.24402 4.05469 7.26236 4.05755 7.27952 4.0626C7.53715 4.09171 7.76635 4.24248 7.89438 4.46746C7.90767 4.48092 7.91894 4.49657 7.92736 4.51458L9.24865 7.28421L10.9151 6.28333C10.9279 6.27559 10.9408 6.26936 10.9551 6.26516C11.0714 6.20508 11.1949 6.17462 11.3225 6.17462C11.772 6.17462 12.1381 6.54079 12.1381 6.99044C12.1381 7.2649 12.002 7.51664 11.772 7.66875C11.7646 7.67498 11.7565 7.68087 11.7479 7.68591L9.37842 9.10952C9.23505 9.21587 9.06796 9.27241 8.8931 9.27241C8.54023 9.27241 8.23164 9.04726 8.12088 8.71088L7.73974 7.91157L7.35961 9.46893L9.76592 11.3674C9.77719 11.3761 9.78712 11.3862 9.79604 11.3973C9.95624 11.5515 10.0476 11.763 10.0476 11.9831C10.0476 12.2507 9.91753 12.4982 9.6981 12.6512C9.69103 12.6579 9.68295 12.6641 9.67488 12.6694L6.10257 15.0294C5.96846 15.1293 5.80102 15.1852 5.62686 15.1852C5.17721 15.1852 4.81121 14.8191 4.81121 14.3691C4.81121 14.11 4.93405 13.8673 5.14154 13.7137C5.15046 13.7047 5.16055 13.6963 5.17149 13.6891L7.79405 11.9561L5.77054 10.4968L4.78124 13.383C4.77283 13.4081 4.75886 13.431 4.74069 13.4503L1.78544 16.6151C1.78056 16.6201 1.77551 16.625 1.77029 16.6296C1.61531 16.7872 1.41035 16.8741 1.19059 16.8741L1.19064 16.874ZM0.893137 15.7319C0.887583 15.7396 0.881526 15.747 0.874795 15.7538C0.795199 15.8367 0.751281 15.9446 0.751281 16.0577C0.751281 16.2998 0.948329 16.497 1.19064 16.497C1.31196 16.497 1.42538 16.4474 1.51002 16.3574C1.51406 16.3528 1.51827 16.3489 1.52281 16.3447L4.43835 13.2226L5.49596 10.1347C5.51531 10.0785 5.56008 10.0344 5.61712 10.0166C5.67383 9.9984 5.73575 10.0083 5.78422 10.0432L8.23498 11.8102C8.28496 11.8462 8.31407 11.905 8.31272 11.9667C8.31171 12.0285 8.28008 12.0857 8.22825 12.1199L5.40546 13.9847C5.39823 13.9917 5.38998 13.9985 5.38106 14.0042C5.2594 14.0861 5.18688 14.2224 5.18688 14.3687C5.18688 14.6108 5.38392 14.808 5.62623 14.808C5.71912 14.808 5.80881 14.7776 5.88604 14.7207L9.44336 12.3701C9.45043 12.3635 9.45884 12.3573 9.46742 12.3517C9.59413 12.2701 9.67002 12.1321 9.67002 11.9829C9.67002 11.8582 9.61769 11.7426 9.52211 11.6569C9.51774 11.6532 9.5142 11.6497 9.51084 11.6458L7.03065 9.68948C6.97276 9.64388 6.94668 9.56866 6.96486 9.49697L7.49911 7.30838C7.51796 7.23114 7.58358 7.17393 7.66268 7.16585C7.74176 7.15744 7.81783 7.20035 7.85198 7.27203L8.46602 8.55999C8.4704 8.56823 8.47309 8.57664 8.47595 8.58539C8.53333 8.77117 8.70127 8.89569 8.8931 8.89569C8.98784 8.89569 9.07955 8.86389 9.15847 8.80348C9.16403 8.7991 9.16975 8.79523 9.17581 8.79136L11.5335 7.37534C11.539 7.37046 11.5453 7.36642 11.5513 7.36255C11.6827 7.28127 11.7615 7.14211 11.7615 6.99016C11.7615 6.74801 11.5646 6.5508 11.3225 6.5508C11.2484 6.5508 11.1761 6.57083 11.1066 6.61037C11.0977 6.61576 11.0882 6.61996 11.0783 6.62367L9.26416 7.71359C9.21856 7.74068 9.16387 7.74758 9.11288 7.73244C9.06206 7.71729 9.02 7.68111 8.99728 7.63332L7.60817 4.72132C7.59724 4.7092 7.58798 4.69574 7.58091 4.68059C7.51209 4.53857 7.37124 4.4445 7.21357 4.43458C7.20465 4.43407 7.19574 4.4329 7.18732 4.43121L3.45127 4.43105C3.265 4.43105 3.09907 4.55085 3.03799 4.72923L3.03092 4.75077C3.02722 4.76171 3.02318 4.77231 3.02083 4.78358C3.01965 4.7893 3.01813 4.79519 3.01645 4.80091L2.1931 7.51721C2.19192 7.52899 2.18939 7.54111 2.18586 7.55272C2.17072 7.60185 2.16348 7.64274 2.16348 7.68128C2.16348 7.92343 2.36053 8.12029 2.60283 8.12029C2.78979 8.12029 2.95604 7.99964 3.01662 7.82026C3.01932 7.81286 3.02218 7.80528 3.02554 7.79839L3.74977 5.39324C3.77367 5.31381 3.84704 5.25929 3.93 5.25929H5.35933C5.41722 5.25929 5.47174 5.28554 5.50741 5.33115C5.54309 5.37675 5.55588 5.43615 5.54241 5.49202L4.52788 9.64855C4.53461 9.66689 4.53848 9.68641 4.53915 9.70644C4.54184 9.77055 4.51172 9.83012 4.46141 9.8663L3.60407 12.7983C3.59582 12.8266 3.58118 12.8526 3.56082 12.874L0.893137 15.7319Z" stroke="#46D7CB" stroke-width="0.4" mask="url(#path-2-outside-1_1937_5944)"/>
</svg>
