<svg width="149" height="144" viewBox="0 0 149 144" fill="none" xmlns="http://www.w3.org/2000/svg">
<path d="M60.0849 79.3401H59.7818C58.6316 79.3389 57.4937 79.5687 56.4342 80.0171C56.1895 77.0533 54.4194 74.4299 51.76 73.0943C49.1017 71.7602 45.9403 71.9067 43.4176 73.4818C42.3729 71.6906 40.7121 70.3416 38.7459 69.6869C36.7795 69.031 34.6418 69.1142 32.7325 69.9204V58.1843C32.7325 55.1087 31.0916 52.2667 28.4272 50.7276C25.7639 49.1898 22.4809 49.1898 19.8177 50.7276C17.1532 52.2666 15.5123 55.1086 15.5123 58.1843V89.9009L15.1384 89.3307L14.9607 89.081C13.4987 87.2948 11.3696 86.1855 9.06791 86.0104C6.76738 85.8365 4.49413 86.6103 2.78012 88.1556C1.2162 89.5742 0.238612 91.5245 0.038623 93.6261C-0.16261 95.7267 0.427438 97.8272 1.6932 99.5164L20.7483 129.095V141.33C20.7483 142.805 21.9445 144 23.419 144H58.7518C60.2263 144 61.4225 142.805 61.4225 141.33V129.168L68.2073 119.623V119.621C68.5315 119.17 68.7054 118.629 68.7067 118.072V87.906C68.6918 85.629 67.7775 83.4502 66.1627 81.8452C64.5479 80.2403 62.3642 79.3398 60.0873 79.3398L60.0849 79.3401ZM63.3431 117.217L56.5583 126.762C56.2353 127.214 56.0614 127.756 56.0602 128.311V138.693H26.0901V128.311C26.0889 127.799 25.9398 127.299 25.6628 126.869L6.07341 96.5956L5.93056 96.3994C4.93309 95.1112 5.09582 93.2716 6.30447 92.1795C6.91811 91.6305 7.72554 91.3485 8.54661 91.3945C9.36892 91.4417 10.1378 91.8131 10.6857 92.428L15.9749 100.371C16.6159 101.364 17.8357 101.818 18.9711 101.485C20.1052 101.152 20.8865 100.111 20.889 98.9284V58.1833C20.889 56.3784 22.3523 54.9165 24.1571 54.9165C25.9618 54.9165 27.4251 56.3785 27.4251 58.1833V90.6128C27.4251 92.0885 28.6214 93.2834 30.0958 93.2834C31.5715 93.2834 32.7677 92.0885 32.7677 90.6128V77.8445C32.7677 76.0396 34.2298 74.5777 36.0345 74.5777C37.8394 74.5777 39.3026 76.0397 39.3026 77.8445V90.6128C39.3026 92.0885 40.4988 93.2834 41.9733 93.2834C43.449 93.2834 44.6452 92.0885 44.6452 90.6128V80.7834C44.6452 78.9785 46.1073 77.5153 47.912 77.5153C49.7168 77.5153 51.1801 78.9786 51.1801 80.7834V94.6561V94.6549C51.1801 96.1306 52.3763 97.3268 53.8508 97.3268C55.3265 97.3268 56.5227 96.1306 56.5227 94.6549V91.6277V91.5035V87.9063C56.5227 86.1063 57.981 84.648 59.7809 84.648H60.084C61.8839 84.648 63.3422 86.1064 63.3422 87.9063L63.3431 117.217Z" fill="#46D7CB"/>
<path fill-rule="evenodd" clip-rule="evenodd" d="M29.9697 61.0874C31.8408 59.8114 33.255 57.9707 34.0061 55.8341C34.7572 53.6975 34.8058 51.3767 34.1447 49.2106C33.4837 47.0444 32.1477 45.1462 30.3316 43.793C28.5156 42.4398 26.3146 41.7024 24.0498 41.6884C21.7851 41.6744 19.5752 42.3846 17.7426 43.7154C15.91 45.0461 14.5506 46.9277 13.8629 49.0856C13.1753 51.2434 13.1952 53.5646 13.9199 55.7103C14.6446 57.856 16.0361 59.7139 17.8913 61.013C18.9592 61.7608 19.2188 63.2327 18.471 64.3007C17.7232 65.3687 16.2512 65.6282 15.1832 64.8804C12.5035 63.0041 10.4936 60.3204 9.44681 57.221C8.40005 54.1216 8.37122 50.7689 9.36455 47.652C10.3579 44.5351 12.3214 41.8172 14.9684 39.895C17.6155 37.9729 20.8076 36.947 24.0789 36.9672C27.3502 36.9873 30.5294 38.0525 33.1526 40.0071C35.7758 41.9618 37.7056 44.7036 38.6605 47.8325L36.4026 48.5216L38.6605 47.8325C39.6153 50.9614 39.5451 54.3136 38.4602 57.3998C37.3753 60.4861 35.3325 63.1448 32.6298 64.988C31.5527 65.7226 30.0841 65.4449 29.3495 64.3678C28.6149 63.2907 28.8926 61.822 29.9697 61.0874Z" fill="#46D7CB"/>
<path fill-rule="evenodd" clip-rule="evenodd" d="M49.5737 51.9349C49.5737 50.6311 50.6306 49.5742 51.9344 49.5742H146.361C147.664 49.5742 148.721 50.6311 148.721 51.9349C148.721 53.2386 147.664 54.2955 146.361 54.2955H51.9344C50.6306 54.2955 49.5737 53.2386 49.5737 51.9349Z" fill="#46D7CB"/>
<path fill-rule="evenodd" clip-rule="evenodd" d="M63.7378 88.5247C63.7378 87.221 64.7947 86.1641 66.0984 86.1641H146.361C147.664 86.1641 148.721 87.221 148.721 88.5247C148.721 89.8285 147.664 90.8854 146.361 90.8854H66.0984C64.7947 90.8854 63.7378 89.8285 63.7378 88.5247Z" fill="#46D7CB"/>
<path fill-rule="evenodd" clip-rule="evenodd" d="M49.5737 15.345C49.5737 14.0413 50.6306 12.9844 51.9344 12.9844H146.361C147.664 12.9844 148.721 14.0413 148.721 15.345C148.721 16.6488 147.664 17.7057 146.361 17.7057H51.9344C50.6306 17.7057 49.5737 16.6488 49.5737 15.345Z" fill="#46D7CB"/>
<path fill-rule="evenodd" clip-rule="evenodd" d="M23.0163 24.7869C28.5573 24.7869 33.0491 20.2951 33.0491 14.7541C33.0491 9.21314 28.5573 4.72131 23.0163 4.72131C17.4754 4.72131 12.9835 9.21314 12.9835 14.7541C12.9835 20.2951 17.4754 24.7869 23.0163 24.7869ZM23.0163 29.5082C31.1648 29.5082 37.7704 22.9026 37.7704 14.7541C37.7704 6.60564 31.1648 0 23.0163 0C14.8678 0 8.26221 6.60564 8.26221 14.7541C8.26221 22.9026 14.8678 29.5082 23.0163 29.5082Z" fill="#46D7CB"/>
</svg>
