<svg width="16" height="16" viewBox="0 0 16 16" fill="none" xmlns="http://www.w3.org/2000/svg">
<path d="M11.0334 13.1544L11.0323 13.1533C10.6974 12.8185 10.2679 12.9078 10.0799 12.9864C9.90067 13.0613 9.5008 13.2904 9.5008 13.7864V14.6536C9.5008 15.0646 9.16543 15.4 8.7544 15.4H7.2408C6.83297 15.4 6.5 15.067 6.5 14.6592V13.7864C6.5 13.3153 6.13631 13.0748 5.94588 12.9968C5.76289 12.9218 5.32654 12.8077 4.97707 13.1473L4.97702 13.1472L4.97066 13.1536L4.35558 13.7695C4.3555 13.7696 4.35542 13.7697 4.35534 13.7697C4.06368 14.0602 3.59072 14.0594 3.30219 13.7705L3.30186 13.7701L2.22986 12.6981C2.0887 12.557 2.01217 12.3725 2.012 12.1711C2.01261 11.9708 2.08938 11.786 2.23143 11.6443C2.23149 11.6442 2.23154 11.6442 2.2316 11.6441L2.84583 11.0323L2.84667 11.0315C3.17765 10.7005 3.09584 10.2773 3.01424 10.0814C2.93757 9.89535 2.70796 9.5 2.2136 9.5H1.3464C0.934907 9.5 0.6 9.16497 0.6 8.7544V7.2408C0.6 6.83264 0.932505 6.5 1.3416 6.5H2.2136C2.68549 6.5 2.925 6.13469 3.00251 5.94677C3.07823 5.76411 3.19598 5.32025 2.84666 4.97094L2.84639 4.97066L2.23083 4.35591C2.23066 4.35574 2.23049 4.35556 2.23032 4.35539C1.94012 4.0633 1.94168 3.59004 2.22986 3.30186L3.30186 2.22986C3.44359 2.08814 3.62771 2.012 3.828 2.012H3.8296C4.02979 2.012 4.21478 2.08881 4.3552 2.23013L4.35543 2.23036L4.96653 2.84465C4.96672 2.84484 4.96692 2.84504 4.96711 2.84523C5.30175 3.18246 5.73156 3.09337 5.92222 3.01307C6.10208 2.93762 6.5 2.70839 6.5 2.2136V1.3464C6.5 0.935371 6.83537 0.6 7.2464 0.6H8.76C9.16783 0.6 9.5008 0.932972 9.5008 1.3408V2.2136C9.5008 2.68402 9.86344 2.92451 10.0541 3.00287C10.2337 3.07691 10.6784 3.19811 11.0299 2.84667L11.0301 2.84639L11.6452 2.23051C11.6453 2.2304 11.6454 2.23029 11.6456 2.23018C11.9372 1.93976 12.4101 1.9406 12.6986 2.22954L12.6989 2.22986L13.7717 3.30267L13.7724 3.30333C13.913 3.44348 13.9892 3.62741 13.9888 3.82827V3.8296C13.9888 4.0288 13.9121 4.21384 13.7707 4.3544L13.7702 4.35491L13.155 4.96771L13.1541 4.96854C12.8232 5.29947 12.9049 5.72261 12.9865 5.91854C13.0632 6.10451 13.2928 6.5 13.7872 6.5H14.6544C15.0654 6.5 15.4 6.83457 15.4 7.2456V8.7592C15.4 9.16783 15.0678 9.5 14.6592 9.5H13.7872C13.3207 9.5 13.0813 9.85698 13.001 10.0467L12.9992 10.0508L12.99 10.0727L12.99 10.0727L12.9893 10.0744L12.9891 10.0748L12.9891 10.0748L12.9873 10.0791C12.9107 10.264 12.8188 10.6938 13.1541 11.0291L13.1544 11.0293L13.77 11.6441C13.7701 11.6443 13.7703 11.6444 13.7705 11.6446C14.0607 11.9367 14.0591 12.41 13.7709 12.6981L12.6989 13.7701C12.5572 13.9119 12.3731 13.988 12.1728 13.988H12.1712C11.971 13.988 11.786 13.9112 11.6456 13.7699L11.6454 13.7696L11.0334 13.1544Z" stroke="#46D7CB" stroke-width="1.2"/>
<path d="M10.4 8C10.4 9.32548 9.32548 10.4 8 10.4C6.67452 10.4 5.6 9.32548 5.6 8C5.6 6.67452 6.67452 5.6 8 5.6C9.32548 5.6 10.4 6.67452 10.4 8Z" stroke="#46D7CB" stroke-width="1.2"/>
</svg>
