<svg width="24" height="24" viewBox="0 0 24 24" fill="none" xmlns="http://www.w3.org/2000/svg">
<path d="M16.4437 19.8375L16.4423 19.8361L15.4668 20.31L15.1777 19.618C15.1776 19.618 15.1775 19.618 15.1774 19.6181C14.9241 19.724 14.4012 20.0304 14.4012 20.6796V21.9804C14.4012 22.6798 13.831 23.25 13.1316 23.25H10.8612C10.1666 23.25 9.6 22.6834 9.6 21.9888V20.6796C9.6 20.0613 9.12197 19.7405 8.86195 19.634C8.60442 19.5285 8.02817 19.3834 7.57014 19.8285L7.57008 19.8285L7.56213 19.8364L6.63928 20.7605C6.63914 20.7606 6.63901 20.7607 6.63887 20.7609C6.14309 21.2547 5.33876 21.2541 4.84714 20.7617L4.84673 20.7613L3.23873 19.1533C2.99867 18.9132 2.86821 18.5982 2.868 18.2564C2.86897 17.9162 3.00001 17.6007 3.2415 17.36L4.16289 16.4422L4.16393 16.4411C4.59883 16.0062 4.49408 15.4462 4.38275 15.1794C4.27503 14.9178 3.96809 14.4 3.3204 14.4H2.0196C1.31963 14.4 0.75 13.8304 0.75 13.1316V10.8612C0.75 10.166 1.31603 9.6 2.0124 9.6H3.3204C3.93969 9.6 4.25925 9.11972 4.36511 8.86292C4.47168 8.60603 4.6215 8.02004 4.16393 7.56247L4.16359 7.56213L3.23994 6.63969C3.23971 6.63945 3.23948 6.63922 3.23924 6.63898C2.74575 6.14247 2.74772 5.33774 3.23873 4.84673L4.84673 3.23873C5.08749 2.99797 5.40184 2.868 5.742 2.868H5.7444C6.08444 2.868 6.40027 2.99902 6.6392 3.23946L6.63949 3.23975L7.55636 4.16141C7.55657 4.16162 7.55678 4.16183 7.55699 4.16204C7.99635 4.60493 8.56472 4.49109 8.82518 4.38134C9.07903 4.2749 9.6 3.9684 9.6 3.3204V2.0196C9.6 1.32021 10.1702 0.75 10.8696 0.75H13.14C13.8346 0.75 14.4012 1.31661 14.4012 2.0112V3.3204C14.4012 3.93787 14.878 4.25867 15.1382 4.36559C15.3915 4.47008 15.9784 4.62431 16.4387 4.16393L16.4391 4.16359L17.3619 3.23954C17.3621 3.2394 17.3622 3.23927 17.3623 3.23913C17.8581 2.7453 18.6624 2.74595 19.1541 3.23833L19.1545 3.23873L20.7637 4.84793L20.7645 4.84876C21.0038 5.08735 21.134 5.40166 21.1332 5.74273V5.7444C21.1332 6.083 21.0024 6.3989 20.7617 6.63801L20.7611 6.63863L19.8383 7.55783L19.8373 7.55887C19.4024 7.99378 19.5071 8.55385 19.6185 8.82063C19.7262 9.0822 20.0331 9.6 20.6808 9.6H21.9816C22.681 9.6 23.25 10.169 23.25 10.8684V13.1388C23.25 13.8346 22.6846 14.4 21.9888 14.4H20.6808C20.0677 14.4 19.7483 14.8708 19.6393 15.1293L19.6366 15.1357C19.6353 15.1385 19.6337 15.1424 19.6318 15.1468C19.6294 15.1525 19.6265 15.1593 19.6237 15.1661L19.6223 15.1695L19.6218 15.1707L19.6218 15.1707L19.6218 15.1708L19.6218 15.1708L19.6217 15.1708L19.6217 15.1709L19.6217 15.171L19.6195 15.1761C19.5146 15.4294 19.3973 15.9976 19.8373 16.4375L19.8376 16.4379L20.7613 17.3603C20.7615 17.3605 20.7617 17.3607 20.7619 17.3609C21.2554 17.8574 21.2535 18.6622 20.7625 19.1533L19.1545 20.7613C18.9137 21.002 18.5994 21.132 18.2592 21.132H18.2568C17.9168 21.132 17.6009 21.001 17.362 20.7605L17.3617 20.7603L16.4437 19.8375Z" stroke="#222B45" stroke-width="1.5"/>
<circle cx="12" cy="12" r="3.75" stroke="#222B45" stroke-width="1.5"/>
</svg>
