<svg width="67" height="68" viewBox="0 0 67 68" fill="none" xmlns="http://www.w3.org/2000/svg">
<path fill-rule="evenodd" clip-rule="evenodd" d="M63.49 30.5803H63.5C65.3367 30.5803 66.83 32.067 66.8333 33.9037C66.86 42.807 63.4167 51.1903 57.1367 57.5037C50.86 63.817 42.5 67.307 33.5967 67.3337H33.5C24.63 67.3337 16.2867 63.8937 9.99666 57.637C3.68332 51.3603 0.193324 43.0003 0.166658 34.097C0.139991 25.1903 3.58332 16.8103 9.86332 10.497C16.14 4.18366 24.5 0.693659 33.4033 0.666992C36.0533 0.706992 38.7533 0.973659 41.34 1.59366C43.1267 2.02699 44.23 3.82699 43.7967 5.61699C43.3667 7.40366 41.5567 8.50366 39.7767 8.07699C37.7067 7.57699 35.51 7.36699 33.4233 7.33366C26.3 7.35366 19.61 10.147 14.59 15.197C9.56666 20.247 6.81332 26.9537 6.83332 34.077C6.85332 41.2003 9.64666 47.887 14.6967 52.9103C19.73 57.9137 26.4033 60.667 33.5 60.667H33.5767C40.7 60.647 47.39 57.8537 52.41 52.8037C57.4333 47.7503 60.1867 41.047 60.1667 33.9237C60.1633 32.0837 61.65 30.5837 63.49 30.5803ZM21.1433 31.6433C22.4466 30.34 24.5533 30.34 25.8566 31.6433L33.3366 39.1233L54.3266 15.1367C55.54 13.76 57.6433 13.6133 59.03 14.8267C60.4133 16.0367 60.5533 18.1433 59.34 19.53L36.0066 46.1967C35.4 46.89 34.5333 47.3 33.61 47.3333H33.5C32.6166 47.3333 31.77 46.9833 31.1433 46.3567L21.1433 36.3567C19.84 35.0533 19.84 32.9467 21.1433 31.6433Z" fill="#90F3D9"/>
</svg>
