<svg width="23" height="15" viewBox="0 0 23 15" fill="none" xmlns="http://www.w3.org/2000/svg">
<path d="M11.7549 4.53957C11.7549 5.08653 11.9724 5.61134 12.3591 5.99811C12.7461 6.3851 13.2706 6.60236 13.8178 6.60236C14.3649 6.60236 14.8895 6.3851 15.2765 5.99811C15.6632 5.61134 15.8807 5.08654 15.8807 4.53957C15.8807 3.9924 15.6632 3.46759 15.2765 3.08081C14.8895 2.69383 14.3649 2.47656 13.8178 2.47656C13.2709 2.47743 12.7467 2.69491 12.36 3.0817C11.9735 3.46826 11.7558 3.99266 11.7549 4.53957ZM13.8178 3.40703V3.40681C14.1192 3.40681 14.4081 3.52661 14.6212 3.73997C14.8341 3.95311 14.9537 4.24222 14.9535 4.5437C14.9531 4.84496 14.8331 5.13383 14.6197 5.34675C14.4064 5.55967 14.1171 5.67883 13.8156 5.67818C13.5144 5.67774 13.2255 5.5575 13.0128 5.34371C12.8003 5.13014 12.6812 4.84082 12.6821 4.53955C12.6829 4.23872 12.8029 3.95068 13.0158 3.73843C13.2288 3.52616 13.5172 3.40679 13.8178 3.40679L13.8178 3.40703Z" fill="#3052b3"/>
<path d="M6.34062 2.46873C6.21504 2.8565 6.26297 3.28153 6.47105 3.62954L7.73206 5.76903L3.75945 8.69669C3.6003 8.80576 3.52973 9.00953 3.58594 9.19748C3.64216 9.38564 3.81182 9.51324 4.00291 9.51137C4.08865 9.51012 4.17217 9.48306 4.24355 9.43373L8.56984 6.26736C8.75952 6.13477 8.81553 5.87272 8.69743 5.6704L7.219 3.16974C7.14459 3.04319 7.1276 2.88979 7.17249 2.74929C7.22184 2.61067 7.3278 2.5016 7.46248 2.45081L11.179 0.872244C11.2977 0.84581 11.4219 0.866 11.5268 0.929068C11.6971 1.03189 11.7907 1.23025 11.7642 1.43174C11.7376 1.63322 11.596 1.79849 11.4051 1.85094H11.3616L8.69456 2.89543C8.57141 2.94434 8.47657 3.048 8.43653 3.17726C8.39649 3.30673 8.4157 3.44785 8.4887 3.56087L11.7549 9.07676C11.8888 9.28116 12.1578 9.33528 12.3563 9.19748C12.5549 9.0599 12.6075 8.78265 12.4738 8.57847L9.50322 3.55797L11.6427 2.71959C12.089 2.57118 12.4287 2.19527 12.5407 1.72673C12.653 1.2582 12.5215 0.76302 12.1933 0.41832C11.8651 0.07363 11.3871 -0.0718591 10.9297 0.0338795C10.9119 0.0384587 10.8943 0.0444948 10.8775 0.0517799L7.12033 1.61537C6.75128 1.76815 6.46595 2.0801 6.34062 2.46873Z" fill="#3052b3"/>
<path d="M1.20171 10.5664C1.04131 10.4937 0.981138 10.3248 1.0673 10.1893C1.30173 9.82062 1.64849 9.51157 2.07172 9.29411C2.49495 9.07664 2.97927 8.95867 3.47457 8.95239C3.96988 8.94611 4.45817 9.05175 4.88893 9.25839C5.23896 9.42629 5.54066 9.65592 5.77421 9.93062C5.80369 9.9522 5.82911 9.97859 5.84866 10.0094C6.02749 10.2906 6.29201 10.5263 6.61486 10.6922C6.93771 10.8581 7.30716 10.9481 7.68498 10.9529C8.06281 10.9577 8.43529 10.8771 8.76389 10.7195C9.09248 10.5618 9.36526 10.3329 9.55399 10.0563C9.56669 10.0377 9.58154 10.0208 9.59813 10.0057C9.82347 9.7177 10.1218 9.47442 10.4728 9.29411C10.896 9.07664 11.3803 8.95867 11.8756 8.95239C12.3709 8.94611 12.8592 9.05175 13.29 9.25839C13.64 9.42628 13.9416 9.65588 14.1752 9.93055C14.2047 9.95214 14.2302 9.97856 14.2497 10.0094C14.4286 10.2906 14.6931 10.5263 15.0159 10.6922C15.3388 10.8581 15.7082 10.9481 16.0861 10.9529C16.4639 10.9577 16.8364 10.8771 17.165 10.7195C17.4936 10.5618 17.7663 10.3329 17.9551 10.0563C17.9678 10.0377 17.9827 10.0207 17.9993 10.0056C18.2247 9.71763 18.523 9.47439 18.8739 9.29411C19.2971 9.07664 19.7814 8.95867 20.2767 8.95239C20.772 8.94611 21.2603 9.05175 21.6911 9.25839C22.1218 9.46502 22.4794 9.76514 22.7268 10.1277C22.8178 10.261 22.7636 10.4313 22.6059 10.5081C22.4481 10.5849 22.2466 10.5392 22.1556 10.4059C21.9669 10.1294 21.6941 9.90042 21.3655 9.74279C21.0369 9.58517 20.6644 9.50458 20.2866 9.50937C19.9088 9.51416 19.5393 9.60415 19.2165 9.77004C18.8936 9.93592 18.6291 10.1717 18.4503 10.4529C18.4307 10.4837 18.4053 10.5101 18.3757 10.5317C18.1422 10.8064 17.8405 11.036 17.4905 11.2039C17.0598 11.4105 16.5715 11.5161 16.0762 11.5099C15.5809 11.5036 15.0965 11.3856 14.6733 11.1681C14.3224 10.9879 14.0241 10.7446 13.7988 10.4567C13.7821 10.4415 13.7672 10.4246 13.7545 10.4059C13.5658 10.1294 13.293 9.90042 12.9644 9.74279C12.6358 9.58517 12.2633 9.50458 11.8855 9.50937C11.5077 9.51416 11.1382 9.60415 10.8154 9.77004C10.4925 9.93592 10.228 10.1717 10.0492 10.4529C10.0296 10.4837 10.0042 10.5101 9.97472 10.5316C9.74118 10.8063 9.43947 11.036 9.08945 11.2039C8.65869 11.4105 8.17039 11.5161 7.67509 11.5099C7.17979 11.5036 6.69547 11.3856 6.27224 11.1681C5.92131 10.9878 5.62295 10.7446 5.39762 10.4565C5.38103 10.4414 5.36617 10.4245 5.35347 10.4059C5.16474 10.1294 4.89197 9.90042 4.56337 9.74279C4.23478 9.58517 3.8623 9.50458 3.48447 9.50937C3.10664 9.51416 2.73719 9.60415 2.41434 9.77004C2.09149 9.93592 1.82697 10.1717 1.64815 10.4529C1.56198 10.5884 1.36211 10.6392 1.20171 10.5664Z" fill="#3052b3"/>
<path fill-rule="evenodd" clip-rule="evenodd" d="M10.0492 10.4529C10.0296 10.4837 10.0042 10.5101 9.97472 10.5316C9.74118 10.8063 9.43947 11.036 9.08945 11.2039C8.65869 11.4105 8.17039 11.5161 7.67509 11.5099C7.17979 11.5036 6.69547 11.3856 6.27224 11.1681C5.92131 10.9878 5.62295 10.7446 5.39762 10.4565C5.38103 10.4414 5.36617 10.4245 5.35347 10.4059C5.16474 10.1294 4.89197 9.90042 4.56337 9.74279C4.23478 9.58517 3.8623 9.50458 3.48447 9.50937C3.10664 9.51416 2.73719 9.60415 2.41434 9.77004C2.09149 9.93592 1.82697 10.1717 1.64815 10.4529C1.56198 10.5884 1.36211 10.6392 1.20171 10.5664C1.04131 10.4937 0.981138 10.3248 1.0673 10.1893C1.30173 9.82062 1.64849 9.51157 2.07172 9.29411C2.49495 9.07664 2.97927 8.95867 3.47457 8.95239C3.96988 8.94611 4.45817 9.05175 4.88893 9.25839C5.23896 9.42629 5.54066 9.65592 5.77421 9.93062C5.80369 9.9522 5.82911 9.97859 5.84866 10.0094C6.02749 10.2906 6.29201 10.5263 6.61486 10.6922C6.93771 10.8581 7.30716 10.9481 7.68498 10.9529C8.06281 10.9577 8.43529 10.8771 8.76389 10.7195C9.09248 10.5618 9.36526 10.3329 9.55399 10.0563C9.56669 10.0377 9.58154 10.0208 9.59813 10.0057C9.82347 9.7177 10.1218 9.47442 10.4728 9.29411C10.896 9.07664 11.3803 8.95867 11.8756 8.95239C12.3709 8.94611 12.8592 9.05175 13.29 9.25839C13.64 9.42628 13.9416 9.65588 14.1752 9.93055C14.2047 9.95214 14.2302 9.97856 14.2497 10.0094C14.4286 10.2906 14.6931 10.5263 15.0159 10.6922C15.3388 10.8581 15.7082 10.9481 16.0861 10.9529C16.4639 10.9577 16.8364 10.8771 17.165 10.7195C17.4936 10.5618 17.7663 10.3329 17.9551 10.0563C17.9678 10.0377 17.9827 10.0207 17.9993 10.0056C18.2247 9.71763 18.523 9.47439 18.8739 9.29411C19.2971 9.07664 19.7814 8.95867 20.2767 8.95239C20.772 8.94611 21.2603 9.05175 21.6911 9.25839C22.1218 9.46502 22.4794 9.76514 22.7268 10.1277C22.8178 10.261 22.7636 10.4313 22.6059 10.5081C22.4481 10.5849 22.2466 10.5392 22.1556 10.4059C21.9669 10.1294 21.6941 9.90042 21.3655 9.74279C21.0369 9.58517 20.6644 9.50458 20.2866 9.50937C19.9088 9.51416 19.5393 9.60415 19.2165 9.77004C18.8936 9.93592 18.6291 10.1717 18.4503 10.4529C18.4307 10.4837 18.4053 10.5101 18.3757 10.5317C18.1422 10.8064 17.8405 11.036 17.4905 11.2039C17.0598 11.4105 16.5715 11.5161 16.0762 11.5099C15.5809 11.5036 15.0965 11.3856 14.6733 11.1681C14.3224 10.9879 14.0241 10.7446 13.7988 10.4567C13.7821 10.4415 13.7672 10.4246 13.7545 10.4059C13.5658 10.1294 13.293 9.90042 12.9644 9.74279C12.6358 9.58517 12.2633 9.50458 11.8855 9.50937C11.5077 9.51416 11.1382 9.60415 10.8154 9.77004C10.4925 9.93592 10.228 10.1717 10.0492 10.4529ZM13.7042 10.5433C13.6839 10.5238 13.6652 10.502 13.6488 10.478C13.4739 10.2216 13.2192 10.0069 12.9091 9.8581C12.5989 9.70931 12.246 9.6327 11.8871 9.63725C11.5282 9.6418 11.1783 9.72732 10.8738 9.88379C10.5693 10.0402 10.3226 10.2612 10.1571 10.5215C10.1313 10.562 10.0992 10.5966 10.0631 10.6251C9.81846 10.9096 9.50534 11.1462 9.14475 11.3192C8.69556 11.5346 8.1877 11.6443 7.67345 11.6377C7.1592 11.6312 6.65532 11.5088 6.21377 11.2819C5.85073 11.0954 5.53981 10.8433 5.30304 10.5432C5.28272 10.5237 5.26413 10.5019 5.24781 10.478C5.07287 10.2216 4.81819 10.0069 4.50803 9.8581C4.19786 9.70931 3.84495 9.6327 3.48607 9.63725C3.12719 9.6418 2.7773 9.72732 2.47277 9.88379C2.16828 10.0402 1.92162 10.2612 1.75606 10.5215C1.63095 10.7183 1.35882 10.7782 1.14883 10.6829C0.930504 10.5838 0.824229 10.3332 0.959356 10.1206C1.20704 9.73112 1.57167 9.40723 2.01325 9.18034C2.4548 8.95346 2.95869 8.83101 3.47293 8.82449C3.98718 8.81797 4.49505 8.92759 4.94423 9.14306C5.30483 9.31604 5.61794 9.55262 5.86256 9.83716C5.89867 9.86566 5.93083 9.90023 5.95657 9.94072C6.12213 10.2011 6.36879 10.422 6.67329 10.5784C6.97781 10.7349 7.3277 10.8204 7.68659 10.825C8.04547 10.8295 8.39838 10.7529 8.70855 10.6041C9.01871 10.4554 9.27338 10.2406 9.44832 9.98423C9.46465 9.96031 9.48324 9.93857 9.50355 9.91905C9.74032 9.6189 10.0512 9.36687 10.4143 9.18034C10.8558 8.95346 11.3597 8.83101 11.874 8.82449C12.3882 8.81797 12.8961 8.92759 13.3453 9.14306C13.7058 9.31602 14.0189 9.55257 14.2635 9.83706C14.2997 9.86558 14.3319 9.90019 14.3576 9.94072C14.5232 10.2011 14.7699 10.422 15.0744 10.5784C15.3789 10.7349 15.7288 10.8204 16.0877 10.825C16.4465 10.8295 16.7994 10.7529 17.1096 10.6041C17.4198 10.4554 17.6745 10.2406 17.8494 9.98423C17.8658 9.96024 17.8844 9.93845 17.9048 9.91889C18.1415 9.61881 18.4524 9.36684 18.8154 9.18034C19.2569 8.95346 19.7608 8.83101 20.2751 8.82449C20.7893 8.81797 21.2972 8.92759 21.7464 9.14306C22.1956 9.35854 22.5713 9.67283 22.8325 10.0556C22.9744 10.2635 22.8782 10.5177 22.6619 10.6231C22.4546 10.7241 22.1812 10.6703 22.0499 10.478C21.875 10.2216 21.6203 10.0069 21.3102 9.8581C21 9.70931 20.6471 9.6327 20.2882 9.63725C19.9293 9.6418 19.5794 9.72732 19.2749 9.88379C18.9704 10.0402 18.7238 10.2612 18.5582 10.5215C18.5324 10.562 18.5002 10.5967 18.4641 10.6252C18.2195 10.9097 17.9064 11.1462 17.5458 11.3192C17.0966 11.5346 16.5888 11.6443 16.0745 11.6377C15.5603 11.6312 15.0564 11.5088 14.6148 11.2819C14.2519 11.0954 13.941 10.8434 13.7042 10.5433Z" fill="#3052b3"/>
<path d="M1.20171 13.2539C1.04131 13.1812 0.981138 13.0123 1.0673 12.8768C1.30173 12.5081 1.64849 12.1991 2.07172 11.9816C2.49495 11.7641 2.97927 11.6462 3.47457 11.6399C3.96988 11.6336 4.45817 11.7393 4.88893 11.9459C5.23896 12.1138 5.54066 12.3434 5.77421 12.6181C5.80369 12.6397 5.82911 12.6661 5.84866 12.6969C6.02749 12.9781 6.29201 13.2138 6.61486 13.3797C6.93771 13.5456 7.30716 13.6356 7.68498 13.6404C8.06281 13.6452 8.43529 13.5646 8.76389 13.407C9.09248 13.2493 9.36526 13.0204 9.55399 12.7438C9.56669 12.7252 9.58154 12.7083 9.59813 12.6932C9.82347 12.4052 10.1218 12.1619 10.4728 11.9816C10.896 11.7641 11.3803 11.6462 11.8756 11.6399C12.3709 11.6336 12.8592 11.7393 13.29 11.9459C13.64 12.1138 13.9416 12.3434 14.1752 12.618C14.2047 12.6396 14.2302 12.6661 14.2497 12.6969C14.4286 12.9781 14.6931 13.2138 15.0159 13.3797C15.3388 13.5456 15.7082 13.6356 16.0861 13.6404C16.4639 13.6452 16.8364 13.5646 17.165 13.407C17.4936 13.2493 17.7663 13.0204 17.9551 12.7438C17.9678 12.7252 17.9827 12.7082 17.9993 12.6931C18.2247 12.4051 18.523 12.1619 18.8739 11.9816C19.2971 11.7641 19.7814 11.6462 20.2767 11.6399C20.772 11.6336 21.2603 11.7393 21.6911 11.9459C22.1218 12.1525 22.4794 12.4526 22.7268 12.8152C22.8178 12.9485 22.7636 13.1188 22.6059 13.1956C22.4481 13.2724 22.2466 13.2267 22.1556 13.0934C21.9669 12.8169 21.6941 12.5879 21.3655 12.4303C21.0369 12.2727 20.6644 12.1921 20.2866 12.1969C19.9088 12.2017 19.5393 12.2917 19.2165 12.4575C18.8936 12.6234 18.6291 12.8592 18.4503 13.1404C18.4307 13.1712 18.4053 13.1976 18.3757 13.2192C18.1422 13.4939 17.8405 13.7235 17.4905 13.8914C17.0598 14.098 16.5715 14.2036 16.0762 14.1974C15.5809 14.1911 15.0965 14.0731 14.6733 13.8556C14.3224 13.6754 14.0241 13.4321 13.7988 13.1442C13.7821 13.129 13.7672 13.1121 13.7545 13.0934C13.5658 12.8169 13.293 12.5879 12.9644 12.4303C12.6358 12.2727 12.2633 12.1921 11.8855 12.1969C11.5077 12.2017 11.1382 12.2917 10.8154 12.4575C10.4925 12.6234 10.228 12.8592 10.0492 13.1404C10.0296 13.1712 10.0042 13.1976 9.97472 13.2191C9.74118 13.4938 9.43947 13.7235 9.08945 13.8914C8.65869 14.098 8.17039 14.2036 7.67509 14.1974C7.17979 14.1911 6.69547 14.0731 6.27224 13.8556C5.92131 13.6753 5.62295 13.4321 5.39762 13.144C5.38103 13.1289 5.36617 13.112 5.35347 13.0934C5.16474 12.8169 4.89197 12.5879 4.56337 12.4303C4.23478 12.2727 3.8623 12.1921 3.48447 12.1969C3.10664 12.2017 2.73719 12.2917 2.41434 12.4575C2.09149 12.6234 1.82697 12.8592 1.64815 13.1404C1.56198 13.2759 1.36211 13.3267 1.20171 13.2539Z" fill="#3052b3"/>
<path fill-rule="evenodd" clip-rule="evenodd" d="M10.0492 13.1404C10.0296 13.1712 10.0042 13.1976 9.97472 13.2191C9.74118 13.4938 9.43947 13.7235 9.08945 13.8914C8.65869 14.098 8.17039 14.2036 7.67509 14.1974C7.17979 14.1911 6.69547 14.0731 6.27224 13.8556C5.92131 13.6753 5.62295 13.4321 5.39762 13.144C5.38103 13.1289 5.36617 13.112 5.35347 13.0934C5.16474 12.8169 4.89197 12.5879 4.56337 12.4303C4.23478 12.2727 3.8623 12.1921 3.48447 12.1969C3.10664 12.2017 2.73719 12.2917 2.41434 12.4575C2.09149 12.6234 1.82697 12.8592 1.64815 13.1404C1.56198 13.2759 1.36211 13.3267 1.20171 13.2539C1.04131 13.1812 0.981138 13.0123 1.0673 12.8768C1.30173 12.5081 1.64849 12.1991 2.07172 11.9816C2.49495 11.7641 2.97927 11.6462 3.47457 11.6399C3.96988 11.6336 4.45817 11.7393 4.88893 11.9459C5.23896 12.1138 5.54066 12.3434 5.77421 12.6181C5.80369 12.6397 5.82911 12.6661 5.84866 12.6969C6.02749 12.9781 6.29201 13.2138 6.61486 13.3797C6.93771 13.5456 7.30716 13.6356 7.68498 13.6404C8.06281 13.6452 8.43529 13.5646 8.76389 13.407C9.09248 13.2493 9.36526 13.0204 9.55399 12.7438C9.56669 12.7252 9.58154 12.7083 9.59813 12.6932C9.82347 12.4052 10.1218 12.1619 10.4728 11.9816C10.896 11.7641 11.3803 11.6462 11.8756 11.6399C12.3709 11.6336 12.8592 11.7393 13.29 11.9459C13.64 12.1138 13.9416 12.3434 14.1752 12.618C14.2047 12.6396 14.2302 12.6661 14.2497 12.6969C14.4286 12.9781 14.6931 13.2138 15.0159 13.3797C15.3388 13.5456 15.7082 13.6356 16.0861 13.6404C16.4639 13.6452 16.8364 13.5646 17.165 13.407C17.4936 13.2493 17.7663 13.0204 17.9551 12.7438C17.9678 12.7252 17.9827 12.7082 17.9993 12.6931C18.2247 12.4051 18.523 12.1619 18.8739 11.9816C19.2971 11.7641 19.7814 11.6462 20.2767 11.6399C20.772 11.6336 21.2603 11.7393 21.6911 11.9459C22.1218 12.1525 22.4794 12.4526 22.7268 12.8152C22.8178 12.9485 22.7636 13.1188 22.6059 13.1956C22.4481 13.2724 22.2466 13.2267 22.1556 13.0934C21.9669 12.8169 21.6941 12.5879 21.3655 12.4303C21.0369 12.2727 20.6644 12.1921 20.2866 12.1969C19.9088 12.2017 19.5393 12.2917 19.2165 12.4575C18.8936 12.6234 18.6291 12.8592 18.4503 13.1404C18.4307 13.1712 18.4053 13.1976 18.3757 13.2192C18.1422 13.4939 17.8405 13.7235 17.4905 13.8914C17.0598 14.098 16.5715 14.2036 16.0762 14.1974C15.5809 14.1911 15.0965 14.0731 14.6733 13.8556C14.3224 13.6754 14.0241 13.4321 13.7988 13.1442C13.7821 13.129 13.7672 13.1121 13.7545 13.0934C13.5658 12.8169 13.293 12.5879 12.9644 12.4303C12.6358 12.2727 12.2633 12.1921 11.8855 12.1969C11.5077 12.2017 11.1382 12.2917 10.8154 12.4575C10.4925 12.6234 10.228 12.8592 10.0492 13.1404ZM13.7042 13.2308C13.6839 13.2113 13.6652 13.1895 13.6488 13.1655C13.4739 12.9091 13.2192 12.6944 12.9091 12.5456C12.5989 12.3968 12.246 12.3202 11.8871 12.3248C11.5282 12.3293 11.1783 12.4148 10.8738 12.5713C10.5693 12.7277 10.3226 12.9487 10.1571 13.209C10.1313 13.2495 10.0992 13.2841 10.0631 13.3126C9.81846 13.5971 9.50534 13.8337 9.14475 14.0067C8.69556 14.2221 8.1877 14.3318 7.67345 14.3252C7.1592 14.3187 6.65532 14.1963 6.21377 13.9694C5.85073 13.7829 5.53981 13.5308 5.30304 13.2307C5.28272 13.2112 5.26413 13.1894 5.24781 13.1655C5.07287 12.9091 4.81819 12.6944 4.50803 12.5456C4.19786 12.3968 3.84495 12.3202 3.48607 12.3248C3.12719 12.3293 2.7773 12.4148 2.47277 12.5713C2.16828 12.7277 1.92162 12.9487 1.75606 13.209C1.63095 13.4058 1.35882 13.4657 1.14883 13.3704C0.930504 13.2713 0.824229 13.0207 0.959356 12.8081C1.20704 12.4186 1.57167 12.0947 2.01325 11.8678C2.4548 11.641 2.95869 11.5185 3.47293 11.512C3.98718 11.5055 4.49505 11.6151 4.94423 11.8306C5.30483 12.0035 5.61794 12.2401 5.86256 12.5247C5.89867 12.5532 5.93083 12.5877 5.95657 12.6282C6.12213 12.8886 6.36879 13.1095 6.67329 13.2659C6.97781 13.4224 7.3277 13.5079 7.68659 13.5125C8.04547 13.517 8.39838 13.4404 8.70855 13.2916C9.01871 13.1429 9.27338 12.9281 9.44832 12.6717C9.46465 12.6478 9.48324 12.6261 9.50355 12.6066C9.74032 12.3064 10.0512 12.0544 10.4143 11.8678C10.8558 11.641 11.3597 11.5185 11.874 11.512C12.3882 11.5055 12.8961 11.6151 13.3453 11.8306C13.7058 12.0035 14.0189 12.2401 14.2635 12.5246C14.2997 12.5531 14.3319 12.5877 14.3576 12.6282C14.5232 12.8886 14.7699 13.1095 15.0744 13.2659C15.3789 13.4224 15.7288 13.5079 16.0877 13.5125C16.4465 13.517 16.7994 13.4404 17.1096 13.2916C17.4198 13.1429 17.6745 12.9281 17.8494 12.6717C17.8658 12.6477 17.8844 12.626 17.9048 12.6064C18.1415 12.3063 18.4524 12.0543 18.8154 11.8678C19.2569 11.641 19.7608 11.5185 20.2751 11.512C20.7893 11.5055 21.2972 11.6151 21.7464 11.8306C22.1956 12.046 22.5713 12.3603 22.8325 12.7431C22.9744 12.951 22.8782 13.2052 22.6619 13.3106C22.4546 13.4116 22.1812 13.3578 22.0499 13.1655C21.875 12.9091 21.6203 12.6944 21.3102 12.5456C21 12.3968 20.6471 12.3202 20.2882 12.3248C19.9293 12.3293 19.5794 12.4148 19.2749 12.5713C18.9704 12.7277 18.7238 12.9487 18.5582 13.209C18.5324 13.2495 18.5002 13.2842 18.4641 13.3127C18.2195 13.5972 17.9064 13.8337 17.5458 14.0067C17.0966 14.2221 16.5888 14.3318 16.0745 14.3252C15.5603 14.3187 15.0564 14.1963 14.6148 13.9694C14.2519 13.7829 13.941 13.5309 13.7042 13.2308Z" fill="#3052b3"/>
</svg>
