<svg width="18" height="18" viewBox="0 0 18 18" fill="none" xmlns="http://www.w3.org/2000/svg">
<path fill-rule="evenodd" clip-rule="evenodd" d="M11.6667 1H6.33333V6.33359H1V11.6669H6.33333V17H11.6667V11.6669H17V6.33359H11.6667V1Z" fill="#46D7CB"/>
<path d="M6.33333 1V0.5H5.83333V1H6.33333ZM11.6667 1H12.1667V0.5H11.6667V1ZM6.33333 6.33359V6.83359H6.83333V6.33359H6.33333ZM1 6.33359V5.83359H0.5V6.33359H1ZM1 11.6669H0.5V12.1669H1V11.6669ZM6.33333 11.6669H6.83333V11.1669H6.33333V11.6669ZM6.33333 17H5.83333V17.5H6.33333V17ZM11.6667 17V17.5H12.1667V17H11.6667ZM11.6667 11.6669V11.1669H11.1667V11.6669H11.6667ZM17 11.6669V12.1669H17.5V11.6669H17ZM17 6.33359H17.5V5.83359H17V6.33359ZM11.6667 6.33359H11.1667V6.83359H11.6667V6.33359ZM6.33333 1.5H11.6667V0.5H6.33333V1.5ZM6.83333 6.33359V1H5.83333V6.33359H6.83333ZM1 6.83359H6.33333V5.83359H1V6.83359ZM1.5 11.6669V6.33359H0.5V11.6669H1.5ZM6.33333 11.1669H1V12.1669H6.33333V11.1669ZM6.83333 17V11.6669H5.83333V17H6.83333ZM11.6667 16.5H6.33333V17.5H11.6667V16.5ZM11.1667 11.6669V17H12.1667V11.6669H11.1667ZM17 11.1669H11.6667V12.1669H17V11.1669ZM16.5 6.33359V11.6669H17.5V6.33359H16.5ZM11.6667 6.83359H17V5.83359H11.6667V6.83359ZM11.1667 1V6.33359H12.1667V1H11.1667Z" fill="white"/>
</svg>
