<svg width="33" height="18" viewBox="0 0 33 18" fill="none" xmlns="http://www.w3.org/2000/svg">
<path fill-rule="evenodd" clip-rule="evenodd" d="M22.0909 0.818182C22.0909 0.3663 22.4572 0 22.9091 0H26.1818C26.6337 0 27 0.3663 27 0.818182V2.45455H29.4545C29.9064 2.45455 30.2727 2.82085 30.2727 3.27273V8.18182H32.7273V9.81818H30.2727V14.7273C30.2727 15.1792 29.9064 15.5455 29.4545 15.5455H27V17.1818C27 17.6337 26.6337 18 26.1818 18H22.9091C22.4572 18 22.0909 17.6337 22.0909 17.1818V9.81818H10.6364V17.1818C10.6364 17.6337 10.2701 18 9.81818 18H6.54545C6.09357 18 5.72727 17.6337 5.72727 17.1818V15.5455H3.27273C2.82086 15.5455 2.45455 15.1792 2.45455 14.7273V9.81818H0V8.18182H2.45455V3.27273C2.45455 2.82085 2.82086 2.45455 3.27273 2.45455H5.72727V0.818182C5.72727 0.3663 6.09357 0 6.54545 0H9.81818C10.2701 0 10.6364 0.3663 10.6364 0.818182V8.18182H22.0909V0.818182ZM7.36364 16.3636H9V1.63636H7.36364V16.3636ZM5.72727 4.09091H4.09091V13.9091H5.72727V4.09091ZM27 13.9091V4.09091H28.6364V13.9091H27ZM25.3636 1.63636V16.3636H23.7273V1.63636H25.3636Z" fill="#a53d24"/>
</svg>
