<svg width="20" height="20" viewBox="0 0 20 20" fill="none" xmlns="http://www.w3.org/2000/svg">
<path fill-rule="evenodd" clip-rule="evenodd" d="M15.4952 11.9805C14.8292 14.1225 13.1692 15.6055 10.9602 15.9325C7.58915 16.4315 4.27915 13.8755 4.01715 10.4755C3.74515 6.94749 6.52815 4.00049 10.0012 4.00049C10.8042 4.00049 11.5702 4.15849 12.2702 4.44449C12.5132 4.54349 12.7882 4.45849 12.9122 4.22849L14.3472 1.58149C14.4832 1.32849 14.3852 1.00249 14.1232 0.884488C12.8662 0.316488 11.4722 0.000488281 10.0042 0.000488281C4.38215 0.000488281 -0.156845 4.63649 0.00415469 10.2935C0.151155 15.4545 4.41115 19.7725 9.56815 19.9915C15.1142 20.2255 19.7142 15.9455 19.9932 10.5225C20.0042 10.3245 20.0002 9.17149 19.9962 8.49549C19.9952 8.21949 19.7712 8.00049 19.4962 8.00049H10.4972C10.2212 8.00049 9.99715 8.22349 9.99715 8.50049V11.4805C9.99715 11.7555 10.2212 11.9805 10.4972 11.9805H15.4952Z" fill="#2E3A59"/>
</svg>
