<svg width="26" height="26" viewBox="0 0 26 26" fill="none" xmlns="http://www.w3.org/2000/svg">
<rect x="1" y="1" width="24" height="24" rx="12" fill="#DCFBED"/>
<path d="M12.4998 7.24336C12.8092 7.06473 13.1904 7.06473 13.4998 7.24336L17.7352 9.68866C18.0446 9.8673 18.2352 10.1974 18.2352 10.5547V15.4453C18.2352 15.8026 18.0446 16.1327 17.7352 16.3113L13.4998 18.7566C13.1904 18.9352 12.8092 18.9352 12.4998 18.7566L8.26442 16.3113C7.95502 16.1327 7.76442 15.8026 7.76442 15.4453V10.5547C7.76442 10.1974 7.95502 9.8673 8.26442 9.68866L12.4998 7.24336Z" fill="#90F3D9" stroke="#46D7CB" stroke-width="2"/>
<rect x="1" y="1" width="24" height="24" rx="12" stroke="#46D7CB" stroke-width="2"/>
</svg>
