<svg width="12" height="12" viewBox="0 0 12 12" fill="none" xmlns="http://www.w3.org/2000/svg">
<path fill-rule="evenodd" clip-rule="evenodd" d="M11.2515 0.0187505C11.664 0.0210005 11.9978 0.355509 11.9978 0.768019L12 4.49936C12.0008 4.91337 11.6648 5.25013 11.2508 5.25013H11.25C10.836 5.25013 10.5007 4.91412 10.5 4.50086L10.4985 2.56206L8.03019 5.03038C7.88393 5.17663 7.69193 5.25013 7.49992 5.25013C7.30867 5.25013 7.11666 5.17663 6.96966 5.03038C6.67715 4.73712 6.67715 4.26236 6.96966 3.96985L9.42972 1.50979L7.49692 1.50004C7.08216 1.49779 6.74766 1.15953 6.74991 0.746269C6.75216 0.333008 7.08816 0 7.49992 0H7.50367L11.2515 0.0187505ZM3.96986 6.96956C4.26312 6.67631 4.73713 6.67631 5.03039 6.96956C5.32364 7.26282 5.32364 7.73683 5.03039 8.03009L2.56133 10.4992L4.50012 10.4999C4.91488 10.4999 5.25014 10.8359 5.25014 11.2507C5.24939 11.6647 4.91413 11.9999 4.50012 11.9999H4.49937L0.76803 11.9977C0.35552 11.9977 0.0210118 11.6639 0.0187618 11.2514L1.12849e-05 7.50358C-0.00223877 7.08957 0.33227 6.75206 0.74628 6.74981H0.75003C1.16254 6.74981 1.4978 7.08282 1.50005 7.49608L1.5098 9.42962L3.96986 6.96956Z" fill="#2E3A59"/>
</svg>
