<svg width="20" height="20" viewBox="0 0 20 20" fill="none" xmlns="http://www.w3.org/2000/svg">
<g clip-path="url(#clip0_1196_5360)">
<path d="M16.6668 4.16732C16.6668 3.9463 16.579 3.73434 16.4227 3.57806C16.2664 3.42178 16.0545 3.33398 15.8334 3.33398H11.6668C11.4458 3.33398 11.2338 3.42178 11.0775 3.57806C10.9212 3.73434 10.8334 3.9463 10.8334 4.16732C10.8334 4.38833 10.9212 4.60029 11.0775 4.75657C11.2338 4.91285 11.4458 5.00065 11.6668 5.00065H13.8084L11.0751 7.74232C10.997 7.81979 10.935 7.91195 10.8927 8.0135C10.8504 8.11505 10.8286 8.22397 10.8286 8.33398C10.8286 8.44399 10.8504 8.55292 10.8927 8.65446C10.935 8.75601 10.997 8.84818 11.0751 8.92565C11.1526 9.00376 11.2447 9.06575 11.3463 9.10806C11.4478 9.15037 11.5568 9.17215 11.6668 9.17215C11.7768 9.17215 11.8857 9.15037 11.9873 9.10806C12.0888 9.06575 12.181 9.00376 12.2584 8.92565L15.0001 6.18398V8.33398C15.0001 8.555 15.0879 8.76696 15.2442 8.92324C15.4005 9.07952 15.6124 9.16732 15.8334 9.16732C16.0545 9.16732 16.2664 9.07952 16.4227 8.92324C16.579 8.76696 16.6668 8.555 16.6668 8.33398V4.16732Z" fill="#C5CEE0"/>
<path d="M8.92516 11.0746C8.84769 10.9965 8.75553 10.9345 8.65398 10.8922C8.55243 10.8499 8.44351 10.8281 8.3335 10.8281C8.22349 10.8281 8.11456 10.8499 8.01302 10.8922C7.91147 10.9345 7.8193 10.9965 7.74183 11.0746L5.00016 13.808V11.6663C5.00016 11.4453 4.91237 11.2333 4.75608 11.077C4.5998 10.9208 4.38784 10.833 4.16683 10.833C3.94582 10.833 3.73385 10.9208 3.57757 11.077C3.42129 11.2333 3.3335 11.4453 3.3335 11.6663V15.833C3.3335 16.054 3.42129 16.2659 3.57757 16.4222C3.73385 16.5785 3.94582 16.6663 4.16683 16.6663H8.3335C8.55451 16.6663 8.76647 16.5785 8.92275 16.4222C9.07903 16.2659 9.16683 16.054 9.16683 15.833C9.16683 15.6119 9.07903 15.4 8.92275 15.2437C8.76647 15.0874 8.55451 14.9996 8.3335 14.9996H6.1835L8.92516 12.258C9.00327 12.1805 9.06526 12.0883 9.10757 11.9868C9.14988 11.8852 9.17166 11.7763 9.17166 11.6663C9.17166 11.5563 9.14988 11.4474 9.10757 11.3458C9.06526 11.2443 9.00327 11.1521 8.92516 11.0746Z" fill="#C5CEE0"/>
</g>
<defs>
<clipPath id="clip0_1196_5360">
<rect width="20" height="20" fill="white"/>
</clipPath>
</defs>
</svg>
