<svg width="12" height="12" viewBox="0 0 12 12" fill="none" xmlns="http://www.w3.org/2000/svg">
<path fill-rule="evenodd" clip-rule="evenodd" d="M9.31107 3.74928L11.2497 3.75003C11.6637 3.75003 11.9997 4.08602 11.9997 4.50075C11.999 4.91474 11.663 5.24997 11.2497 5.24997H11.249L7.51789 5.24772C7.10541 5.24772 6.77017 4.91399 6.76792 4.5015L6.74992 0.753907C6.74767 0.339924 7.08141 0.00243741 7.49614 0.0001875H7.49989C7.91237 0.0001875 8.24761 0.333174 8.24986 0.746407L8.25886 2.67983L10.7188 0.219929C11.012 -0.0733095 11.4867 -0.0733095 11.78 0.219929C12.0725 0.513167 12.0725 0.987147 11.78 1.28039L9.31107 3.74928ZM0.753157 6.75009L4.50075 6.76884C4.91324 6.77109 5.24697 7.10558 5.24697 7.51806L5.24997 11.2492C5.24997 11.6631 4.91399 11.9999 4.5 11.9999C4.08527 11.9999 3.75003 11.6639 3.75003 11.2507L3.74853 9.31199L1.28039 11.7801C1.13339 11.9264 0.941399 11.9999 0.750157 11.9999C0.558165 11.9999 0.366173 11.9264 0.219929 11.7801C-0.0733095 11.4869 -0.0733095 11.0122 0.219929 10.7197L2.67908 8.25978L0.746407 8.25003C0.331674 8.24778 -0.00206241 7.90954 0.0001875 7.49631C0.00168744 7.08308 0.337674 6.75009 0.750157 6.75009H0.753157Z" fill="#2E3A59"/>
</svg>
