<svg width="16" height="16" viewBox="0 0 16 16" fill="none" xmlns="http://www.w3.org/2000/svg">
<path fill-rule="evenodd" clip-rule="evenodd" d="M0.941159 0H14.1174C14.635 0 15.0585 0.423521 15.0585 0.941159L15.0585 0.943849V2.82348C15.0585 3.34111 14.635 3.76463 14.1174 3.76463C13.5997 3.76463 13.1762 3.34111 13.1762 2.82348V1.88232H1.88232V2.82348C1.88232 3.34111 1.4588 3.76463 0.941159 3.76463C0.423521 3.76463 0 3.34111 0 2.82348V0.941159C0 0.423521 0.423521 0 0.941159 0ZM3.76558 9.41184C3.47852 9.41184 3.19712 9.28196 3.01171 9.03537C2.69924 8.61938 2.78395 8.02928 3.19994 7.71775L6.96457 4.89428C7.29022 4.64958 7.73821 4.64299 8.07044 4.87734L11.8351 7.52576C12.2605 7.82504 12.3631 8.41233 12.0638 8.83679C11.7645 9.26125 11.1781 9.36478 10.7527 9.06549L8.46774 7.45808C8.46954 7.48183 8.47045 7.50582 8.47045 7.53003V15.0593C8.47045 15.5788 8.04975 16.0005 7.52929 16.0005C7.00883 16.0005 6.58813 15.5788 6.58813 15.0593V7.53003C6.58813 7.52991 6.58813 7.52979 6.58813 7.52967L4.32933 9.22361C4.15992 9.35066 3.96228 9.41184 3.76558 9.41184Z" fill="white"/>
</svg>
