<svg width="12" height="12" viewBox="0 0 12 12" fill="none" xmlns="http://www.w3.org/2000/svg">
<path fill-rule="evenodd" clip-rule="evenodd" d="M0.705849 0H10.5877H10.5877C10.976 0 11.2936 0.317632 11.2936 0.705849L11.2936 0.709144V2.11755C11.2936 2.50576 10.9759 2.8234 10.5877 2.8234C10.1995 2.8234 9.88188 2.50576 9.88188 2.11755V1.4117H1.4117V2.11755C1.4117 2.50576 1.09407 2.8234 0.705849 2.8234C0.317632 2.8234 0 2.50576 0 2.11755V0.705849C0 0.317632 0.317632 0 0.705849 0ZM2.82413 7.05853C2.60885 7.05853 2.3978 6.96113 2.25875 6.7762C2.02441 6.46421 2.08793 6.02164 2.39992 5.78801L5.22331 3.67046C5.46754 3.48694 5.80352 3.482 6.05269 3.65775L8.87608 5.64401C9.19512 5.86847 9.27206 6.30892 9.0476 6.62726C8.82314 6.9456 8.3834 7.02324 8.06435 6.79878L6.35064 5.59325C6.35199 5.61107 6.35268 5.62908 6.35268 5.64725V11.294C6.35268 11.6837 6.03716 11.9999 5.64683 11.9999C5.25649 11.9999 4.94098 11.6837 4.94098 11.294V5.64725C4.94098 5.64716 4.94098 5.64706 4.94098 5.64696L3.24694 6.91736C3.11988 7.01265 2.97165 7.05853 2.82413 7.05853Z" fill="#C5CEE0"/>
</svg>
