<svg width="40" height="24" viewBox="0 0 40 24" fill="none" xmlns="http://www.w3.org/2000/svg">
<path d="M16.5837 21.35C11.3396 22.7804 8.62104 20.7511 8.0483 18.0829C7.42484 15.1782 9.54494 12.4132 14.6999 11.5123L32.2821 9.41922C34.7938 9.00059 36.3812 10.2565 36.6994 11.933C37.0962 14.0241 35.8404 15.28 33.9566 15.9079L16.5837 21.35Z" fill="white"/>
<path fill-rule="evenodd" clip-rule="evenodd" d="M32.2821 9.41922L14.6999 11.5123C9.54494 12.4132 7.42484 15.1782 8.0483 18.0829C8.62104 20.7511 11.3396 22.7804 16.5837 21.35L33.9566 15.9079C35.8404 15.28 37.0962 14.0241 36.6994 11.933C36.3812 10.2565 34.7938 9.00059 32.2821 9.41922ZM33.4406 14.3148C34.1883 14.0635 34.6289 13.7453 34.8529 13.4522C35.0358 13.2129 35.1729 12.8701 35.0543 12.2452C34.9784 11.8455 34.763 11.5221 34.423 11.3086C34.0803 11.0935 33.4865 10.9161 32.5574 11.0709L32.5188 11.0774L14.9443 13.1696C12.6149 13.5834 11.1914 14.3799 10.4275 15.1928C9.703 15.9639 9.49052 16.823 9.68551 17.7314C9.87072 18.5943 10.3787 19.3155 11.2773 19.7383C12.2084 20.1765 13.7541 20.381 16.1137 19.7425L33.4406 14.3148Z" fill="#46D7CB"/>
<path d="M39.2617 18.5844C39.6695 19.6661 39.1231 20.8735 38.0414 21.2812C36.9597 21.6889 35.7523 21.1426 35.3445 20.0609L32.3915 12.2264C31.9838 11.1447 32.5302 9.93732 33.6119 9.52959C34.6936 9.12187 35.901 9.66824 36.3087 10.7499L39.2617 18.5844Z" fill="white"/>
<path fill-rule="evenodd" clip-rule="evenodd" d="M33.9584 11.6358L36.9114 19.4703C36.993 19.6866 37.2345 19.7959 37.4508 19.7143C37.6671 19.6328 37.7764 19.3913 37.6949 19.175L34.7419 11.3405C34.6603 11.1242 34.4188 11.0149 34.2025 11.0965C33.9861 11.178 33.8769 11.4195 33.9584 11.6358ZM38.0414 21.2812C39.1231 20.8735 39.6695 19.6661 39.2617 18.5844L36.3087 10.7499C35.901 9.66824 34.6936 9.12187 33.6119 9.52959C32.5302 9.93732 31.9838 11.1447 32.3915 12.2264L35.3445 20.0609C35.7523 21.1426 36.9597 21.6889 38.0414 21.2812Z" fill="#46D7CB"/>
<path d="M14.9082 15.4893C14.9082 16.6453 13.9711 17.5824 12.8151 17.5824C11.6591 17.5824 10.722 16.6453 10.722 15.4893L10.722 7.1168C10.722 5.9608 11.6591 5.02368 12.8151 5.02368C13.9711 5.02368 14.9082 5.9608 14.9082 7.1168L14.9082 15.4893Z" fill="white"/>
<path fill-rule="evenodd" clip-rule="evenodd" d="M12.3965 7.1168L12.3965 15.4893C12.3965 15.7205 12.5839 15.9079 12.8151 15.9079C13.0463 15.9079 13.2337 15.7205 13.2337 15.4893L13.2337 7.1168C13.2337 6.8856 13.0463 6.69818 12.8151 6.69818C12.5839 6.69818 12.3965 6.8856 12.3965 7.1168ZM12.8151 17.5824C13.9711 17.5824 14.9082 16.6453 14.9082 15.4893L14.9082 7.1168C14.9082 5.9608 13.9711 5.02368 12.8151 5.02368C11.6591 5.02368 10.722 5.9608 10.722 7.1168L10.722 15.4893C10.722 16.6453 11.6591 17.5824 12.8151 17.5824Z" fill="#46D7CB"/>
<path d="M0.487691 19.0424C0.757303 17.0958 2.55391 15.7364 4.50052 16.006C6.44714 16.2756 7.80662 18.0722 7.537 20.0188C7.26739 21.9654 5.47079 23.3249 3.52417 23.0553C1.57756 22.7857 0.218079 20.9891 0.487691 19.0424Z" fill="white"/>
<path fill-rule="evenodd" clip-rule="evenodd" d="M4.27079 17.6646C3.24023 17.5219 2.28909 18.2416 2.14635 19.2722C2.00362 20.3027 2.72334 21.2539 3.7539 21.3966C4.78446 21.5394 5.73561 20.8196 5.87834 19.7891C6.02108 18.7585 5.30135 17.8074 4.27079 17.6646ZM4.50052 16.006C2.55391 15.7364 0.757303 17.0958 0.487691 19.0424C0.218079 20.9891 1.57756 22.7857 3.52417 23.0553C5.47079 23.3249 7.26739 21.9654 7.537 20.0188C7.80662 18.0722 6.44714 16.2756 4.50052 16.006Z" fill="#46D7CB"/>
<path fill-rule="evenodd" clip-rule="evenodd" d="M2.8637 0.448237C3.07864 0.0388293 3.58477 -0.118819 3.99418 0.0961203L20.7391 8.88722C21.1485 9.10216 21.3062 9.60829 21.0913 10.0177C20.8763 10.4271 20.3702 10.5848 19.9608 10.3698L3.21581 1.57872C2.80641 1.36378 2.64876 0.857644 2.8637 0.448237Z" fill="#46D7CB"/>
<path fill-rule="evenodd" clip-rule="evenodd" d="M3.18686 0.000244177C3.64926 0.000244197 4.0241 0.375093 4.0241 0.837492L4.0241 13.3962C4.0241 13.8586 3.64926 14.2335 3.18686 14.2335C2.72446 14.2335 2.34961 13.8586 2.34961 13.3962L2.34961 0.837492C2.34961 0.375093 2.72446 0.000244157 3.18686 0.000244177Z" fill="#46D7CB"/>
<path fill-rule="evenodd" clip-rule="evenodd" d="M20.3509 9.20996C20.8133 9.20996 21.1882 9.58481 21.1882 10.0472V23.0245C21.1882 23.4869 20.8133 23.8618 20.3509 23.8618C19.8885 23.8618 19.5137 23.4869 19.5137 23.0245V10.0472C19.5137 9.58481 19.8885 9.20996 20.3509 9.20996Z" fill="#46D7CB"/>
</svg>
