<svg width="42" height="29" viewBox="0 0 42 29" fill="none" xmlns="http://www.w3.org/2000/svg">
<path d="M12.591 20.5926C10.5776 20.0531 9.38267 17.9835 9.92218 15.97C10.4617 13.9565 12.5313 12.7616 14.5448 13.3011L21.8362 15.2549C23.8497 15.7944 25.0446 17.864 24.5051 19.8775C23.9656 21.891 21.896 23.0858 19.8825 22.5463L12.591 20.5926Z" fill="white"/>
<path fill-rule="evenodd" clip-rule="evenodd" d="M21.4455 16.7132L14.154 14.7594C12.9459 14.4357 11.7042 15.1527 11.3805 16.3607C11.0568 17.5688 11.7737 18.8106 12.9818 19.1343L20.2733 21.088C21.4813 21.4117 22.7231 20.6948 23.0468 19.4867C23.3705 18.2786 22.6536 17.0369 21.4455 16.7132ZM9.92218 15.97C9.38267 17.9835 10.5776 20.0531 12.591 20.5926L19.8825 22.5463C21.896 23.0858 23.9656 21.891 24.5051 19.8775C25.0446 17.864 23.8497 15.7944 21.8362 15.2549L14.5448 13.3011C12.5313 12.7616 10.4617 13.9565 9.92218 15.97Z" fill="#46D7CB"/>
<path d="M23.3272 22.2897C21.1971 23.0559 19.2526 21.6321 18.7131 19.6186C18.1736 17.6051 19.1945 15.5821 21.3735 14.9983L37.1058 11.955C38.0808 11.6938 39.923 11.7863 40.5875 13.7574C41.0464 15.9789 39.4484 16.7978 38.4734 17.0591L23.3272 22.2897Z" fill="white"/>
<path fill-rule="evenodd" clip-rule="evenodd" d="M37.1058 11.955L21.3735 14.9983C19.1945 15.5821 18.1736 17.6051 18.7131 19.6186C19.2526 21.6321 21.1971 23.0559 23.3272 22.2897L38.4734 17.0591C39.4484 16.7978 41.0464 15.9789 40.5875 13.7574C39.923 11.7863 38.0808 11.6938 37.1058 11.955ZM39.1265 14.1552C39.1801 14.4672 39.1578 14.6723 39.1252 14.7999C39.0902 14.9367 39.0292 15.041 38.9465 15.1328C38.7561 15.3441 38.4282 15.5082 38.0827 15.6008L38.0311 15.6146L22.8253 20.8658L22.8163 20.8691C21.7232 21.2622 20.5429 20.6145 20.1714 19.2278C19.8385 17.9857 20.4246 16.8388 21.7181 16.4693L37.4449 13.4272L37.4965 13.4133C37.7558 13.3439 38.1393 13.3284 38.4569 13.4414C38.6893 13.5241 38.9477 13.6893 39.1265 14.1552Z" fill="#46D7CB"/>
<path d="M2.50646 15.9367C1.49972 15.6669 0.902274 14.6321 1.17203 13.6254C1.44178 12.6186 2.47659 12.0212 3.48333 12.2909L12.5977 14.7331C13.6044 15.0029 14.2018 16.0377 13.9321 17.0444C13.6623 18.0512 12.6275 18.6486 11.6208 18.3789L2.50646 15.9367Z" fill="white"/>
<path fill-rule="evenodd" clip-rule="evenodd" d="M12.2069 16.1914L3.09258 13.7492C2.89123 13.6953 2.68427 13.8148 2.63032 14.0161C2.57637 14.2175 2.69586 14.4244 2.89721 14.4784L12.0115 16.9206C12.2129 16.9745 12.4198 16.855 12.4738 16.6537C12.5277 16.4523 12.4083 16.2454 12.2069 16.1914ZM1.17203 13.6254C0.902274 14.6321 1.49972 15.6669 2.50646 15.9367L11.6208 18.3789C12.6275 18.6486 13.6623 18.0512 13.9321 17.0444C14.2018 16.0377 13.6044 15.0029 12.5977 14.7331L3.48333 12.2909C2.47659 12.0212 1.44178 12.6186 1.17203 13.6254Z" fill="#46D7CB"/>
<path d="M10.99 6.87833C12.7015 7.33691 13.7171 9.09608 13.2586 10.8075C12.8 12.519 11.0408 13.5347 9.32934 13.0761C7.61788 12.6175 6.60222 10.8583 7.06081 9.14686C7.51939 7.4354 9.27856 6.41974 10.99 6.87833Z" fill="white"/>
<path fill-rule="evenodd" clip-rule="evenodd" d="M11.8003 10.4168C12.043 9.51072 11.5053 8.5794 10.5993 8.33662C9.6932 8.09384 8.76188 8.63154 8.5191 9.53761C8.27632 10.4437 8.81402 11.375 9.72009 11.6178C10.6262 11.8606 11.5575 11.3229 11.8003 10.4168ZM13.2586 10.8075C13.7171 9.09608 12.7015 7.33691 10.99 6.87833C9.27856 6.41974 7.51939 7.4354 7.06081 9.14686C6.60222 10.8583 7.61788 12.6175 9.32934 13.0761C11.0408 13.5347 12.8 12.519 13.2586 10.8075Z" fill="#46D7CB"/>
</svg>
