<svg width="28" height="29" viewBox="0 0 28 29" fill="none" xmlns="http://www.w3.org/2000/svg">
<path fill-rule="evenodd" clip-rule="evenodd" d="M19.6486 7.85965C21.2764 7.85965 22.596 6.54007 22.596 4.91228C22.596 3.28449 21.2764 1.96491 19.6486 1.96491C18.0208 1.96491 16.7012 3.28449 16.7012 4.91228C16.7012 6.54007 18.0208 7.85965 19.6486 7.85965ZM19.6486 9.82456C22.3616 9.82456 24.5609 7.62526 24.5609 4.91228C24.5609 2.1993 22.3616 0 19.6486 0C16.9356 0 14.7363 2.1993 14.7363 4.91228C14.7363 7.62526 16.9356 9.82456 19.6486 9.82456Z" fill="#46D7CB"/>
<path fill-rule="evenodd" clip-rule="evenodd" d="M9.03162 19.4167L15.9786 12.4697C17.1297 11.3187 17.1297 9.45253 15.9786 8.30151C14.8276 7.15049 12.9614 7.15049 11.8104 8.30151L4.86341 15.2485C3.71239 16.3995 3.71239 18.2657 4.86341 19.4167C6.01443 20.5677 7.8806 20.5677 9.03162 19.4167ZM17.368 6.91211C15.4497 4.99374 12.3394 4.99374 10.421 6.91211L3.47401 13.8591C1.55565 15.7775 1.55565 18.8878 3.47401 20.8061C5.39238 22.7245 8.50266 22.7245 10.421 20.8061L17.368 13.8591C19.2864 11.9408 19.2864 8.83047 17.368 6.91211Z" fill="#46D7CB"/>
<path fill-rule="evenodd" clip-rule="evenodd" d="M21.4514 17.1443C21.6846 17.4989 21.6638 17.9632 21.3997 18.2955L15.0525 26.2807H16.9464C17.489 26.2807 17.9288 26.7205 17.9288 27.2631C17.9288 27.8057 17.489 28.2456 16.9464 28.2456H13.0165C12.6394 28.2456 12.2956 28.0297 12.1317 27.6901C11.9678 27.3505 12.0128 26.947 12.2474 26.6518L18.0002 19.4144L9.09793 21.8255C8.5742 21.9673 8.03465 21.6577 7.89281 21.134C7.75096 20.6103 8.06054 20.0707 8.58427 19.9289L20.3737 16.7359C20.7835 16.6249 21.2181 16.7896 21.4514 17.1443Z" fill="#46D7CB"/>
<path fill-rule="evenodd" clip-rule="evenodd" d="M16.7021 12.2807C16.7021 11.7381 17.142 11.2982 17.6846 11.2982H27.0179C27.5605 11.2982 28.0004 11.7381 28.0004 12.2807C28.0004 12.8233 27.5605 13.2631 27.0179 13.2631H17.6846C17.142 13.2631 16.7021 12.8233 16.7021 12.2807Z" fill="#46D7CB"/>
</svg>
