<svg width="8" height="40" viewBox="0 0 8 40" fill="none" xmlns="http://www.w3.org/2000/svg">
<path d="M6.875 26.6163C6.875 28.5115 5.33857 30.048 3.44328 30.048C1.54799 30.048 0.0115547 28.5115 0.0115547 26.6163L0.0115547 19.7528C0.0115547 17.8575 1.54799 16.3211 3.44328 16.3211C5.33857 16.3211 6.875 17.8575 6.875 19.7528L6.875 26.6163Z" fill="white"/>
<path fill-rule="evenodd" clip-rule="evenodd" d="M1.38424 19.7528L1.38424 26.6163C1.38424 27.7534 2.3061 28.6753 3.44328 28.6753C4.58045 28.6753 5.50231 27.7534 5.50231 26.6163L5.50231 19.7528C5.50231 18.6156 4.58045 17.6938 3.44328 17.6938C2.3061 17.6938 1.38424 18.6156 1.38424 19.7528ZM3.44328 30.048C5.33857 30.048 6.875 28.5115 6.875 26.6163L6.875 19.7528C6.875 17.8575 5.33857 16.3211 3.44328 16.3211C1.54799 16.3211 0.0115547 17.8575 0.0115547 19.7528L0.0115547 26.6163C0.0115547 28.5115 1.54799 30.048 3.44328 30.048Z" fill="#46D7CB"/>
<path d="M6.86309 17.1666C7.03467 19.2176 5.32665 20.5903 3.43136 20.5903C1.53608 20.5903 -0.000358582 19.2176 -0.000358582 17.1666L1.02916 2.63364C1.02916 1.71586 1.54392 0.119705 3.43136 -5.72205e-06C5.4904 0.119705 5.83357 1.71586 5.83357 2.63364L6.86309 17.1666Z" fill="white"/>
<path fill-rule="evenodd" clip-rule="evenodd" d="M1.02916 2.63364L-0.000358582 17.1666C-0.000358582 19.2176 1.53608 20.5903 3.43136 20.5903C5.32665 20.5903 7.03467 19.2176 6.86309 17.1666L5.83357 2.63364C5.83357 1.71586 5.4904 0.119705 3.43136 -5.72205e-06C1.54392 0.119705 1.02916 1.71586 1.02916 2.63364ZM3.43696 1.37673C3.72356 1.40306 3.89842 1.47091 4.00283 1.52959C4.11472 1.59248 4.19198 1.67058 4.25319 1.76488C4.39395 1.98176 4.46088 2.30838 4.46088 2.63364V2.6822L5.49445 17.2723L5.49518 17.281C5.58322 18.3335 4.73662 19.2176 3.43136 19.2176C2.26209 19.2176 1.39282 18.4331 1.37269 17.2101L2.40185 2.6822V2.63364C2.40185 2.38961 2.47849 2.04917 2.6525 1.79684C2.77984 1.61218 2.98568 1.42407 3.43696 1.37673Z" fill="#46D7CB"/>
<path d="M7.90424 32.2784C7.90424 33.8894 6.59827 35.1954 4.98728 35.1954C3.37628 35.1954 2.07031 33.8894 2.07031 32.2784C2.07031 30.6674 3.37628 29.3615 4.98728 29.3615C6.59827 29.3615 7.90424 30.6674 7.90424 32.2784Z" fill="white"/>
<path fill-rule="evenodd" clip-rule="evenodd" d="M4.98728 33.8227C5.84016 33.8227 6.53155 33.1313 6.53155 32.2784C6.53155 31.4255 5.84016 30.7341 4.98728 30.7341C4.1344 30.7341 3.443 31.4255 3.443 32.2784C3.443 33.1313 4.1344 33.8227 4.98728 33.8227ZM4.98728 35.1954C6.59827 35.1954 7.90424 33.8894 7.90424 32.2784C7.90424 30.6674 6.59827 29.3615 4.98728 29.3615C3.37628 29.3615 2.07031 30.6674 2.07031 32.2784C2.07031 33.8894 3.37628 35.1954 4.98728 35.1954Z" fill="#46D7CB"/>
<path d="M1.72852 27.9889C1.72852 27.0413 2.49673 26.2731 3.44438 26.2731C4.39202 26.2731 5.16024 27.0413 5.16024 27.9889L5.16024 38.2841C5.16024 39.2317 4.39202 40 3.44438 40C2.49673 40 1.72852 39.2317 1.72852 38.2841L1.72852 27.9889Z" fill="white"/>
<path fill-rule="evenodd" clip-rule="evenodd" d="M3.78755 38.2841L3.78755 27.9889C3.78755 27.7994 3.63391 27.6458 3.44438 27.6458C3.25485 27.6458 3.1012 27.7994 3.1012 27.9889L3.1012 38.2841C3.1012 38.4736 3.25485 38.6273 3.44438 38.6273C3.63391 38.6273 3.78755 38.4736 3.78755 38.2841ZM3.44438 26.2731C2.49673 26.2731 1.72852 27.0413 1.72852 27.9889L1.72852 38.2841C1.72852 39.2317 2.49673 40 3.44438 40C4.39202 40 5.16024 39.2317 5.16024 38.2841L5.16024 27.9889C5.16024 27.0413 4.39202 26.2731 3.44438 26.2731Z" fill="#46D7CB"/>
</svg>
