<svg width="26" height="28" viewBox="0 0 26 28" fill="none" xmlns="http://www.w3.org/2000/svg">
<path fill-rule="evenodd" clip-rule="evenodd" d="M12.5928 4.44444C13.411 4.44444 14.0743 3.78116 14.0743 2.96296C14.0743 2.14476 13.411 1.48148 12.5928 1.48148C11.7746 1.48148 11.1114 2.14476 11.1114 2.96296C11.1114 3.78116 11.7746 4.44444 12.5928 4.44444ZM12.5928 5.92592C14.2292 5.92592 15.5558 4.59936 15.5558 2.96296C15.5558 1.32656 14.2292 0 12.5928 0C10.9564 0 9.62988 1.32656 9.62988 2.96296C9.62988 4.59936 10.9564 5.92592 12.5928 5.92592Z" fill="#46D7CB"/>
<path fill-rule="evenodd" clip-rule="evenodd" d="M2.72144 4.31107C2.52325 4.27364 2.39228 4.30566 2.27919 4.40572C2.23843 4.44178 2.21385 4.49368 2.21967 4.55709C2.2252 4.61747 2.27216 4.81872 2.63708 5.10122C2.64835 5.10995 2.65937 5.119 2.67012 5.12836C2.96477 5.38497 3.98712 6.09689 5.32952 6.85915C6.66362 7.61669 8.2403 8.38155 9.63302 8.77761C9.95146 8.86817 10.1711 9.15904 10.1711 9.4901V14.867C10.1711 15.0398 10.1107 15.2073 10.0002 15.3402L1.83515 25.1712C1.61207 25.4498 1.50249 25.6873 1.4843 25.8638C1.47189 25.9843 1.48924 26.1484 1.7478 26.3735C1.86339 26.4742 2.02391 26.5339 2.20606 26.515C2.3821 26.4968 2.64592 26.3967 2.93994 26.0553L2.94339 26.0513L8.21377 20.0188C8.22509 20.0058 8.23686 19.9932 8.24905 19.9811C8.40561 19.8253 8.60621 19.5955 8.86378 19.2995C8.9653 19.1829 9.07824 19.0482 9.19993 18.9031C9.54062 18.4969 9.94986 18.0089 10.3691 17.6058C10.9235 17.0726 11.6888 16.4868 12.5926 16.4868C13.4965 16.4868 14.2617 17.0726 14.8162 17.6058C15.2354 18.0089 15.6446 18.4969 15.9853 18.9031C16.107 19.0482 16.22 19.1829 16.3215 19.2995C16.579 19.5955 16.7796 19.8253 16.9362 19.9811C16.9484 19.9932 16.9602 20.0058 16.9715 20.0188L22.2419 26.0513L22.2453 26.0553C22.5393 26.3967 22.8032 26.4968 22.9792 26.515C23.1614 26.5339 23.3219 26.4742 23.4375 26.3735C23.696 26.1484 23.7134 25.9843 23.701 25.8638C23.6828 25.6873 23.5732 25.4498 23.3501 25.1712L15.185 15.3402C15.0746 15.2073 15.0141 15.0398 15.0141 14.867V9.4901C15.0141 9.15904 15.2338 8.86817 15.5522 8.77761C16.945 8.38155 18.5216 7.61669 19.8557 6.85915C21.1981 6.09689 22.2205 5.38497 22.5151 5.12836C22.5259 5.119 22.5369 5.10995 22.5482 5.10122C22.9131 4.81872 22.9601 4.61747 22.9656 4.55709C22.9714 4.49368 22.9468 4.44178 22.9061 4.40572C22.793 4.30566 22.662 4.27364 22.4638 4.31107C22.2454 4.35231 22.0137 4.47161 21.844 4.58986L21.8346 4.59626C17.6457 7.42066 14.7358 8.00141 12.5926 8.00141C10.4495 8.00141 7.53957 7.42066 3.35064 4.59626L3.3413 4.58986C3.17157 4.47161 2.93984 4.35231 2.72144 4.31107ZM4.18323 3.37087C3.91349 3.18366 3.48863 2.94829 2.99637 2.85532C2.48086 2.75796 1.84323 2.81336 1.29753 3.29616C0.94301 3.60981 0.690888 4.10872 0.744367 4.69229C0.797615 5.27332 1.13986 5.8105 1.71365 6.25981C2.13491 6.62123 3.24856 7.38117 4.598 8.14742C5.8168 8.8395 7.28643 9.57044 8.68966 10.0364V14.5995L0.691488 24.2294C0.688953 24.2325 0.686443 24.2355 0.683958 24.2386C0.382375 24.6139 0.0713846 25.1223 0.0106188 25.712C-0.0560282 26.3587 0.190139 26.9815 0.774833 27.4907C1.18629 27.8491 1.75044 28.0517 2.35885 27.9886C2.97261 27.9249 3.56452 27.5995 4.06069 27.0242C4.0613 27.0235 4.06191 27.0228 4.06252 27.0221L9.31318 21.0121C9.50776 20.8162 9.73526 20.5548 9.96617 20.2895L9.98127 20.2722C10.1183 20.1147 10.2533 19.9538 10.3884 19.7926C10.7128 19.4058 11.0382 19.0177 11.396 18.6737C11.9173 18.1723 12.3113 17.9683 12.5926 17.9683C12.874 17.9683 13.2679 18.1723 13.7893 18.6737C14.1471 19.0177 14.4725 19.4058 14.7968 19.7926C14.932 19.9538 15.0669 20.1147 15.204 20.2722L15.2191 20.2896C15.45 20.5549 15.6775 20.8162 15.8721 21.0121L21.1227 27.0221C21.1234 27.0228 21.124 27.0235 21.1246 27.0242C21.6208 27.5995 22.2127 27.9249 22.8264 27.9886C23.4348 28.0517 23.999 27.8491 24.4104 27.4907C24.9951 26.9815 25.2413 26.3587 25.1746 25.712C25.1139 25.1223 24.8029 24.6139 24.5013 24.2386C24.4988 24.2355 24.4963 24.2325 24.4938 24.2294L16.4956 14.5995V10.0364C17.8988 9.57044 19.3685 8.8395 20.5873 8.14742C21.9367 7.38117 23.0503 6.62124 23.4716 6.25982C24.0454 5.81051 24.3876 5.27332 24.4409 4.69229C24.4944 4.10872 24.2423 3.60981 23.8877 3.29616C23.342 2.81336 22.7044 2.75796 22.1889 2.85532C21.6966 2.94829 21.2717 3.18368 21.002 3.37088C17.0243 6.05188 14.3994 6.51993 12.5926 6.51993C10.7858 6.51993 8.16094 6.05188 4.18323 3.37087Z" fill="#46D7CB"/>
</svg>
