<svg width="27" height="19" viewBox="0 0 27 19" fill="none" xmlns="http://www.w3.org/2000/svg">
<path d="M26.3463 10.2009L25.2089 9.07264C24.7914 8.66324 24.2369 8.42205 23.6815 8.42205C23.4613 8.42205 23.2463 8.46299 23.0486 8.53566L16.6272 2.17063C16.5402 1.09227 15.6001 0.232544 14.5033 0.232544H12.2099C11.0907 0.232544 10.1321 1.13355 10.0771 2.24367L10.0633 2.48011L3.95317 8.53568C3.75608 8.463 3.54042 8.42206 3.3155 8.42206C2.76517 8.42206 2.20556 8.66262 1.7925 9.07265L0.655046 10.2009C0.283577 10.5697 0.0544966 11.047 0.00842343 11.5386C-0.0421293 12.0708 0.136724 12.5808 0.494752 12.9353C0.811187 13.2488 1.24696 13.4265 1.72403 13.4265C2.27914 13.4265 2.83396 13.186 3.25145 12.776L4.3844 11.6477C4.75586 11.2786 4.98974 10.802 5.03102 10.3107C5.05853 10.0282 5.02174 9.75529 4.92543 9.50488L9.96178 4.50899L9.66839 10.583H7.73749C6.9808 10.583 6.36136 11.1971 6.36136 11.948V13.0854C6.36136 13.836 6.65955 14.987 7.02654 15.6468C7.02654 15.6468 8.88421 19 13.2416 19C17.943 19 19.6219 15.6696 19.6219 15.6696C19.9613 15.0006 20.2365 13.836 20.2365 13.0853V11.9479C20.2365 11.1973 19.6174 10.5829 18.8603 10.5829H17.0485L16.7365 4.20871L22.0711 9.50456C21.9793 9.75019 21.9431 10.0273 21.9655 10.3103C22.0119 10.8016 22.2413 11.2789 22.6121 11.6474L23.7496 12.7756C24.1671 13.185 24.7216 13.4262 25.277 13.4262C25.7489 13.4262 26.1899 13.2482 26.5063 12.9349C26.864 12.5804 27.0384 12.0704 26.9929 11.5383C26.9472 11.047 26.7178 10.5696 26.3463 10.2009ZM3.66441 10.1872C3.64617 10.3602 3.55434 10.542 3.41229 10.6836L2.27934 11.807C2.11872 11.9667 1.91235 12.0622 1.72422 12.0622C1.64615 12.0622 1.54089 12.0441 1.4673 11.9711C1.37547 11.88 1.37099 11.7391 1.38027 11.6617C1.39403 11.4887 1.48586 11.3069 1.62791 11.1653L2.76537 10.0419C2.92118 9.88225 3.12788 9.78672 3.31569 9.78672C3.39376 9.78672 3.49903 9.80481 3.57261 9.8778C3.66892 9.96889 3.66889 10.1098 3.66441 10.1872ZM11.453 2.31155C11.4713 1.92468 11.82 1.59716 12.2097 1.59716H14.5031C14.8932 1.59716 15.2413 1.92468 15.2646 2.31155L15.6911 10.5831H11.0262L11.453 2.31155ZM18.8606 11.948V13.0854C18.8606 13.6224 18.6312 14.5824 18.3973 15.0467C18.3423 15.1556 16.9799 17.6351 13.242 17.6351C9.79258 17.6351 8.28817 15.0873 8.22863 14.987C7.97651 14.5319 7.73782 13.609 7.73782 13.0854V11.948H18.8606ZM25.5345 11.9705C25.4564 12.0432 25.3515 12.0616 25.2776 12.0616C25.0894 12.0616 24.8831 11.9661 24.7221 11.8064L23.5895 10.683C23.4426 10.5414 23.3505 10.3596 23.3367 10.1866C23.3275 10.1092 23.3323 9.96859 23.4238 9.87719C23.5018 9.80451 23.6068 9.78611 23.6807 9.78611C23.8688 9.78611 24.0752 9.88163 24.2361 10.0413L25.3687 11.1647C25.5156 11.3063 25.6078 11.4881 25.6215 11.6611C25.6308 11.7385 25.6263 11.8797 25.5345 11.9705Z" fill="#46D7CB"/>
</svg>
