<svg width="32" height="28" viewBox="0 0 32 28" fill="none" xmlns="http://www.w3.org/2000/svg">
<path d="M15.7751 8.78836C17.0178 8.78836 18.0287 7.57526 18.0287 6.08412C18.0287 4.59297 17.0178 3.37988 15.7751 3.37988C14.5324 3.37988 13.5215 4.59297 13.5215 6.08412C13.5217 7.57526 14.5326 8.78836 15.7751 8.78836ZM15.7751 4.28136C16.5207 4.28136 17.1272 5.09002 17.1272 6.08412C17.1272 7.07822 16.5209 7.88688 15.7751 7.88688C15.0292 7.88688 14.423 7.07822 14.423 6.08412C14.423 5.09002 15.0296 4.28136 15.7751 4.28136Z" fill="#46D7CB"/>
<path d="M19.4018 6.57475L16.7709 8.1964C16.6761 8.27053 16.6149 8.37937 16.6008 8.49877C16.5866 8.61837 16.6208 8.73852 16.6959 8.83265C16.7707 8.92678 16.8802 8.98696 16.9999 8.99997C17.1195 9.0128 17.2393 8.97752 17.3327 8.9015L20.1814 7.10635C20.3148 6.99996 20.3768 6.82736 20.3414 6.66042L19.3352 1.91443C19.3094 1.7971 19.3314 1.67411 19.3965 1.5732C19.4616 1.47228 19.5644 1.40135 19.6819 1.37645C19.7994 1.35156 19.9222 1.37476 20.0226 1.44078C20.1231 1.50661 20.1931 1.60998 20.2169 1.72769L21.3386 7.01882C21.3747 7.18575 21.3126 7.35873 21.1785 7.46456L18.4384 9.79486C18.3435 9.8688 18.2822 9.97765 18.2681 10.0972C18.2539 10.2166 18.2883 10.3368 18.3631 10.4309C18.4382 10.5251 18.5476 10.5852 18.6672 10.5982C18.7868 10.6113 18.9066 10.5758 19 10.5L21.7401 8.17005C21.9372 8.01423 22.0868 7.80618 22.1717 7.56961C22.2565 7.33307 22.2735 7.07749 22.2205 6.83189L21.0991 1.54076C20.9989 1.06823 20.6543 0.684919 20.1949 0.535365C19.7356 0.385965 19.2314 0.492734 18.872 0.815862C18.5129 1.1388 18.3533 1.62887 18.4535 2.10158L19.4018 6.57475Z" fill="#46D7CB"/>
<path d="M9.80935 8.1693L12.8708 10.5743C13.0658 10.7264 13.3467 10.6933 13.5008 10.5C13.6547 10.3067 13.6243 10.0252 13.4325 9.86938L10.371 7.46436C10.237 7.35854 10.1748 7.18538 10.2108 7.01843L11.3322 1.7273C11.3562 1.60941 11.4262 1.50623 11.5267 1.44021C11.6271 1.37418 11.7497 1.35117 11.8674 1.37607C11.9849 1.40097 12.0877 1.47171 12.1528 1.57263C12.2179 1.67374 12.2399 1.79653 12.2141 1.91386L11.2081 6.65985C11.1729 6.82697 11.2347 6.99958 11.3683 7.10596L14.3709 9.07451C14.5658 9.22655 14.8469 9.19335 15.0008 9C15.1549 8.80665 15.1243 8.52521 14.9325 8.36938L12.1479 6.57415L13.0961 2.10071C13.1903 1.63064 13.0282 1.14587 12.6706 0.826484C12.3129 0.507317 11.8128 0.401306 11.3564 0.548064C10.8999 0.694634 10.5552 1.07225 10.4507 1.54008L9.32896 6.83121C9.27614 7.07681 9.29293 7.33241 9.378 7.56894C9.46289 7.80548 9.61223 8.01348 9.80935 8.1693Z" fill="#46D7CB"/>
<path d="M17.999 23L20.1761 20.6989C20.3922 20.4378 20.5209 20.1154 20.5439 19.7772C20.5669 19.439 20.483 19.1021 20.3043 18.8141L18.5806 16.0346L19.1017 10.3303C19.1128 10.2109 19.0758 10.092 18.9991 9.99998C18.9223 9.90793 18.8119 9.8502 18.6925 9.83964C18.5731 9.82908 18.4545 9.86662 18.3628 9.94376C18.2709 10.0209 18.2138 10.1315 18.2038 10.251L17.6695 16.1046C17.6609 16.2015 17.6841 16.2988 17.7354 16.3817L19.5381 19.2887C19.6175 19.4164 19.6547 19.5658 19.6445 19.7157C19.6341 19.8657 19.5772 20.0087 19.4813 20.1243L17.3043 22.4254C17.1479 22.6174 17.1758 22.8996 17.3666 23.0575C17.5575 23.2152 17.8398 23.1897 17.999 23Z" fill="#46D7CB"/>
<path d="M11.8229 20.6745L15.4286 25.0349C15.741 25.4126 16.2075 25.6284 16.6973 25.6221C17.1872 25.6161 17.648 25.3884 17.9508 25.0033C18.421 24.4136 18.3993 23.5466 17.8993 22.9418L15.0594 19.5076L16.0001 17.991L16.9408 19.5076L15.9655 20.6033C15.8087 20.7954 15.8364 21.0779 16.0275 21.2358C16.2186 21.3937 16.5012 21.3679 16.6604 21.1777L17.8418 19.8325C17.9652 19.6834 17.9793 19.4722 17.8775 19.3079L16.517 17.1141C16.435 16.9815 16.2899 16.9007 16.1339 16.9009H15.8661C15.7101 16.9007 15.5652 16.9815 15.483 17.1141L14.1225 19.3079C14.0205 19.4722 14.0348 19.6834 14.1582 19.8325L17.2046 23.5164C17.4344 23.7943 17.4517 24.1833 17.2459 24.4415C17.1124 24.6145 16.9075 24.7175 16.6891 24.7212C16.4706 24.725 16.2624 24.6292 16.123 24.4609L12.5173 20.1005C12.4214 19.9849 12.3645 19.8417 12.3543 19.6917C12.3441 19.5418 12.3813 19.3924 12.4605 19.2648L14.2632 16.3576C14.3146 16.2748 14.3378 16.1777 14.3293 16.0805L13.6591 10.3073C13.6491 10.1877 13.5918 10.0772 13.5001 10C13.4084 9.92288 13.2898 9.88534 13.1704 9.89591C13.0508 9.90647 12.9406 9.96419 12.8639 10.0562C12.7871 10.1483 12.7501 10.2671 12.7612 10.3865L13.4182 16.0106L11.6945 18.7901C11.5158 19.0779 11.4319 19.4148 11.4549 19.753C11.4779 20.0912 11.6067 20.4134 11.8229 20.6745Z" fill="#46D7CB"/>
<path d="M13.0008 2.47847L18.5008 2.47846C18.7477 2.47563 18.9463 2.27474 18.9463 2.02782C18.9463 1.7809 18.7477 1.58001 18.5008 1.57718L13.0008 1.57718C12.8805 1.57567 12.7645 1.62246 12.6788 1.70715C12.593 1.79185 12.5449 1.90729 12.5449 2.02783C12.5449 2.14836 12.593 2.2638 12.6788 2.3485C12.7645 2.43301 12.8805 2.47998 13.0008 2.47847Z" fill="#46D7CB"/>
<path d="M31.5492 26.1409H29.521V0.450642C29.521 0.201837 29.3191 0 29.0703 0H26.3661C26.1171 0 25.9155 0.201837 25.9153 0.450642V1.57754L21 1.57754C20.7531 1.58036 20.5546 1.78126 20.5546 2.02818C20.5546 2.27509 20.7531 2.47599 21 2.47882L25.9153 2.47882V26.1409H6.08453V2.47882L10.4265 2.47882C10.6734 2.47599 10.8718 2.27509 10.8718 2.02818C10.8718 1.78126 10.6734 1.58037 10.4265 1.57754L6.08453 1.57754V0.450642C6.08434 0.201837 5.88269 0 5.6337 0H2.92946C2.68066 0 2.47882 0.201837 2.47882 0.450642V26.1409H0.450642C0.201649 26.1409 0 26.3425 0 26.5915C0 26.8403 0.201649 27.0422 0.450642 27.0422H31.5494C31.7984 27.0422 32 26.8403 32 26.5915C32 26.3425 31.7981 26.1409 31.5492 26.1409ZM3.38019 26.1409V0.901187H5.18276V26.1409H3.38019ZM26.8167 26.1409V0.901187H28.6195L28.6197 26.1409H26.8167Z" fill="#46D7CB"/>
</svg>
