<svg width="40" height="20" viewBox="0 0 40 20" fill="none" xmlns="http://www.w3.org/2000/svg">
<path d="M27.179 2.76134C29.4112 1.9489 31.8793 3.09981 32.6918 5.33197C33.5042 7.56413 32.3533 10.0323 30.1211 10.8447L22.0377 13.7868C19.8056 14.5993 17.3374 13.4484 16.525 11.2162C15.7126 8.98403 16.8635 6.51589 19.0956 5.70345L27.179 2.76134Z" fill="white"/>
<path fill-rule="evenodd" clip-rule="evenodd" d="M21.4493 12.1701L29.5327 9.22804C30.872 8.74057 31.5625 7.25969 31.0751 5.92039C30.5876 4.5811 29.1067 3.89055 27.7674 4.37801L19.6841 7.32012C18.3448 7.80759 17.6542 9.28847 18.1417 10.6278C18.6291 11.9671 20.11 12.6576 21.4493 12.1701ZM32.6918 5.33197C31.8793 3.09981 29.4112 1.9489 27.179 2.76134L19.0956 5.70345C16.8635 6.51589 15.7126 8.98403 16.525 11.2162C17.3374 13.4484 19.8056 14.5993 22.0377 13.7868L30.1211 10.8447C32.3533 10.0323 33.5042 7.56413 32.6918 5.33197Z" fill="#46D7CB"/>
<path d="M1.02741 7.8149C0.459988 6.7715 0.845843 5.46567 1.88924 4.89825C2.93264 4.33083 4.23847 4.71668 4.8059 5.76008L8.91554 13.3171C9.48296 14.3605 9.09711 15.6663 8.05371 16.2337C7.01031 16.8011 5.70448 16.4153 5.13705 15.3719L1.02741 7.8149Z" fill="white"/>
<path fill-rule="evenodd" clip-rule="evenodd" d="M7.40414 14.139L3.2945 6.58201C3.18102 6.37333 2.91985 6.29616 2.71117 6.40964C2.50249 6.52313 2.42532 6.78429 2.53881 6.99297L6.64845 14.5499C6.76193 14.7586 7.0231 14.8358 7.23178 14.7223C7.44046 14.6088 7.51763 14.3477 7.40414 14.139ZM1.88924 4.89825C0.845843 5.46567 0.459988 6.7715 1.02741 7.8149L5.13705 15.3719C5.70448 16.4153 7.01031 16.8011 8.05371 16.2337C9.09711 15.6663 9.48296 14.3605 8.91554 13.3171L4.8059 5.76008C4.23847 4.71668 2.93264 4.33083 1.88924 4.89825Z" fill="#46D7CB"/>
<path d="M15.9059 7.29211C18.8115 5.95853 20.7041 7.2428 21.5166 9.47496C22.401 11.9049 21.4536 13.9503 18.5088 14.8359L10.2848 17.0665C8.37545 17.4494 6.25288 17.5479 5.34981 15.3592C4.56117 12.9 7.18387 11.4925 7.90448 11.2303L15.9059 7.29211Z" fill="white"/>
<path fill-rule="evenodd" clip-rule="evenodd" d="M8.58053 12.815L8.4929 12.8469C8.3168 12.911 7.73503 13.1998 7.31776 13.646C7.1234 13.8538 7.01201 14.0457 6.96122 14.213C6.92041 14.3475 6.90032 14.5211 6.96905 14.7702C7.18963 15.2628 7.46563 15.4185 7.82234 15.4998C8.31907 15.613 9.00537 15.5648 9.89159 15.3906L18.0345 13.1819C19.2046 12.8259 19.7181 12.3228 19.931 11.9241C20.1377 11.537 20.2218 10.9479 19.8999 10.0634C19.5963 9.22919 19.1718 8.7917 18.7745 8.60814C18.4139 8.44151 17.7611 8.33839 16.6435 8.84662L8.58053 12.815ZM15.9059 7.29211C18.8115 5.95853 20.7041 7.2428 21.5166 9.47496C22.401 11.9049 21.4536 13.9503 18.5088 14.8359L10.2848 17.0665C8.37545 17.4494 6.25288 17.5479 5.34981 15.3592C4.56117 12.9 7.18387 11.4925 7.90448 11.2303L15.9059 7.29211Z" fill="#46D7CB"/>
<path d="M26.8321 8.24508C26.2647 7.20168 26.6505 5.89585 27.6939 5.32842C28.7373 4.761 30.0432 5.14686 30.6106 6.19026L34.7202 13.7472C35.2876 14.7906 34.9018 16.0965 33.8584 16.6639C32.815 17.2313 31.5092 16.8455 30.9417 15.8021L26.8321 8.24508Z" fill="white"/>
<path fill-rule="evenodd" clip-rule="evenodd" d="M33.2088 14.5692L29.0992 7.01219C28.9857 6.80351 28.7245 6.72633 28.5159 6.83982C28.3072 6.9533 28.23 7.21447 28.3435 7.42315L32.4531 14.9801C32.5666 15.1888 32.8278 15.266 33.0365 15.1525C33.2451 15.039 33.3223 14.7778 33.2088 14.5692ZM27.6939 5.32842C26.6505 5.89585 26.2647 7.20168 26.8321 8.24508L30.9417 15.8021C31.5092 16.8455 32.815 17.2313 33.8584 16.6639C34.9018 16.0965 35.2876 14.7906 34.7202 13.7472L30.6106 6.19026C30.0432 5.14686 28.7373 4.761 27.6939 5.32842Z" fill="#46D7CB"/>
<path d="M40.0013 3.65591C40.0013 5.67502 38.3645 7.31183 36.3454 7.31183C34.3263 7.31183 32.6895 5.67502 32.6895 3.65591C32.6895 1.63681 34.3263 0 36.3454 0C38.3645 0 40.0013 1.63681 40.0013 3.65591Z" fill="white"/>
<path fill-rule="evenodd" clip-rule="evenodd" d="M36.3454 5.5914C37.4143 5.5914 38.2809 4.72485 38.2809 3.65591C38.2809 2.58698 37.4143 1.72043 36.3454 1.72043C35.2764 1.72043 34.4099 2.58698 34.4099 3.65591C34.4099 4.72485 35.2764 5.5914 36.3454 5.5914ZM36.3454 7.31183C38.3645 7.31183 40.0013 5.67502 40.0013 3.65591C40.0013 1.63681 38.3645 0 36.3454 0C34.3263 0 32.6895 1.63681 32.6895 3.65591C32.6895 5.67502 34.3263 7.31183 36.3454 7.31183Z" fill="#46D7CB"/>
</svg>
