<svg width="32" height="32" viewBox="0 0 32 32" fill="none" xmlns="http://www.w3.org/2000/svg">
<path d="M31.2503 1.28425H28.8258V0.749146C28.8258 0.335397 28.4904 0 28.0766 0C27.6629 0 27.3275 0.335397 27.3275 0.749146V1.28425H24.05C23.7495 0.532964 23.0158 0 22.1582 0C21.3008 0 20.567 0.532952 20.2664 1.28425H18.5665C17.9626 0.505261 17.0178 0 15.9541 0C14.8905 0 13.9455 0.505243 13.3416 1.28425H11.6419C11.3414 0.532964 10.6078 0 9.75015 0C8.89276 0 8.1589 0.532952 7.85839 1.28425H4.67143V0.749146C4.67143 0.335397 4.33627 0 3.92228 0C3.5083 0 3.17314 0.335397 3.17314 0.749146V1.28425H0.749146C0.335397 1.28425 0 1.61965 0 2.0334C0 2.44715 0.335397 2.78254 0.749146 2.78254H3.17363V31.066C3.17363 31.4798 3.50902 31.8152 3.92277 31.8152C4.33652 31.8152 4.67192 31.4798 4.67192 31.066V2.78254H7.71272V6.50534C7.71272 7.27693 8.01324 8.00265 8.55886 8.54828L9.0352 9.02462C9.03615 9.02557 9.03735 9.02653 9.0383 9.02772L11.7069 11.6672C11.9733 11.9307 12.1199 12.2816 12.1199 12.6552V27.0944C12.1199 28.3264 13.0576 29.355 14.2544 29.4355C14.8819 29.4778 15.4985 29.2616 15.9548 28.8431C16.3759 29.2284 16.927 29.441 17.5008 29.441C17.5555 29.441 17.6107 29.4391 17.6657 29.4353C18.8565 29.3505 19.7896 28.3225 19.7896 27.0949V12.655C19.7896 12.2864 19.9393 11.9266 20.2012 11.6672L23.3416 8.55237C23.8848 8.01368 24.1965 7.26598 24.1965 6.50081V2.78278H27.3278V31.0663C27.3278 31.48 27.6632 31.8154 28.077 31.8154C28.4907 31.8154 28.8261 31.48 28.8261 31.0663L28.8264 2.78278H31.2509C31.6646 2.78278 32 2.44739 32 2.03364C32 1.61989 31.6639 1.28449 31.2501 1.28449L31.2503 1.28425ZM22.6978 6.50008C22.6978 6.86868 22.548 7.22843 22.2862 7.48785L19.1456 10.603C18.6023 11.1416 18.2906 11.8893 18.2906 12.6545V27.0944C18.2906 27.5318 17.9624 27.9111 17.5587 27.94C17.3226 27.9572 17.1017 27.8755 16.9345 27.7069C16.7854 27.5592 16.7032 27.3603 16.7032 27.1474C16.7032 27.1109 16.6975 27.0757 16.6925 27.0404C16.6977 27.005 16.7032 26.9699 16.7032 26.9334L16.7035 17.2556C16.7035 16.8419 16.3681 16.5065 15.9543 16.5065C15.5406 16.5065 15.2052 16.8419 15.2052 17.2556V26.934C15.2052 26.9705 15.2109 27.0056 15.2159 27.041C15.2107 27.0764 15.2052 27.1115 15.2052 27.148C15.2052 27.3611 15.123 27.5599 14.9701 27.7113C14.8074 27.875 14.5886 27.9559 14.3549 27.9406C13.9486 27.9132 13.618 27.5338 13.618 27.0945V12.6552C13.618 11.8784 13.3134 11.1496 12.7604 10.6023L10.0933 7.96425L9.61883 7.48958C9.35581 7.22681 9.21129 6.8773 9.21129 6.50585L9.21105 2.03818C9.21105 1.74077 9.45304 1.49854 9.75069 1.49854C10.0481 1.49854 10.2903 1.74053 10.2903 2.03818V6.18546C10.2903 6.49983 10.4129 6.79558 10.635 7.01796L11.6396 8.02249C11.9831 8.366 12.4398 8.5552 12.926 8.5552H18.9832C19.4693 8.5552 19.9258 8.366 20.2696 8.02249L21.2741 7.01796C21.4965 6.79556 21.6188 6.50005 21.6188 6.18546L21.619 2.03818C21.619 1.74077 21.861 1.49854 22.1587 1.49854C22.4561 1.49854 22.6983 1.74053 22.6983 2.03818L22.6981 6.50034L22.6978 6.50008ZM15.9542 1.49829C16.9473 1.49829 17.7554 2.29759 17.7554 3.27991C17.7554 4.26243 16.9475 5.06178 15.9542 5.06178C14.9612 5.06178 14.1531 4.26249 14.1531 3.27991C14.1531 2.29783 14.9615 1.49829 15.9542 1.49829ZM15.9542 6.56026C17.7736 6.56026 19.2537 5.08875 19.2537 3.2801C19.2537 3.11049 19.2365 2.94542 19.2114 2.78274H20.1201V6.05213L19.2095 6.96279C19.1488 7.02347 19.0683 7.05667 18.9823 7.05667H12.9258C12.8403 7.05667 12.7596 7.02323 12.6987 6.96279L11.788 6.05213V2.78249H12.6967C12.6716 2.94518 12.6544 3.11049 12.6544 3.27985C12.6547 5.08893 14.1348 6.56026 15.9542 6.56026H15.9542Z" fill="#46D7CB"/>
</svg>
