<svg width="32" height="37" viewBox="0 0 32 37" fill="none" xmlns="http://www.w3.org/2000/svg">
<path d="M16.0001 11.398C16.8627 11.398 17.69 11.0553 18.3001 10.4452C18.9102 9.83535 19.2528 9.00807 19.2528 8.14524C19.2528 7.28268 18.9102 6.45539 18.3001 5.84529C17.69 5.23546 16.8627 4.8928 16.0001 4.8928C15.1376 4.8928 14.3103 5.23548 13.7002 5.84529C13.0901 6.45539 12.7474 7.28268 12.7474 8.14524C12.7485 9.00779 13.0915 9.83451 13.7013 10.444C14.3112 11.0539 15.1379 11.3968 16.0001 11.398ZM16.0001 5.88808C16.5989 5.88808 17.1729 6.1258 17.5963 6.54929C18.0196 6.9725 18.2576 7.54677 18.2576 8.14522C18.2576 8.74395 18.0196 9.31823 17.5963 9.74144C17.1729 10.1649 16.5989 10.4026 16.0001 10.4026C15.4014 10.4026 14.8274 10.1649 14.4039 9.74144C13.9807 9.31822 13.7427 8.74395 13.7427 8.14522C13.7438 7.54705 13.9821 6.97335 14.405 6.55036C14.8282 6.12714 15.4017 5.88919 16.0001 5.88808ZM31.5023 1.08692H30.0094V0.49764C30.0094 0.36573 29.9572 0.239102 29.8639 0.145794C29.7703 0.0524868 29.6439 0 29.5118 0H26.5259C26.2513 0 26.0283 0.222715 26.0283 0.49764V3.71424H24.2966L24.1374 3.16078V3.16106C24.0777 2.94695 23.8817 2.80005 23.6595 2.80282H22.3976C22.2557 2.80116 22.1202 2.86225 22.0275 2.97C21.9289 3.07747 21.8839 3.22354 21.9039 3.36795L21.9478 3.72619H10.1558L10.1956 3.36795C10.2128 3.22715 10.1683 3.08552 10.0739 2.97973C9.97951 2.87364 9.84398 2.81366 9.7018 2.81477H8.43602C8.21386 2.812 8.0178 2.9589 7.95809 3.17301L7.79897 3.72647H5.96751V0.49764C5.96751 0.36573 5.91503 0.239102 5.82172 0.145795C5.72841 0.0524872 5.60206 4.06788e-07 5.46987 4.06788e-07H2.48403C2.21077 0.00222201 1.99056 0.224379 1.99056 0.49764V1.08692H0.497639C0.222715 1.08692 0 1.30964 0 1.58456V6.83978V6.83951C0 6.97169 0.052208 7.09804 0.145517 7.19135C0.239102 7.28466 0.365459 7.33715 0.497639 7.33715H1.99056V7.92643C1.99056 8.05834 2.04277 8.18497 2.13608 8.27828C2.22966 8.37158 2.35602 8.42407 2.4882 8.42407H5.47404C5.60595 8.42407 5.73258 8.37158 5.82588 8.27828C5.91919 8.18497 5.97168 8.05833 5.97168 7.92643V4.70954H7.51237L5.89618 10.283L5.8959 10.2832C5.8498 10.4643 5.90812 10.6562 6.04725 10.7809L11.6646 16.0717V20.5943L8.62708 27.2349C8.57932 27.3535 8.57932 27.4862 8.62708 27.6051L11.7085 36.4908C11.7779 36.6908 11.9665 36.8249 12.1781 36.8252H13.7188C13.8582 36.8232 13.9903 36.7643 14.0845 36.6619C14.1786 36.5594 14.2264 36.4225 14.2164 36.2836L13.4599 28.0505L16 24.5432L18.6396 28.0545L17.8831 36.2833C17.8731 36.4235 17.922 36.5615 18.0178 36.6643C18.1138 36.767 18.2483 36.8251 18.3888 36.8248H19.9295C20.1411 36.8245 20.3296 36.6904 20.3991 36.4905L23.4804 27.6047C23.5282 27.4859 23.5282 27.3531 23.4804 27.2346L20.4349 20.5939V16.0713L26.0683 10.7805C26.2033 10.6514 26.2552 10.4581 26.2036 10.279L24.5874 4.70558H26.0286V7.92218H26.0283C26.0283 8.05409 26.0808 8.18072 26.1741 8.27402C26.2674 8.36733 26.3941 8.41982 26.526 8.41982H29.5118C29.644 8.41982 29.7703 8.36733 29.8639 8.27402C29.9572 8.18072 30.0094 8.05408 30.0094 7.92218V7.33678H31.5024C31.6345 7.33678 31.7609 7.2843 31.8545 7.19099C31.9478 7.09768 32 6.97133 32 6.83914V1.58421C32 1.45202 31.9478 1.32567 31.8545 1.23236C31.7609 1.13906 31.6345 1.08657 31.5024 1.08657L31.5023 1.08692ZM0.99558 6.34186V2.08995H1.99086V6.34989L0.99558 6.34186ZM4.9767 7.42878H2.98614V0.995287H4.9767V7.42878ZM10.0286 4.70953H22.0516L22.4498 8.09746L22.585 9.42708L18.5481 11.4176L16.048 12.2419L13.5359 11.4099L9.50308 9.41933L10.0286 4.70953ZM25.1568 10.283L19.5831 15.4946C19.4843 15.589 19.4282 15.7198 19.4279 15.8567V20.7017C19.4282 20.7731 19.4432 20.8436 19.4718 20.9089L22.4696 27.4699L19.5831 35.8302H18.9422L19.6667 27.9675C19.6842 27.842 19.6545 27.7142 19.5831 27.6093L16.3984 23.4093C16.3034 23.2849 16.1565 23.2113 16.0002 23.2102C15.843 23.2119 15.6955 23.2869 15.6019 23.4132L12.5287 27.6132C12.4492 27.7137 12.4095 27.8398 12.4173 27.9675L13.1418 35.8423H12.5167L9.63024 27.4699L12.6161 20.9092C12.6447 20.8439 12.6597 20.7734 12.66 20.702V15.857C12.66 15.7201 12.6039 15.5893 12.5047 15.4949L6.9313 10.2635L8.83413 3.79842H9.16459L8.47589 9.65458C8.45146 9.86313 8.5617 10.0645 8.75054 10.1561L13.1299 12.3058L13.1935 12.3335L15.8569 13.2375C15.9044 13.2444 15.9528 13.2444 16.0002 13.2375H16.0758C16.1285 13.2377 16.181 13.2297 16.231 13.2136L18.8944 12.3296L18.958 12.3019L23.3374 10.1522C23.5296 10.0647 23.6448 9.8645 23.624 9.65456L23.4529 7.97446L22.9592 3.7984H23.2858L25.1568 10.283ZM29.0066 7.44847H27.016V0.995287H29.0066V7.44847ZM30.9971 6.36155H30.0019V2.08995H30.9971V6.36155Z" fill="#46D7CB"/>
</svg>
