<svg width="40" height="17" viewBox="0 0 40 17" fill="none" xmlns="http://www.w3.org/2000/svg">
<path d="M28.5996 1.81032C30.6318 1.26578 32.7207 2.47181 33.2653 4.50406C33.8098 6.53631 32.6038 8.62521 30.5715 9.16975L23.2121 11.1417C21.1798 11.6862 19.0909 10.4802 18.5464 8.44797C18.0019 6.41572 19.2079 4.32681 21.2401 3.78227L28.5996 1.81032Z" fill="white"/>
<path fill-rule="evenodd" clip-rule="evenodd" d="M22.8177 9.66982L30.1771 7.69787C31.3965 7.37114 32.1201 6.1178 31.7934 4.89845C31.4667 3.6791 30.2133 2.95548 28.994 3.28221L21.6345 5.25416C20.4152 5.58088 19.6916 6.83423 20.0183 8.05358C20.345 9.27293 21.5984 9.99655 22.8177 9.66982ZM33.2653 4.50406C32.7207 2.47181 30.6318 1.26578 28.5996 1.81032L21.2401 3.78227C19.2079 4.32681 18.0019 6.41572 18.5464 8.44797C19.0909 10.4802 21.1798 11.6862 23.2121 11.1417L30.5715 9.16975C32.6038 8.62521 33.8098 6.53631 33.2653 4.50406Z" fill="#46D7CB"/>
<path d="M18.4104 4.42505C20.5604 3.65177 22.523 5.08883 23.0675 7.12108C23.6121 9.15333 22.5816 11.1952 20.3823 11.7845L4.50337 14.8561C3.51926 15.1198 1.65987 15.0264 0.989217 13.0369C0.525993 10.7947 2.13889 9.96815 3.123 9.70446L18.4104 4.42505Z" fill="white"/>
<path fill-rule="evenodd" clip-rule="evenodd" d="M4.50337 14.8561L20.3823 11.7845C22.5816 11.1952 23.6121 9.15333 23.0675 7.12108C22.523 5.08883 20.5604 3.65177 18.4104 4.42505L3.123 9.70446C2.13889 9.96815 0.525995 10.7947 0.989217 13.0369C1.65987 15.0264 3.51926 15.1198 4.50337 14.8561ZM2.46384 12.6354C2.40973 12.3205 2.43224 12.1135 2.46516 11.9847C2.50044 11.8467 2.562 11.7414 2.64552 11.6487C2.83763 11.4354 3.16863 11.2698 3.51739 11.1764L3.56946 11.1624L18.917 5.86222L18.9261 5.85893C20.0294 5.46212 21.2206 6.11589 21.5956 7.51547C21.9316 8.76924 21.3401 9.92675 20.0345 10.2997L4.16105 13.3702L4.10898 13.3842C3.84731 13.4543 3.46025 13.4699 3.13969 13.3558C2.9051 13.2723 2.64426 13.1057 2.46384 12.6354Z" fill="#46D7CB"/>
<path d="M27.9569 6.92199C27.4543 5.99783 27.7961 4.84124 28.7202 4.33866C29.6444 3.83609 30.801 4.17785 31.3035 5.102L34.9435 11.7953C35.4461 12.7195 35.1043 13.8761 34.1802 14.3786C33.256 14.8812 32.0994 14.5395 31.5968 13.6153L27.9569 6.92199Z" fill="white"/>
<path fill-rule="evenodd" clip-rule="evenodd" d="M33.6048 12.5233L29.9649 5.83C29.8643 5.64517 29.633 5.57681 29.4482 5.67733C29.2634 5.77784 29.195 6.00916 29.2955 6.19399L32.9355 12.8873C33.036 13.0721 33.2673 13.1405 33.4522 13.04C33.637 12.9395 33.7053 12.7081 33.6048 12.5233ZM28.7202 4.33866C27.7961 4.84124 27.4543 5.99783 27.9569 6.92199L31.5968 13.6153C32.0994 14.5395 33.256 14.8812 34.1802 14.3786C35.1043 13.8761 35.4461 12.7195 34.9435 11.7953L31.3035 5.102C30.801 4.17785 29.6444 3.83609 28.7202 4.33866Z" fill="#46D7CB"/>
<path d="M39.9996 3.2381C39.9996 5.02645 38.5499 6.47619 36.7615 6.47619C34.9732 6.47619 33.5234 5.02645 33.5234 3.2381C33.5234 1.44974 34.9732 0 36.7615 0C38.5499 0 39.9996 1.44974 39.9996 3.2381Z" fill="white"/>
<path fill-rule="evenodd" clip-rule="evenodd" d="M36.7615 4.95238C37.7083 4.95238 38.4758 4.18487 38.4758 3.2381C38.4758 2.29132 37.7083 1.52381 36.7615 1.52381C35.8148 1.52381 35.0472 2.29132 35.0472 3.2381C35.0472 4.18487 35.8148 4.95238 36.7615 4.95238ZM36.7615 6.47619C38.5499 6.47619 39.9996 5.02645 39.9996 3.2381C39.9996 1.44974 38.5499 0 36.7615 0C34.9732 0 33.5234 1.44974 33.5234 3.2381C33.5234 5.02645 34.9732 6.47619 36.7615 6.47619Z" fill="#46D7CB"/>
</svg>
