<svg width="20" height="25" viewBox="0 0 20 25" fill="none" xmlns="http://www.w3.org/2000/svg">
<path d="M12.1879 11.2072C12.2869 11.3002 12.3877 11.3879 12.4904 11.4702C13.2843 12.107 14.1324 12.3805 14.9404 12.4238C16.3005 12.4966 17.5105 11.8896 18.0023 11.6429C18.0579 11.615 18.1043 11.5918 18.1407 11.5746C18.7555 11.2846 19.0187 10.5511 18.7288 9.93634C18.4387 9.32158 17.7053 9.05832 17.0905 9.34834C17.0231 9.38016 16.9547 9.41314 16.8853 9.44668C16.3412 9.70932 15.7361 10.0014 15.0721 9.96575C14.7486 9.94846 14.4002 9.84655 14.0305 9.55006C13.6457 9.24145 13.1862 8.67918 12.7418 7.65981C12.3816 6.83367 11.8455 6.19349 11.0837 5.83023C10.3535 5.48211 9.57674 5.46716 8.88456 5.54931C7.02938 5.76955 5.61974 6.8453 4.66092 7.8443C3.87151 8.66688 3.28247 9.55923 2.99368 9.99683C2.93491 10.0859 2.88851 10.1561 2.85546 10.203C2.46408 10.7588 2.59731 11.5266 3.153 11.918C3.70875 12.3094 4.47655 12.1762 4.86793 11.6204C4.93673 11.5228 5.01242 11.4089 5.09673 11.2822C5.40442 10.8193 5.82589 10.1854 6.43684 9.54877C6.91812 9.04724 7.45695 8.61358 8.05036 8.32854C7.91307 8.70663 7.75725 9.13635 7.59947 9.57277C7.14434 10.8318 6.63714 12.2441 6.55536 12.5267C6.48071 12.7848 6.50367 13.0055 6.52096 13.1156C6.54047 13.2399 6.57333 13.345 6.59967 13.4187C6.65228 13.5657 6.72188 13.7045 6.78311 13.8168C6.90883 14.0476 7.08095 14.3141 7.26618 14.5846C7.64169 15.1328 8.14734 15.8069 8.64887 16.4587C9.09182 17.0343 9.54289 17.6072 9.91403 18.0785L10.0627 18.2673C10.2619 18.5205 10.4285 18.7328 10.5511 18.8921C10.6064 18.9638 10.644 19.0138 10.6682 19.0462C10.692 19.128 10.7223 19.2466 10.7585 19.4023C10.8304 19.7117 10.9133 20.1145 11.0007 20.5568C11.0568 20.8412 11.1153 21.1443 11.173 21.444C11.2896 22.0487 11.4036 22.6398 11.4909 23.0347C11.6376 23.6984 12.2946 24.1175 12.9582 23.9708C13.6219 23.824 14.0411 23.167 13.8944 22.5033C13.8141 22.1403 13.712 21.6107 13.6003 21.031C13.5409 20.7222 13.4786 20.3992 13.4155 20.0797C13.3273 19.633 13.2378 19.1966 13.1561 18.845C13.1155 18.6701 13.0736 18.5026 13.0318 18.3591C13.0016 18.255 12.938 18.0396 12.8309 17.8524C12.7544 17.7189 12.607 17.5274 12.5072 17.3977L12.5016 17.3905C12.3697 17.2191 12.1951 16.9967 11.9971 16.7451L11.8474 16.555C11.4757 16.083 11.0335 15.5213 10.5997 14.9576C10.552 14.8956 10.5045 14.8338 10.4574 14.7722L12.1879 11.2072Z" stroke="#46D7CB" stroke-linecap="round" stroke-linejoin="round"/>
<path d="M7.83487 18.6648L6.07815 16.2229L5.57311 17.6747L2.5126 16.9554C1.85088 16.7999 1.18843 17.2103 1.03292 17.8719C0.877409 18.5336 1.28775 19.1962 1.94946 19.3517L6.08954 20.3246C6.70313 20.4688 7.32645 20.1262 7.53358 19.5309L7.83487 18.6648Z" stroke="#46D7CB" stroke-linecap="round" stroke-linejoin="round"/>
<path d="M14.8464 5.42302C16.1421 5.42302 17.1926 4.37266 17.1926 3.07689C17.1926 1.78115 16.1421 0.730755 14.8464 0.730755C13.5507 0.730755 12.5003 1.78116 12.5003 3.07689C12.5003 4.37265 13.5507 5.42302 14.8464 5.42302ZM17.4233 3.07689C17.4233 4.50005 16.2696 5.65378 14.8464 5.65378C13.4233 5.65378 12.2695 4.50005 12.2695 3.07689C12.2695 1.65372 13.4233 0.5 14.8464 0.5C16.2696 0.5 17.4233 1.65372 17.4233 3.07689Z" fill="#2B2F3B" stroke="#46D7CB"/>
</svg>
