<svg width="24" height="24" viewBox="0 0 24 24" fill="none" xmlns="http://www.w3.org/2000/svg">
<path d="M23.9725 0.596427C24.0223 0.45992 24.0018 0.308332 23.9191 0.189683C23.8362 0.0706333 23.7001 0 23.5552 0H22.1943C22.0086 0 21.8419 0.116469 21.7774 0.291072L20.5783 3.55557H15.5552C14.9245 3.55557 14.4308 4.03771 14.4308 4.65378C14.4308 5.27341 14.9348 5.77779 15.5552 5.77779H19.9344L18.5086 17.6558L6.92568 13.5709C6.77151 13.5225 6.61496 13.4838 6.45722 13.4501V7.99488H8.88876C9.5092 7.99488 10.0136 7.49051 10.0136 6.87087C10.0136 6.5415 9.87886 5.96192 8.97628 5.7816C6.90604 5.36732 4.09853 4.88377 3.00042 4.88377C1.98354 4.88377 0.903007 5.51173 0.903007 6.67526C0.903007 7.26909 1.51192 7.99488 2.22262 7.99488H4.23592V13.443C1.81968 13.9511 0 16.0974 0 18.6615C0 21.4887 2.18392 23.8008 4.99325 23.9786C5.0369 23.9925 5.08313 24 5.12976 24H18.3335C20.0486 24 21.4446 22.604 21.4446 20.8889C21.4446 20.0488 21.1496 19.323 20.6105 18.7689L22.2131 5.4361L23.9725 0.596427ZM1.79096 6.6759C1.79096 6.0136 2.5136 5.7733 2.99949 5.7733C3.96695 5.7733 6.6106 6.21556 8.80112 6.65325C9.12414 6.71812 9.12414 6.79948 9.12414 6.87111C9.12414 7.00087 9.01838 7.10622 8.88823 7.10622L2.22158 7.10603C2.03229 7.10603 1.79083 6.81456 1.79083 6.67586L1.79096 6.6759ZM15.3193 4.65371C15.3193 4.51641 15.4375 4.44439 15.5548 4.44439H20.8881C21.0744 4.44439 21.2411 4.32792 21.305 4.15331L22.5046 0.888815H22.9206L21.4659 4.8888H15.5545C15.4248 4.8888 15.319 4.78345 15.319 4.65369L15.3193 4.65371ZM21.2758 5.77772L19.7878 18.1556C19.6552 18.0854 19.5132 18.024 19.3663 17.9667L20.8296 5.77778L21.2758 5.77772ZM5.12403 7.99557H5.56847V13.3375C5.4899 13.3339 5.41153 13.3286 5.33296 13.3286C5.26232 13.3286 5.19387 13.3365 5.12403 13.3393V7.99557ZM18.3329 23.1112H5.24542C5.21467 23.1027 5.18233 23.0983 5.14979 23.0969C2.76011 22.9993 0.88847 21.0513 0.88847 18.6618C0.88847 16.2112 2.88232 14.2174 5.3329 14.2174C5.78488 14.2174 6.23149 14.2855 6.6454 14.4142L18.689 18.6618C18.693 18.6632 18.698 18.665 18.7019 18.6662C18.7069 18.6684 18.7123 18.6698 18.7174 18.6716C18.7855 18.696 18.8575 18.7218 18.9392 18.7507C19.9815 19.1196 20.5557 19.8787 20.5557 20.889C20.5551 22.1144 19.5583 23.1112 18.3329 23.1112Z" fill="#46D7CB"/>
<path d="M16.889 19.1111C16.1539 19.1111 15.5557 19.7093 15.5557 20.4444C15.5557 21.1795 16.1539 21.7777 16.889 21.7777C17.6241 21.7777 18.2223 21.1795 18.2223 20.4444C18.2223 19.7093 17.6241 19.1111 16.889 19.1111ZM16.889 20.8889C16.6438 20.8889 16.4446 20.6896 16.4446 20.4444C16.4446 20.1992 16.6438 20 16.889 20C17.1342 20 17.3334 20.1992 17.3334 20.4444C17.3334 20.6896 17.1342 20.8889 16.889 20.8889Z" fill="#46D7CB"/>
<path d="M8.29673 20.0513L8.02788 20.366L7.62392 20.0233C7.86122 19.6249 8.00031 19.1614 8.00031 18.6646C8.00031 17.194 6.80427 15.9979 5.33365 15.9979C3.86303 15.9979 2.66699 17.194 2.66699 18.6646C2.66699 20.1352 3.86303 21.3312 5.33365 21.3312C5.98741 21.3312 6.58561 21.0939 7.05012 20.7023L7.45051 21.0417L7.16598 21.3747C7.00646 21.5614 7.02869 21.8417 7.21539 22.0013C7.29892 22.0723 7.4017 22.1074 7.50388 22.1074C7.62928 22.1074 7.75408 22.0544 7.84218 21.9515L8.97294 20.6278C9.13246 20.4411 9.11024 20.1608 8.92354 20.0013C8.73723 19.8427 8.45666 19.865 8.29673 20.0513ZM5.33365 20.4424C4.35328 20.4424 3.55587 19.6449 3.55587 18.6646C3.55587 17.6842 4.35328 16.8868 5.33365 16.8868C6.31401 16.8868 7.11142 17.6842 7.11142 18.6646C7.11142 18.9416 7.04217 19.2005 6.92868 19.4344L5.62074 18.3255C5.43364 18.1668 5.15329 18.1896 4.99456 18.3771C4.83583 18.5642 4.85905 18.8445 5.04615 19.0033L6.35586 20.114C6.06658 20.3191 5.715 20.4424 5.33365 20.4424Z" fill="#46D7CB"/>
</svg>
