<svg width="20" height="20" viewBox="0 0 20 20" fill="none" xmlns="http://www.w3.org/2000/svg">
<path fill-rule="evenodd" clip-rule="evenodd" d="M6.33333 6.70137H5.01737C4.0873 6.70137 3.33333 5.94742 3.33333 5.01737C3.33333 4.0873 4.0873 3.33333 5.01737 3.33333H7.48262C8.41271 3.33333 9.16667 4.0873 9.16667 5.01737C9.16667 6.09358 8.41342 6.81042 7.388 7.30496C7.02458 7.48021 6.65633 7.61125 6.33333 7.70692V6.70137ZM5.5 8.75C5.5 8.75 5.84012 8.70408 6.33333 8.57254C7.63417 8.22563 10 7.28325 10 5.01737C10 3.62706 8.87296 2.5 7.48262 2.5H5.01737C3.62706 2.5 2.5 3.62706 2.5 5.01737C2.5 6.40767 3.62706 7.53471 5.01737 7.53471H5.5V8.75ZM6.875 11.6667C6.875 12.1272 6.50225 12.5 6.04167 12.5C5.58108 12.5 5.20833 12.1272 5.20833 11.6667C5.20833 11.2061 5.58108 10.8333 6.04167 10.8333C6.50225 10.8333 6.875 11.2061 6.875 11.6667ZM6.04167 13.3333C6.9625 13.3333 7.70833 12.5875 7.70833 11.6667C7.70833 10.7458 6.9625 10 6.04167 10C5.12083 10 4.375 10.7458 4.375 11.6667C4.375 12.5875 5.12083 13.3333 6.04167 13.3333ZM3.33333 16.6667V15.9445C3.33332 15.9407 3.3333 15.932 3.34415 15.911C3.3574 15.8853 3.38805 15.8399 3.45355 15.7792C3.59078 15.652 3.82073 15.5132 4.13851 15.3854C4.77554 15.1292 5.55525 15 6.04167 15C6.52808 15 7.30779 15.1292 7.94483 15.3854C8.26258 15.5132 8.49254 15.652 8.62979 15.7792C8.69529 15.8399 8.72592 15.8853 8.73917 15.911C8.75004 15.932 8.75 15.9407 8.75 15.9445V16.6667H3.33333ZM2.5 15.9445C2.5 14.7622 4.85962 14.1667 6.04167 14.1667C7.22371 14.1667 9.58333 14.7622 9.58333 15.9445V17.5H2.5V15.9445ZM13.9583 12.5C14.4189 12.5 14.7917 12.1272 14.7917 11.6667C14.7917 11.2061 14.4189 10.8333 13.9583 10.8333C13.4977 10.8333 13.125 11.2061 13.125 11.6667C13.125 12.1272 13.4977 12.5 13.9583 12.5ZM15.625 11.6667C15.625 12.5875 14.8792 13.3333 13.9583 13.3333C13.0375 13.3333 12.2917 12.5875 12.2917 11.6667C12.2917 10.7458 13.0375 10 13.9583 10C14.8792 10 15.625 10.7458 15.625 11.6667ZM11.25 16.6667V15.9445C11.25 15.9407 11.25 15.932 11.2608 15.911C11.2741 15.8853 11.3047 15.8399 11.3702 15.7792C11.5075 15.652 11.7374 15.5132 12.0552 15.3854C12.6922 15.1292 13.4719 15 13.9583 15C14.4447 15 15.2245 15.1292 15.8615 15.3854C16.1792 15.5132 16.4092 15.652 16.5465 15.7792C16.612 15.8399 16.6426 15.8853 16.6558 15.911C16.6667 15.932 16.6667 15.9407 16.6667 15.9445V16.6667H11.25ZM10.4167 15.9445C10.4167 14.7622 12.7763 14.1667 13.9583 14.1667C15.1404 14.1667 17.5 14.7622 17.5 15.9445V17.5H10.4167V15.9445ZM14.9826 7.11804H14V8.08154C13.7572 7.994 13.4924 7.88171 13.2307 7.73975C12.3629 7.26892 11.6667 6.562 11.6667 5.43404C11.6667 4.50396 12.4206 3.75 13.3507 3.75H14.9826C15.9127 3.75 16.6667 4.50396 16.6667 5.43404C16.6667 6.36408 15.9127 7.11804 14.9826 7.11804ZM14 8.96075C14.4879 9.11421 14.8333 9.16667 14.8333 9.16667V7.95137H14.9826C16.373 7.95137 17.5 6.82433 17.5 5.43404C17.5 4.04373 16.373 2.91667 14.9826 2.91667H13.3507C11.9604 2.91667 10.8333 4.04373 10.8333 5.43404C10.8333 7.64067 12.8277 8.59212 14 8.96075Z" fill="#AE8B27"/>
</svg>
