<svg width="20" height="20" viewBox="0 0 20 20" fill="none" xmlns="http://www.w3.org/2000/svg">
<path fill-rule="evenodd" clip-rule="evenodd" d="M17.4753 3.10686L17.0638 3.04146L16.9558 2.63902L17.576 2.47266L17.4753 3.10686ZM11.9668 8.86954C11.612 9.088 11.6119 9.08788 11.6118 9.08779L11.6113 9.08692L11.6101 9.08492L11.606 9.07829L11.5918 9.05463C11.5798 9.03434 11.5627 9.00525 11.5415 8.96821C11.4991 8.89425 11.4403 8.7885 11.373 8.65863C11.2388 8.40004 11.0678 8.04075 10.9255 7.64396C10.7843 7.25071 10.6638 6.80025 10.6451 6.36434C10.6265 5.93021 10.7078 5.45896 11.0306 5.08988C11.3212 4.75763 11.8688 4.45259 12.4439 4.18804C13.0405 3.91367 13.742 3.65036 14.4067 3.42234C15.0728 3.19382 15.7095 2.9982 16.179 2.85983C16.414 2.79059 16.6076 2.73554 16.7427 2.69775C16.8103 2.67884 16.8632 2.66425 16.8995 2.65434L16.941 2.64302L16.9558 2.63902C16.9559 2.639 16.9558 2.63902 17.0638 3.04146C17.4753 3.10686 17.4753 3.10679 17.4753 3.10686L17.4728 3.12241L17.4657 3.16646C17.4594 3.20494 17.4501 3.26128 17.4381 3.33316C17.4141 3.47689 17.3791 3.68284 17.3348 3.93244C17.2462 4.43134 17.1204 5.10613 16.9718 5.80779C16.8234 6.50796 16.6508 7.24188 16.468 7.8565C16.3767 8.1635 16.2808 8.44763 16.1818 8.68596C16.0866 8.91475 15.9741 9.13763 15.8375 9.29379C15.5449 9.62842 15.0893 9.73292 14.6918 9.75954C14.2765 9.78734 13.817 9.73679 13.4029 9.664C12.985 9.5905 12.5934 9.49067 12.3078 9.40979C12.1645 9.36925 12.0467 9.33313 11.9642 9.307C11.9229 9.29392 11.8904 9.28334 11.8679 9.27588L11.8418 9.26713L11.8345 9.26471L11.8325 9.264L11.8318 9.26375C11.8318 9.26375 11.8315 9.26363 11.9668 8.86954ZM11.9668 8.86954L11.6118 9.08779L11.6903 9.21513L11.8318 9.26375L11.9668 8.86954ZM12.2465 8.52225C12.3198 8.54517 12.418 8.57492 12.5347 8.60796C12.8034 8.68404 13.166 8.77621 13.5472 8.84325C13.9322 8.91096 14.3169 8.94942 14.6362 8.92804C14.9732 8.9055 15.1425 8.82271 15.2103 8.74521C15.2539 8.69529 15.3246 8.57688 15.4123 8.36604C15.4959 8.16475 15.5823 7.911 15.6692 7.61896C15.8428 7.03542 16.01 6.32629 16.1565 5.635C16.3027 4.94521 16.4267 4.28 16.5143 3.7868C16.5245 3.72923 16.5342 3.67402 16.5434 3.62142C16.502 3.63347 16.4591 3.64606 16.4146 3.65918C15.9525 3.79533 15.3282 3.98721 14.6771 4.21059C14.0245 4.43446 13.3525 4.68742 12.7921 4.94517C12.2103 5.21271 11.8178 5.45559 11.6579 5.63846C11.5301 5.7845 11.464 6.009 11.4777 6.32871C11.4913 6.64667 11.5826 7.00817 11.7098 7.3625C11.8357 7.71325 11.9893 8.03713 12.1127 8.27484C12.1647 8.37513 12.2108 8.45913 12.2465 8.52225ZM4.27626 4.15592L4.1683 4.55838L3.7568 4.62375L3.65601 3.98956L4.27626 4.15592ZM8.31017 9.29438C8.66501 9.51279 8.66505 9.51271 8.66509 9.51259L8.66559 9.51179L8.66667 9.51004L8.67009 9.50442L8.68192 9.48467C8.69196 9.46784 8.70609 9.44379 8.72355 9.41334C8.75838 9.35242 8.80671 9.2655 8.86201 9.15892C8.97209 8.94684 9.11263 8.65154 9.22988 8.32479C9.34584 8.00159 9.44659 7.62717 9.46221 7.26192C9.47776 6.89842 9.4103 6.49238 9.12971 6.17154C8.88134 5.88754 8.4218 5.63384 7.95509 5.41917C7.46692 5.19463 6.89405 4.97971 6.35284 4.794C5.81009 4.60784 5.29163 4.44854 4.90934 4.33588C4.71801 4.2795 4.56034 4.23467 4.45021 4.20388C4.39517 4.18846 4.35201 4.17654 4.32242 4.16846L4.28846 4.15923L4.27626 4.15592C4.27617 4.15591 4.27626 4.15592 4.1683 4.55838C3.7568 4.62375 3.75679 4.62371 3.7568 4.62375L3.75884 4.63654L3.76466 4.67246C3.76976 4.70384 3.77729 4.74975 3.78707 4.80825C3.80661 4.92529 3.83514 5.09292 3.87119 5.29604C3.94325 5.70196 4.04563 6.25121 4.16667 6.8225C4.28746 7.39234 4.42821 7.991 4.57763 8.49338C4.65221 8.74425 4.73096 8.97796 4.81296 9.17513C4.89092 9.36271 4.9863 9.55367 5.10601 9.6905C5.36488 9.9865 5.76184 10.0735 6.09055 10.0955C6.43701 10.1187 6.81746 10.0765 7.15671 10.0168C7.49976 9.9565 7.82067 9.87463 8.05438 9.8085C8.17171 9.77529 8.26821 9.74571 8.33588 9.72425C8.36976 9.71354 8.39646 9.70479 8.41505 9.69867L8.43676 9.69142L8.4428 9.68938L8.44517 9.68854C8.44521 9.68854 8.44551 9.68842 8.31017 9.29438ZM8.31017 9.29438L8.66509 9.51259L8.58671 9.63992L8.44517 9.68854L8.31017 9.29438ZM8.03001 8.94679C8.05605 8.90009 8.08755 8.84213 8.12234 8.77509C8.22155 8.58392 8.34476 8.32404 8.44551 8.04329C8.54755 7.75904 8.61905 7.47363 8.62963 7.22629C8.6403 6.97721 8.58796 6.81792 8.50242 6.72013C8.38471 6.58554 8.08026 6.394 7.60688 6.17625C7.15492 5.96842 6.61163 5.76379 6.08242 5.58225C5.56221 5.40379 5.06296 5.25009 4.68984 5.13996C4.69046 5.14342 4.69109 5.14692 4.69171 5.15038C4.76276 5.55067 4.86338 6.09029 4.98192 6.64975C5.1008 7.21067 5.23621 7.78454 5.37638 8.25584C5.44655 8.49175 5.51588 8.69513 5.58242 8.85521C5.65296 9.02484 5.70651 9.11129 5.73326 9.14192C5.76726 9.18079 5.87805 9.24604 6.14621 9.264C6.39667 9.28075 6.70226 9.25063 7.01242 9.19609C7.31876 9.14221 7.61067 9.068 7.82742 9.00667C7.90659 8.98425 7.97517 8.96371 8.03001 8.94679ZM7.11734 12.9193C7.01171 12.9254 6.9598 12.9404 6.94696 12.9462C6.75805 13.0316 6.18463 13.2314 5.68967 13.4004C5.43538 13.4872 5.19163 13.5693 5.01155 13.6296C5.00767 13.6309 5.0038 13.6323 4.99996 13.6335V15.8847C5.07326 15.8818 5.15188 15.8788 5.23259 15.8758C5.57751 15.8633 5.98809 15.8511 6.16592 15.8582C6.91267 15.888 7.47321 16.0647 7.99251 16.2284L8.00355 16.2319C8.49026 16.3853 8.94109 16.5263 9.53167 16.5707C9.69851 16.5832 9.86021 16.5993 10.0115 16.6144L10.0135 16.6146C10.5947 16.6725 10.9771 16.702 11.2731 16.5945C11.5039 16.5107 12.3473 16.1197 13.1983 15.6916C13.619 15.48 14.0315 15.2644 14.3597 15.0798C14.5241 14.9873 14.6635 14.9047 14.7707 14.8358C14.8243 14.8013 14.867 14.7721 14.8993 14.7482C14.9153 14.7363 14.9275 14.7267 14.9363 14.7193C14.9455 14.7117 14.9488 14.7083 14.9482 14.709C14.9896 14.6668 15.0339 14.5205 14.9625 14.3824C14.9338 14.3268 14.8862 14.2755 14.8056 14.2406C14.7222 14.2046 14.5804 14.1768 14.3553 14.2137C13.8477 14.297 13.2418 14.5412 12.6364 14.7875L12.6276 14.791C12.3302 14.912 12.032 15.0334 11.7675 15.1216C11.5134 15.2063 11.2311 15.2819 10.9854 15.2672C10.6477 15.247 10.0556 15.1589 9.56746 15.08C9.31913 15.0399 9.09076 15.001 8.92451 14.9721C8.84138 14.9577 8.77363 14.9457 8.72663 14.9374L8.67234 14.9277L8.65334 14.9243L8.73209 14.0975L10.6369 14.1204C10.6378 14.1203 10.639 14.1202 10.6406 14.1201C10.6504 14.1192 10.6731 14.1165 10.7065 14.1078C10.7725 14.0909 10.8853 14.0499 11.0273 13.9494C11.0713 13.9182 11.1288 13.8607 11.1823 13.7835C11.2045 13.7515 11.2235 13.7198 11.2392 13.6897C10.9825 13.6752 10.7369 13.6324 10.5493 13.5918C10.4324 13.5665 10.3339 13.5411 10.264 13.5219C10.229 13.5123 10.201 13.5042 10.1812 13.4983C10.1759 13.4967 10.1711 13.4953 10.167 13.494L7.83488 12.9751C7.83005 12.9743 7.82263 12.973 7.81288 12.9714C7.79276 12.968 7.76284 12.9633 7.72567 12.9579C7.65084 12.9471 7.5488 12.9343 7.43851 12.9258C7.32696 12.9173 7.21471 12.9138 7.11734 12.9193ZM7.91692 12.5665L7.99267 12.1568L8.00009 12.1582L10.3823 12.6882L10.4 12.6938L10.4033 12.6948L10.4191 12.6996C10.4337 12.704 10.456 12.7105 10.4849 12.7184C10.5428 12.7343 10.6262 12.7558 10.7255 12.7773C10.928 12.8211 11.181 12.8615 11.4154 12.8615C11.65 12.8615 11.9049 12.9487 12.0423 13.1984C12.1598 13.4117 12.1309 13.6425 12.0896 13.7947C12.055 13.9223 11.9958 14.0538 11.9199 14.1776C12.0467 14.1277 12.181 14.0731 12.3223 14.0156L12.3484 14.005C12.9223 13.7715 13.6105 13.4914 14.2203 13.3914C14.9285 13.2752 15.4599 13.5294 15.7029 13.9999C15.917 14.4142 15.8693 14.9608 15.5424 15.2932C15.4605 15.3765 15.3386 15.4613 15.2215 15.5367C15.0951 15.618 14.9399 15.7095 14.7683 15.8061C14.4244 15.9995 13.9992 16.2216 13.5728 16.4361C12.7298 16.8601 11.8425 17.2743 11.5576 17.3778C11.0634 17.5573 10.4916 17.5 9.98363 17.4491C9.96596 17.4473 9.94838 17.4455 9.93084 17.4438C9.77755 17.4285 9.62509 17.4134 9.46921 17.4016C8.77755 17.3497 8.24734 17.1825 7.76313 17.0299L7.75301 17.0267C7.23184 16.8624 6.7628 16.716 6.13267 16.6908C5.99434 16.6853 5.62192 16.6955 5.26288 16.7086C5.08801 16.715 4.9228 16.7217 4.80121 16.7269C4.74046 16.7295 4.69071 16.7317 4.65613 16.7332L4.60263 16.7356L4.16663 16.7557V13.0325L4.53221 12.9112C4.58355 12.8941 4.6573 12.8695 4.74684 12.8395C4.92596 12.7795 5.16809 12.6979 5.42038 12.6118C5.93859 12.4348 6.46117 12.2513 6.60371 12.1869C6.75655 12.1178 6.93021 12.0953 7.06967 12.0873C7.21746 12.0789 7.36988 12.0848 7.5023 12.0949C7.63601 12.1052 7.75721 12.1205 7.84463 12.1331C7.88859 12.1394 7.92459 12.1452 7.95005 12.1494C7.96276 12.1515 7.97288 12.1533 7.98009 12.1545L7.98871 12.1561L7.9913 12.1565L7.99213 12.1567L7.99267 12.1568C7.99276 12.1568 7.99267 12.1568 7.91692 12.5665Z" fill="#8CA639"/>
<path fill-rule="evenodd" clip-rule="evenodd" d="M14.6461 5.51633C14.8208 5.66608 14.8411 5.92912 14.6913 6.10387C13.4495 7.55263 11.9034 9.67646 11.2207 11.4026C11.1361 11.6166 10.894 11.7215 10.6801 11.6368C10.4661 11.5522 10.3612 11.3101 10.4458 11.0961C11.1805 9.23825 12.8004 7.02946 14.0586 5.56154C14.2084 5.38679 14.4714 5.36658 14.6461 5.51633Z" fill="#8CA639"/>
<path fill-rule="evenodd" clip-rule="evenodd" d="M6.40872 6.85314C6.22801 6.9956 6.19701 7.2576 6.33947 7.43831C7.27393 8.6236 8.29351 10.141 8.7778 11.3993C8.86047 11.6141 9.10159 11.7212 9.31634 11.6385C9.53109 11.5558 9.63818 11.3148 9.55555 11.1C9.02563 9.72318 7.94368 8.12714 6.99388 6.92239C6.85143 6.74168 6.58943 6.71068 6.40872 6.85314Z" fill="#8CA639"/>
<path d="M2.5 12.084H5V17.5007H2.5V12.084Z" fill="#8CA639"/>
</svg>
