<svg width="20" height="20" viewBox="0 0 20 20" fill="none" xmlns="http://www.w3.org/2000/svg">
<path fill-rule="evenodd" clip-rule="evenodd" d="M7.73905 13.1057C7.87955 13.0685 8.0293 13.1071 8.13421 13.2078L9.48779 14.5061C9.60029 14.614 9.64313 14.7757 9.59884 14.9251L9.30329 15.9224C9.22954 16.1714 9.08009 16.3912 8.87567 16.5513L6.94105 18.0668C6.39759 18.4925 5.61192 18.3971 5.18621 17.8536C4.76046 17.3102 4.85592 16.5245 5.39938 16.0988L7.01975 14.8294L7.4463 13.3901C7.48759 13.2507 7.59855 13.143 7.73905 13.1057ZM8.05096 14.2826L7.78096 15.1937C7.75634 15.2767 7.70655 15.35 7.63838 15.4033L5.91325 16.7548C5.73213 16.8967 5.7003 17.1585 5.84221 17.3397C5.98413 17.5209 6.246 17.5527 6.42717 17.4108L8.3618 15.8953C8.42992 15.8419 8.47975 15.7686 8.50434 15.6856L8.72775 14.9318L8.05096 14.2826Z" fill="#0884A9"/>
<path fill-rule="evenodd" clip-rule="evenodd" d="M11.6666 4.99935C12.357 4.99935 12.9166 4.43972 12.9166 3.74935C12.9166 3.05899 12.357 2.49935 11.6666 2.49935C10.9763 2.49935 10.4166 3.05899 10.4166 3.74935C10.4166 4.43972 10.9763 4.99935 11.6666 4.99935ZM11.6666 5.83268C12.8172 5.83268 13.7499 4.89993 13.7499 3.74935C13.7499 2.59876 12.8172 1.66602 11.6666 1.66602C10.516 1.66602 9.58325 2.59876 9.58325 3.74935C9.58325 4.89993 10.516 5.83268 11.6666 5.83268Z" fill="#0884A9"/>
<path fill-rule="evenodd" clip-rule="evenodd" d="M9.05714 5.98575C9.6521 5.76463 10.2913 5.77763 10.8651 6.07434C11.411 6.35659 11.7807 6.8338 12.0133 7.33321C12.1003 7.52005 12.1807 7.69455 12.2559 7.85767C12.4391 8.25509 12.5896 8.5813 12.7331 8.86642C12.9358 9.26917 13.084 9.50509 13.2148 9.65755C13.327 9.78821 13.4236 9.8545 13.5475 9.90288C13.6938 9.96005 13.9324 10.0123 14.3569 10.025C14.9996 10.0443 15.505 10.581 15.4857 11.2237C15.4664 11.8664 14.9298 12.3718 14.2871 12.3525C13.7217 12.3355 13.1896 12.2629 12.7003 12.0718C12.1885 11.8719 11.7847 11.5665 11.4479 11.1741C11.408 11.1276 11.3691 11.08 11.3313 11.0315L11.1636 11.908L12.9832 13.7035C13.0991 13.8179 13.1898 13.9553 13.2492 14.1069L14.2843 16.7442C14.5193 17.3428 14.2245 18.0184 13.626 18.2533C13.0274 18.4883 12.3518 18.1935 12.1168 17.5949L11.1719 15.1875L7.89739 11.9564C7.6431 11.7055 7.51805 11.3517 7.55822 10.9968L7.6936 9.80071C7.32189 10.2815 7.00918 10.8593 6.79105 11.5428C6.59555 12.1553 5.94047 12.4934 5.32793 12.2979C4.71539 12.1024 4.37726 11.4473 4.57276 10.8348C5.30926 8.52725 6.97534 6.78946 9.04335 5.99096L9.0458 5.99L9.05714 5.98575ZM9.3486 6.76642L9.3423 6.76884C7.51618 7.47434 6.02822 9.01538 5.36668 11.0882C5.3111 11.2623 5.40718 11.4485 5.5813 11.504C5.75539 11.5596 5.9416 11.4635 5.99718 11.2894C6.41122 9.99209 7.13259 9.01088 7.9806 8.31825C8.11185 8.21109 8.29493 8.19405 8.44368 8.27517C8.59243 8.3563 8.67726 8.51946 8.65818 8.68784L8.3863 11.0905C8.37485 11.1913 8.41039 11.2919 8.48268 11.3632L11.8202 14.6564C11.8616 14.6973 11.8941 14.7465 11.9154 14.8008L12.8926 17.2905C12.9593 17.4606 13.1514 17.5444 13.3215 17.4776C13.4916 17.4108 13.5754 17.2188 13.5086 17.0487L12.4735 14.4113C12.4566 14.3683 12.4308 14.3292 12.3979 14.2967L10.4199 12.3449C10.3209 12.2473 10.2772 12.1066 10.3033 11.97L10.7119 9.83425C10.7452 9.66025 10.8848 9.52638 11.0601 9.50038C11.2353 9.47438 11.4077 9.562 11.4901 9.71884C11.6776 10.0759 11.8655 10.3812 12.0803 10.6314C12.3367 10.9302 12.6306 11.15 13.0035 11.2956C13.3701 11.4388 13.7972 11.5041 14.3121 11.5195C14.4947 11.525 14.6473 11.3814 14.6528 11.1987C14.6582 11.016 14.5146 10.8635 14.3319 10.858C13.8571 10.8438 13.5134 10.7843 13.2443 10.6791C12.9817 10.5765 12.7751 10.4248 12.5825 10.2003C12.3845 9.96967 12.2001 9.661 11.9887 9.241C11.8381 8.9418 11.6821 8.60334 11.5016 8.21184L11.4993 8.2068C11.424 8.04346 11.3441 7.87025 11.2578 7.685C11.0788 7.30046 10.8198 6.989 10.4823 6.81455C10.1375 6.63625 9.74514 6.61938 9.3486 6.76642Z" fill="#0884A9"/>
</svg>
