<svg width="32" height="32" viewBox="0 0 32 32" fill="none" xmlns="http://www.w3.org/2000/svg">
<path d="M0 16C0 7.16344 7.16344 0 16 0C24.8366 0 32 7.16344 32 16C32 24.8366 24.8366 32 16 32C7.16344 32 0 24.8366 0 16Z" fill="#FCD6C4"/>
<path fill-rule="evenodd" clip-rule="evenodd" d="M8.09461 11.0012C8.15715 12.1225 8.47629 12.8167 8.94367 13.2444C8.71547 13.4144 8.58317 13.6997 8.63174 14.0081C8.87023 15.5225 9.46646 18.7259 10.6887 22.3367C10.9316 23.0543 11.9018 23.0543 12.1447 22.3367C13.3669 18.7259 13.9632 15.5225 14.2017 14.0081C14.2502 13.6997 14.1179 13.4144 13.8897 13.2444C14.3571 12.8167 14.6762 12.1225 14.7388 11.0012C14.7516 10.7715 14.5629 10.5822 14.3328 10.5855C13.6544 10.5953 13.1156 10.6365 12.6953 10.7778C12.5218 10.3201 12.1715 9.88801 11.6443 9.49355C11.5096 9.39277 11.3237 9.39277 11.1891 9.49355C10.6662 9.8848 10.3173 10.3131 10.1424 10.7666C9.73417 10.6462 9.19966 10.5985 8.50169 10.5863C8.27161 10.5822 8.08179 10.7715 8.09461 11.0012ZM12.2004 11.8233L11.9161 11.0732C11.8373 10.8655 11.6834 10.6319 11.4167 10.3856C11.1527 10.6294 10.9993 10.8606 10.9199 11.0665L10.6434 11.7832L9.90663 11.5659C9.68927 11.5018 9.39248 11.459 8.97551 11.4362C9.09939 12.2396 9.39716 12.5792 9.66861 12.7547C10.0567 13.0057 10.6223 13.0821 11.4042 13.0829H11.4291C12.2111 13.0821 12.7766 13.0057 13.1648 12.7547C13.4365 12.579 13.7346 12.239 13.8582 11.4339C13.4541 11.4551 13.1705 11.4972 12.9608 11.5677L12.2004 11.8233ZM9.4609 13.9162H13.3725C13.2531 14.6693 13.0459 15.8326 12.7184 17.2496H11V18.0829H12.5187C12.2309 19.2422 11.8685 20.5339 11.4167 21.8871C11.2691 21.445 11.131 21.0094 11.002 20.5829H11.4166V19.7496H10.7577C10.3588 18.3437 10.0603 17.0612 9.84209 15.9996H11V15.1662H9.67809C9.58597 14.6762 9.51455 14.2548 9.4609 13.9162Z" fill="#A83440"/>
<path d="M21.9345 17.6785C22.1577 17.7344 22.2935 17.9606 22.2376 18.1838C21.992 19.1665 21.2504 19.908 20.2678 20.1537C20.0445 20.2095 19.8183 20.0738 19.7625 19.8505C19.7067 19.6273 19.8425 19.401 20.0657 19.3452C20.7498 19.1742 21.2582 18.6658 21.4292 17.9817C21.485 17.7585 21.7112 17.6228 21.9345 17.6785Z" fill="#A83440"/>
<path fill-rule="evenodd" clip-rule="evenodd" d="M19.6045 14.7624C19.1425 13.682 19.2226 12.5343 20.0446 11.7123L19.4554 11.123C18.4848 12.0936 18.3162 13.3636 18.6418 14.5305C16.7352 13.6679 14.75 15.2542 14.75 17.6677C14.75 19.9688 16.802 21.8343 19.3333 21.8343C21.8646 21.8343 23.9167 19.9688 23.9167 17.6677C23.9167 15.0759 21.6273 13.4381 19.6045 14.7624ZM19.3333 16.0265L18.8127 15.61C18.0386 14.9907 17.2759 15.0251 16.6983 15.3819C16.0877 15.759 15.5833 16.5666 15.5833 17.6677C15.5833 19.4356 17.1857 21.001 19.3333 21.001C21.4809 21.001 23.0833 19.4356 23.0833 17.6677C23.0833 16.5666 22.579 15.759 21.9683 15.3819C21.3907 15.0251 20.628 14.9907 19.8539 15.61L19.3333 16.0265Z" fill="#A83440"/>
<path d="M20.1667 13.4993C21.4167 13.4993 22.2501 12.666 22.2501 11.416C21.0001 11.416 20.1667 12.2493 20.1667 13.4993Z" fill="#A83440"/>
</svg>
