<svg width="48" height="48" viewBox="0 0 48 48" fill="none" xmlns="http://www.w3.org/2000/svg">
<path fill-rule="evenodd" clip-rule="evenodd" d="M5.02711 12.0041C5.17722 14.6952 5.94316 16.3611 7.06486 17.3877C6.51718 17.7956 6.19966 18.4803 6.31624 19.2206C6.8886 22.8552 8.31955 30.5432 11.2529 39.2091C11.8359 40.9315 14.1644 40.9315 14.7474 39.2091C17.6807 30.5432 19.1117 22.8552 19.6841 19.2206C19.8006 18.4803 19.4831 17.7956 18.9354 17.3876C20.0571 16.3611 20.823 14.6952 20.9731 12.0041C21.0039 11.4527 20.5509 10.9985 19.9987 11.0064C18.3706 11.0298 17.0775 11.1287 16.0687 11.4678C15.6523 10.3694 14.8116 9.33232 13.5464 8.38562C13.2232 8.14376 12.777 8.14376 12.4538 8.38562C11.1989 9.32463 10.3615 10.3525 9.94171 11.441C8.96207 11.1521 7.67924 11.0375 6.00412 11.0082C5.45192 10.9985 4.99635 11.4527 5.02711 12.0041ZM14.881 13.977L14.1986 12.1767C14.0096 11.6783 13.6403 11.1178 13.0001 10.5266C12.3666 11.1116 11.9984 11.6665 11.8077 12.1608L11.1443 13.8808L9.37596 13.3593C8.85431 13.2055 8.14201 13.1028 7.14128 13.0481C7.43859 14.9762 8.15323 15.7911 8.80471 16.2125C9.73623 16.8149 11.0935 16.9982 12.9702 17.0001H13.03C14.9068 16.9982 16.264 16.8149 17.1955 16.2125C17.8476 15.7907 18.563 14.9747 18.8598 13.0426C17.89 13.0934 17.2092 13.1944 16.706 13.3635L14.881 13.977ZM8.30621 19.0001H17.6941C17.4076 20.8075 16.9102 23.5993 16.1243 27.0001H12V29.0001H15.645C14.9543 31.7824 14.0845 34.8826 13.0001 38.1301C12.6459 37.0691 12.3145 36.0237 12.0048 35.0001H13V33.0001H11.4186C10.4611 29.6261 9.74472 26.5481 9.22106 24.0001H12V22.0001H8.82746C8.60639 20.8239 8.43498 19.8126 8.30621 19.0001Z" fill="#929CB0"/>
<path d="M38.2425 28.0298C38.7783 28.1638 39.1041 28.7067 38.9701 29.2425C38.3806 31.6008 36.6008 33.3805 34.2425 33.9701C33.7067 34.1041 33.1638 33.7783 33.0299 33.2425C32.8959 32.7067 33.2217 32.1638 33.7575 32.0298C35.3992 31.6194 36.6194 30.3991 37.0299 28.7574C37.1638 28.2216 37.7067 27.8959 38.2425 28.0298Z" fill="#929CB0"/>
<path fill-rule="evenodd" clip-rule="evenodd" d="M32.6508 21.0273C31.542 18.4344 31.7342 15.6799 33.7071 13.707L32.2929 12.2928C29.9635 14.6221 29.559 17.6702 30.3403 20.4707C25.7646 18.4005 21 22.2076 21 27.9999C21 33.5227 25.9249 37.9999 32 37.9999C38.0751 37.9999 43 33.5227 43 27.9999C43 21.7797 37.5055 17.8489 32.6508 21.0273ZM32 24.0611L30.7506 23.0616C28.8927 21.5752 27.0622 21.6578 25.676 22.514C24.2104 23.4192 23 25.3574 23 27.9999C23 32.243 26.8458 35.9999 32 35.9999C37.1542 35.9999 41 32.243 41 27.9999C41 25.3574 39.7896 23.4192 38.324 22.514C36.9378 21.6578 35.1073 21.5752 33.2494 23.0616L32 24.0611Z" fill="#929CB0"/>
<path d="M34 18C37 18 39 16 39 13C36 13 34 15 34 18Z" fill="#929CB0"/>
</svg>
