<svg width="20" height="20" viewBox="0 0 20 20" fill="none" xmlns="http://www.w3.org/2000/svg">
<path d="M14.468 10.625C14.468 10.9702 14.1822 11.25 13.8297 11.25C13.4772 11.25 13.1914 10.9702 13.1914 10.625C13.1914 10.2798 13.4772 10 13.8297 10C14.1822 10 14.468 10.2798 14.468 10.625Z" fill="#5B2FAE"/>
<path d="M7.23413 14.1673H8.93626V13.334H7.23413V14.1673Z" fill="#5B2FAE"/>
<path d="M8.93626 15.8333H7.23413V15H8.93626V15.8333Z" fill="#5B2FAE"/>
<path fill-rule="evenodd" clip-rule="evenodd" d="M11.3715 9.22672C11.5798 9.22672 11.6144 9.18881 11.6807 9.11614C11.7191 9.07406 11.7682 9.02027 11.8678 8.95547C12.1436 9.13185 12.4691 9.22431 12.8013 9.22064L13.8563 8.85481C14.1536 8.62127 14.3577 8.29747 14.4345 7.93772C14.5112 7.57793 14.4559 7.20393 14.2779 6.87835C14.0999 6.55272 13.8099 6.29531 13.4564 6.1491C13.3757 5.80077 13.1724 5.48918 12.8803 5.2661L11.8504 4.92268H11.7345C11.5054 4.60418 11.1615 4.37697 10.7681 4.28431L8.9856 4.16602C8.6186 4.19506 8.27252 4.34093 8.00306 4.58014C7.87573 4.55156 7.7454 4.53672 7.6146 4.53597C7.29785 4.5366 6.98806 4.62456 6.72264 4.78922C6.45723 4.95393 6.24748 5.18831 6.11877 5.46406L5.27985 6.03035C5.07106 6.29989 4.95869 6.62618 4.95923 6.96118C4.95719 7.10122 4.97673 7.24085 5.01723 7.37552C4.7971 7.64764 4.67877 7.9821 4.68094 8.32568C4.68044 8.72418 4.84019 9.10772 5.1274 9.39743C5.15056 9.68272 5.25519 9.95656 5.42994 10.1893C5.60469 10.422 5.8429 10.6047 6.11877 10.7178C6.43669 10.9076 6.7059 11.1631 6.90656 11.4652C7.10723 11.7673 7.19002 12.1084 7.2341 12.4634H8.9856V10.8061C8.98523 10.5119 9.0714 10.2234 9.23431 9.97343C9.25906 9.93547 9.28215 9.89864 9.30448 9.86302C9.42927 9.66393 9.5306 9.50222 9.76556 9.39189C10.0251 9.29727 10.2589 9.14806 10.4497 8.95547C10.7214 9.13218 11.0426 9.22672 11.3715 9.22672ZM12.0113 8.04956L12.3332 8.25543C12.4347 8.32035 12.5516 8.36256 12.6744 8.37822L13.4112 8.12272C13.5084 8.0201 13.5734 7.89627 13.6014 7.76497C13.637 7.59781 13.6118 7.42331 13.5276 7.26935C13.4431 7.11489 13.3027 6.98781 13.1252 6.91435L12.723 6.74797L12.6264 6.33106C12.5981 6.20893 12.5359 6.09393 12.4442 5.99868L11.7095 5.75364H11.2929L11.0386 5.40014C10.9415 5.2651 10.7974 5.16089 10.6264 5.10777L9.00223 5.00002C8.8399 5.02297 8.69094 5.09202 8.57469 5.19518L8.24565 5.48731L7.81273 5.39002C7.74735 5.37535 7.68035 5.3676 7.61298 5.36697C7.45677 5.36789 7.30581 5.4116 7.17819 5.49081C7.0499 5.57039 6.95194 5.68147 6.89285 5.8081L6.79523 6.01727L5.8974 6.62331C5.83969 6.72722 5.8101 6.84193 5.81031 6.95747V6.96414L5.81023 6.97085C5.8094 7.02702 5.81723 7.08318 5.8336 7.13768L5.95823 7.55193L5.68444 7.89047C5.58315 8.01568 5.53102 8.16627 5.53202 8.31814V8.32127V8.32439C5.53177 8.50264 5.60302 8.67843 5.73806 8.81464L5.95148 9.02993L5.97577 9.32897C5.98627 9.45822 6.03373 9.58427 6.1156 9.69327C6.1976 9.80252 6.3116 9.89106 6.44719 9.9466L6.50685 9.97102L6.56202 10.004C6.68856 10.0796 6.80948 10.163 6.9241 10.2537C7.07194 10.3671 7.25635 10.5336 7.4951 10.832C7.7451 11.1445 7.88185 11.4938 7.91898 11.6295H8.13673V11.2649C8.13673 11.2285 8.13594 11.1849 8.13502 11.1361C8.13056 10.8967 8.12369 10.5288 8.19823 10.2395C8.28798 9.89118 8.47252 9.55102 8.70356 9.22714C8.9346 8.90327 9.28369 8.67702 9.41498 8.62818C9.54631 8.57935 9.67927 8.52889 9.80894 8.40193C9.91264 8.30039 10.2001 8.00806 10.3309 7.8746C10.4788 7.97172 10.8026 8.18418 10.9143 8.2571C11.026 8.33002 11.1736 8.37102 11.2335 8.38243C11.2495 8.36939 11.3 8.33002 11.3731 8.2766C11.4462 8.22322 11.7338 8.03627 11.8684 7.94947L12.0113 8.04956Z" fill="#5B2FAE"/>
<path fill-rule="evenodd" clip-rule="evenodd" d="M16.8999 10.5691C16.8999 10.5691 18.0049 11.5425 17.8591 12.3234C17.7134 13.1043 16.2745 13.3194 16.2745 13.3194C16.2745 16.4747 13.1972 16.2738 11.6614 15.9771C11.1506 15.8784 10.8103 15.7691 10.8103 15.7691V16.362C10.8103 16.362 10.7783 16.4614 10.6796 16.6012C10.4452 16.9333 9.83439 17.4938 8.38173 17.4938C7.40973 17.5692 5.74602 16.9462 5.30502 16.0678V13.381C3.75076 12.2435 2.55322 10.7112 2.55322 8.72488C2.55322 7.07396 3.25685 5.49063 4.50931 4.32325C5.76177 3.15584 7.46048 2.50001 9.23173 2.50001C10.5843 2.49858 11.9209 2.77284 13.1478 3.30358C14.1146 3.68309 14.9611 4.28704 15.6066 5.05788C16.1961 5.86763 16.5229 6.81854 16.5477 7.79683C16.5531 8.02163 16.5499 8.23479 16.5467 8.44104C16.5358 9.16921 16.5261 9.81059 16.8999 10.5691ZM16.2061 11.079L16.1334 10.9313C15.6631 9.97683 15.6798 9.09113 15.6941 8.34075C15.6975 8.15779 15.7009 7.98292 15.6969 7.817C15.6764 7.01713 15.4121 6.23583 14.9301 5.56442C14.38 4.91508 13.6589 4.402 12.8311 4.07708L12.8174 4.07169L12.8038 4.06584C11.6865 3.58249 10.4675 3.33203 9.23264 3.33334H9.23173C7.67302 3.33334 6.1861 3.91086 5.0961 4.92683C4.00752 5.94146 3.40429 7.30858 3.40429 8.72488C3.40429 10.3427 4.37081 11.657 5.81452 12.7135L6.1561 12.9635V15.826C6.29831 15.9913 6.57385 16.1971 6.98798 16.3761C7.49573 16.5956 8.0106 16.6867 8.31456 16.6631L8.3481 16.6605H8.38173C9.24481 16.6605 9.65194 16.4282 9.82744 16.286C9.88789 16.237 9.93039 16.191 9.95923 16.1545V14.6188L11.0743 14.9769L11.0749 14.9771L11.0755 14.9773L11.0819 14.9793C11.089 14.9814 11.101 14.9851 11.1176 14.99C11.1506 14.9998 11.2018 15.0144 11.2684 15.0321C11.4018 15.0677 11.5954 15.115 11.8286 15.16C12.3022 15.2513 12.9055 15.3264 13.4872 15.2894C14.0783 15.2518 14.5527 15.105 14.8692 14.8413C15.1538 14.6042 15.4234 14.1792 15.4234 13.3194V12.6036L16.1431 12.496L16.1476 12.4953C16.1531 12.4944 16.1631 12.4927 16.1771 12.49C16.2052 12.4848 16.2486 12.4761 16.3023 12.4634C16.4121 12.4375 16.5527 12.3979 16.69 12.3429C16.8326 12.2858 16.936 12.2261 16.9973 12.1749C17.0066 12.167 17.0138 12.1605 17.0193 12.155C17.0159 12.1328 17.0068 12.093 16.9818 12.0324C16.9351 11.9193 16.8545 11.7872 16.7504 11.6495C16.6487 11.5152 16.5404 11.3964 16.456 11.3102C16.4144 11.2677 16.3802 11.2348 16.3576 11.2135C16.3464 11.203 16.3381 11.1954 16.3334 11.1911L16.3306 11.1886L16.3301 11.1882L16.3297 11.1878L16.3291 11.1873L16.2061 11.079ZM17.0347 12.1376C17.0348 12.1376 17.0346 12.1378 17.0344 12.1382L17.0336 12.1393C17.0343 12.1382 17.0347 12.1376 17.0347 12.1376Z" fill="#5B2FAE"/>
</svg>
