<svg width="20" height="20" viewBox="0 0 20 20" fill="none" xmlns="http://www.w3.org/2000/svg">
<path fill-rule="evenodd" clip-rule="evenodd" d="M7.02749 3.7919C5.04847 5.14257 3.75008 7.41601 3.75008 9.99138C3.75008 14.1335 7.10795 17.4914 11.2501 17.4914C12.5094 17.4914 13.6957 17.1814 14.7374 16.6333C9.99202 16.2856 6.25008 12.3255 6.25008 7.49138C6.25008 6.17558 6.52772 4.92368 7.02749 3.7919ZM7.78652 2.4097C4.91308 3.72451 2.91675 6.62481 2.91675 9.99138C2.91675 14.5938 6.64771 18.3247 11.2501 18.3247C13.1519 18.3247 14.9049 17.6877 16.3073 16.6153C16.3711 16.5665 16.4341 16.5169 16.4964 16.4663C16.6128 16.3719 16.7266 16.2744 16.8377 16.1739C16.8769 16.1385 16.9156 16.1028 16.9541 16.0667C17.104 15.9259 16.9664 15.6835 16.7634 15.7165C16.7233 15.723 16.683 15.7292 16.6427 15.7352C16.4957 15.7568 16.3475 15.7747 16.1982 15.7886C16.1285 15.795 16.0585 15.8007 15.9883 15.8054C15.7995 15.8182 15.6089 15.8247 15.4167 15.8247C10.8144 15.8247 7.08341 12.0938 7.08341 7.49138C7.08341 5.86813 7.54754 4.35327 8.35032 3.07227C8.3882 3.01182 8.42684 2.95189 8.46622 2.89249C8.54902 2.76761 8.6351 2.64508 8.72432 2.52504C8.74846 2.49257 8.77283 2.46028 8.79742 2.42817C8.92251 2.26489 8.77386 2.02945 8.57901 2.09534C8.52931 2.11214 8.47982 2.12941 8.43054 2.14712C8.28871 2.19811 8.14866 2.25284 8.0105 2.31118C7.93527 2.34295 7.86061 2.3758 7.78652 2.4097Z" fill="#2F53B3"/>
<path fill-rule="evenodd" clip-rule="evenodd" d="M17.011 6.05562L16.0418 2.91732L15.0727 6.05562L13.1977 6.94845L15.0809 7.84524L16.0418 10.5907L17.0028 7.84524L18.886 6.94845L17.011 6.05562ZM15.761 6.65083L16.0418 5.74149L16.3227 6.65083L16.9477 6.94845L16.3309 7.24216L16.0418 8.06812L15.7528 7.24216L15.136 6.94845L15.761 6.65083Z" fill="#2F53B3"/>
<path d="M12.0834 11.2507L12.5001 9.58398L12.9167 11.2507L14.1667 11.6673L12.9167 12.084L12.5001 13.7507L12.0834 12.084L10.8334 11.6673L12.0834 11.2507Z" fill="#2F53B3"/>
<path d="M10.0001 5.00065L10.4167 3.33398L10.8334 5.00065L12.0834 5.41732L10.8334 5.83398L10.4167 7.50065L10.0001 5.83398L8.75008 5.41732L10.0001 5.00065Z" fill="#2F53B3"/>
</svg>
