<svg width="36" height="36" viewBox="0 0 36 36" fill="none" xmlns="http://www.w3.org/2000/svg">
<path d="M18 0C8.0589 0 0 8.05884 0 18C0 27.9411 8.0589 36 18 36C27.9411 36 36 27.9411 36 18C36 16.2016 35.7363 14.4649 35.2454 12.8263L33.3293 13.4012C33.7656 14.8577 34 16.4014 34 18C34 26.8365 26.8366 34 18 34C9.1634 34 2 26.8365 2 18C2 9.16344 9.1634 2 18 2V0Z" fill="#8F9BB3"/>
<path d="M12.164 9.3177C11.8879 8.8394 12.0518 8.2278 12.5301 7.9517L15.1986 6.411C15.5266 6.2217 15.9335 6.2339 16.2495 6.4426C16.5656 6.6513 16.7367 7.0206 16.6914 7.3967L16.2395 11.147L17.5095 10.4138C17.9878 10.1376 18.5994 10.3015 18.8756 10.7798C19.1517 11.2581 18.9878 11.8697 18.5095 12.1458L15.5075 13.8791C15.1795 14.0685 14.7726 14.0563 14.4565 13.8476C14.1404 13.6389 13.9694 13.2695 14.0147 12.8934L14.4665 9.1431L13.5301 9.6838C13.0518 9.9599 12.4402 9.796 12.164 9.3177Z" fill="#8F9BB3"/>
<path d="M20.5244 2.06938C19.9909 2.21232 19.6743 2.76066 19.8172 3.29413C19.9602 3.82759 20.5085 4.14419 21.042 4.00119L22.9738 3.4836L20.9251 8.58779C20.784 8.93929 20.8536 9.34039 21.1049 9.62379C21.3562 9.90719 21.7461 10.0242 22.1119 9.92619L26.4586 8.76149C26.9921 8.61859 27.3087 8.07019 27.1657 7.53679C27.0228 7.00329 26.4744 6.68669 25.941 6.82969L23.5262 7.47669L25.5749 2.37253C25.716 2.02102 25.6464 1.61996 25.3951 1.33656C25.1438 1.05316 24.7539 0.936071 24.3881 1.03411L20.5244 2.06938Z" fill="#8F9BB3"/>
<path d="M29.5556 1C29.5556 0.44771 30.0033 0 30.5556 0H35C35.3635 0 35.6984 0.19727 35.8746 0.51523C36.0509 0.83318 36.0407 1.22173 35.848 1.52999L31.8042 8.00004H35C35.5523 8.00004 36 8.44774 36 9.00004C36 9.55224 35.5523 10 35 10H30C29.6365 10 29.3016 9.80274 29.1254 9.48474C28.9491 9.16684 28.9593 8.77824 29.152 8.47004L33.1958 2H30.5556C30.0033 2 29.5556 1.55228 29.5556 1Z" fill="#8F9BB3"/>
<path d="M8.40389 22.6486C7.63089 22.4029 6.96429 21.849 6.88839 21.1056C6.87319 20.9568 6.92549 20.8089 7.03089 20.7027C7.13629 20.5965 7.28369 20.543 7.43259 20.557C9.36369 20.7385 11.2142 19.8091 12.5076 17.6976C12.5968 17.5521 12.7541 17.462 12.9248 17.4589C13.0955 17.4558 13.256 17.54 13.3505 17.6822C13.7526 18.2875 13.7926 19.2391 13.503 20.107C13.2033 21.0054 12.5269 21.9023 11.371 22.4025C10.2592 22.8835 9.21159 22.9054 8.40389 22.6486Z" fill="#8F9BB3"/>
<path d="M25.7393 18.0036C26.2859 17.4043 26.5862 16.5914 26.2802 15.9096C26.2189 15.7731 26.0998 15.6712 25.9554 15.6319C25.811 15.5926 25.6566 15.62 25.5346 15.7066C23.953 16.8293 21.8858 16.9497 19.7099 15.7678C19.5598 15.6863 19.3786 15.687 19.2292 15.7697C19.0798 15.8523 18.9829 16.0055 18.9722 16.1759C18.9266 16.9012 19.3677 17.7452 20.0525 18.3521C20.7612 18.9803 21.7955 19.4188 23.0466 19.274C24.25 19.1347 25.1682 18.6299 25.7393 18.0036Z" fill="#8F9BB3"/>
<path fill-rule="evenodd" clip-rule="evenodd" d="M26.4478 25.8549C24.1969 22.7707 20.8611 21.1402 17.7407 21.9763C14.6203 22.8124 12.5467 25.8924 12.1395 29.6888C12.0249 30.7577 13.0627 31.512 14.1011 31.2338L25.5215 28.1737C26.5599 27.8954 27.0815 26.7233 26.4478 25.8549ZM18.2584 23.9082C20.1517 23.4009 22.4733 24.214 24.3471 26.4178L14.2402 29.1259C14.7611 26.2805 16.3651 24.4155 18.2584 23.9082Z" fill="#8F9BB3"/>
</svg>
