<svg width="48" height="48" viewBox="0 0 48 48" fill="none" xmlns="http://www.w3.org/2000/svg">
<path fill-rule="evenodd" clip-rule="evenodd" d="M18.5739 31.4528C18.9111 31.3634 19.2705 31.4562 19.5223 31.6977L22.7709 34.8136C23.0409 35.0726 23.1437 35.4607 23.0374 35.8194L22.3281 38.2129C22.1511 38.8104 21.7924 39.3379 21.3018 39.7222L16.6587 43.3594C15.3544 44.3811 13.4688 44.1521 12.4471 42.8478C11.4253 41.5435 11.6544 39.6578 12.9587 38.6361L16.8476 35.5896L17.8713 32.1353C17.9704 31.8008 18.2367 31.5422 18.5739 31.4528ZM19.3225 34.2773L18.6745 36.464C18.6154 36.6632 18.4959 36.839 18.3323 36.9671L14.192 40.2105C13.7573 40.5511 13.6809 41.1796 14.0215 41.6144C14.3621 42.0492 14.9906 42.1255 15.4254 41.785L20.0685 38.1477C20.232 38.0196 20.3516 37.8438 20.4106 37.6446L20.9468 35.8353L19.3225 34.2773Z" fill="#929CB0"/>
<path fill-rule="evenodd" clip-rule="evenodd" d="M28 12C29.6569 12 31 10.6569 31 9C31 7.34315 29.6569 6 28 6C26.3432 6 25 7.34315 25 9C25 10.6569 26.3432 12 28 12ZM28 14C30.7614 14 33 11.7614 33 9C33 6.23858 30.7614 4 28 4C25.2386 4 23 6.23858 23 9C23 11.7614 25.2386 14 28 14Z" fill="#929CB0"/>
<path fill-rule="evenodd" clip-rule="evenodd" d="M21.7368 14.3642C23.1647 13.8335 24.6987 13.8647 26.0759 14.5768C27.3861 15.2542 28.2734 16.3995 28.8315 17.5981C29.0404 18.0465 29.2334 18.4653 29.4139 18.8568C29.8536 19.8106 30.2147 20.5935 30.5591 21.2778C31.0455 22.2444 31.4012 22.8106 31.7152 23.1765C31.9844 23.4901 32.2164 23.6492 32.5136 23.7653C32.8648 23.9025 33.4375 24.028 34.4562 24.0585C35.9987 24.1048 37.2116 25.3927 37.1654 26.9352C37.1191 28.4777 35.8312 29.6907 34.2887 29.6444C32.9318 29.6037 31.6546 29.4294 30.4805 28.9708C29.252 28.4909 28.283 27.758 27.4747 26.8163C27.3788 26.7046 27.2856 26.5904 27.1948 26.474L26.7923 28.5777L31.1594 32.8869C31.4375 33.1614 31.6551 33.4911 31.7978 33.8549L34.2821 40.1845C34.8459 41.621 34.1385 43.2425 32.702 43.8064C31.2654 44.3702 29.6439 43.6627 29.0801 42.2262L26.8123 36.4485L18.9534 28.6938C18.3431 28.0916 18.043 27.2425 18.1394 26.3906L18.4643 23.5201C17.5722 24.674 16.8217 26.0606 16.2982 27.701C15.829 29.1712 14.2568 29.9826 12.7867 29.5134C11.3166 29.0442 10.5051 27.472 10.9743 26.0019C12.7419 20.4638 16.7405 16.2931 21.7037 14.3767L21.7096 14.3744L21.7368 14.3642ZM22.4363 16.2378L22.4212 16.2436C18.0385 17.9368 14.4674 21.6353 12.8797 26.61C12.7463 27.0279 12.9769 27.4747 13.3948 27.6081C13.8126 27.7414 14.2595 27.5108 14.3929 27.0929C15.3866 23.9794 17.1179 21.6245 19.1531 19.9622C19.4681 19.705 19.9075 19.6641 20.2645 19.8588C20.6215 20.0535 20.8251 20.4451 20.7793 20.8492L20.1268 26.6155C20.0993 26.8576 20.1846 27.099 20.3581 27.2701L28.3681 35.1737C28.4676 35.2721 28.5455 35.3901 28.5966 35.5203L30.9418 41.4956C31.102 41.9039 31.563 42.1049 31.9712 41.9446C32.3796 41.7844 32.5806 41.3235 32.4204 40.9152L29.9361 34.5856C29.8955 34.4823 29.8337 34.3884 29.7546 34.3104L25.0074 29.6262C24.7698 29.3918 24.6649 29.0543 24.7276 28.7265L25.7083 23.6006C25.7882 23.183 26.1233 22.8617 26.5438 22.7993C26.9643 22.7369 27.3782 22.9472 27.5759 23.3236C28.0259 24.1806 28.4769 24.9132 28.9923 25.5137C29.6078 26.2308 30.3131 26.7583 31.2081 27.1078C32.0879 27.4515 33.113 27.6083 34.3486 27.6453C34.787 27.6585 35.1531 27.3137 35.1663 26.8753C35.1794 26.4369 34.8347 26.0708 34.3962 26.0576C33.2568 26.0235 32.4319 25.8806 31.786 25.6283C31.1558 25.3821 30.66 25.0178 30.1976 24.4792C29.7224 23.9256 29.2798 23.1848 28.7725 22.1768C28.4111 21.4587 28.0366 20.6464 27.6035 19.7068L27.5979 19.6947C27.4172 19.3027 27.2256 18.887 27.0185 18.4424C26.5887 17.5195 25.9671 16.772 25.1573 16.3533C24.3296 15.9254 23.388 15.8849 22.4363 16.2378Z" fill="#929CB0"/>
</svg>
