<svg width="27" height="34" viewBox="0 0 27 34" fill="none" xmlns="http://www.w3.org/2000/svg">
<path fill-rule="evenodd" clip-rule="evenodd" d="M13.5 32C19.4692 32 24.25 27.5913 24.25 22.2189C24.25 17.7549 21.4033 12.6476 18.297 8.46754C16.7744 6.41862 15.2485 4.66951 14.1024 3.43238C13.887 3.19987 13.6853 2.98578 13.5 2.79154C13.3146 2.98578 13.113 3.19987 12.8975 3.43238C11.7515 4.66951 10.2255 6.41862 8.70299 8.46754C5.59669 12.6476 2.75 17.7549 2.75 22.2189C2.75 27.5913 7.53079 32 13.5 32ZM12.2814 1.55839C9.13048 4.84074 0.958328 14.1331 0.958328 22.2189C0.958328 28.5414 6.57341 33.6667 13.5 33.6667C20.4266 33.6667 26.0417 28.5414 26.0417 22.2189C26.0417 14.1331 17.8695 4.84074 14.7186 1.55839C13.9661 0.774482 13.5 0.333374 13.5 0.333374C13.5 0.333374 13.0339 0.774482 12.2814 1.55839Z" fill="#929CB0"/>
</svg>
