<svg width="24" height="24" viewBox="0 0 24 24" fill="none" xmlns="http://www.w3.org/2000/svg">
<path fill-rule="evenodd" clip-rule="evenodd" d="M16 10.667H13.3333V8.00033C13.3333 7.26699 12.7333 6.66699 12 6.66699C11.2666 6.66699 10.6666 7.26699 10.6666 8.00033V10.667H7.99996C7.26663 10.667 6.66663 11.267 6.66663 12.0003C6.66663 12.7337 7.26663 13.3337 7.99996 13.3337H10.6666V16.0003C10.6666 16.7337 11.2666 17.3337 12 17.3337C12.7333 17.3337 13.3333 16.7337 13.3333 16.0003V13.3337H16C16.7333 13.3337 17.3333 12.7337 17.3333 12.0003C17.3333 11.267 16.7333 10.667 16 10.667ZM21.3333 20.0003C21.3333 20.735 20.736 21.3337 20 21.3337H3.99996C3.26396 21.3337 2.66663 20.735 2.66663 20.0003V4.00033C2.66663 3.26566 3.26396 2.66699 3.99996 2.66699H20C20.736 2.66699 21.3333 3.26566 21.3333 4.00033V20.0003ZM20 0H4C1.79467 0 0 1.79467 0 4V20C0 22.2053 1.79467 24 4 24H20C22.2053 24 24 22.2053 24 20V4C24 1.79467 22.2053 0 20 0Z" fill="#0BAECA"/>
</svg>
