<svg width="24" height="24" viewBox="0 0 24 24" fill="none" xmlns="http://www.w3.org/2000/svg">
<path fill-rule="evenodd" clip-rule="evenodd" d="M7.20081 6.16698C7.43861 5.45359 8.09333 5.27734 8.40206 5.27734H13.1888C13.4192 5.27734 13.6389 5.3042 13.8376 5.42838C14.0237 5.54469 14.1432 5.71978 14.2407 5.86614C14.2509 5.88142 14.2601 5.89738 14.2681 5.9139L15.9068 9.28227L18.0715 7.9834C18.0805 7.97804 18.0896 7.97302 18.099 7.96835C18.4814 7.77712 18.8594 7.73827 19.1931 7.85891C19.5219 7.97779 19.7489 8.23054 19.8746 8.50879C20.1134 9.03765 20.038 9.81567 19.4137 10.2059C19.411 10.2075 19.4084 10.2091 19.4057 10.2107L16.1505 12.1435C15.7656 12.3831 15.3769 12.4779 15.0183 12.3964C14.6545 12.3138 14.3964 12.0662 14.2503 11.774C14.2489 11.7711 14.2474 11.7682 14.2461 11.7653L13.9323 11.0985L13.6454 12.3416L16.6923 14.6268C16.6979 14.631 16.7034 14.6353 16.7087 14.6398C17.1002 14.966 17.2763 15.3718 17.2352 15.7826C17.1961 16.1731 16.9675 16.4981 16.6923 16.7045C16.6858 16.7094 16.6791 16.7141 16.6722 16.7187L11.8854 19.8759C11.8782 19.8807 11.8708 19.8852 11.8633 19.8895C11.4408 20.1309 11.0234 20.2098 10.6495 20.1217C10.274 20.0332 9.99297 19.7873 9.83494 19.4805C9.52138 18.8718 9.68765 18.0329 10.4213 17.5643L13.4902 15.5475L11.4646 14.0807L10.3162 17.5259C10.2973 17.5826 10.2661 17.6345 10.2249 17.6778L6.25292 21.8535C6.24651 21.8603 6.23988 21.8668 6.23302 21.873C5.88304 22.1939 5.51648 22.3748 5.15585 22.3918C4.78406 22.4094 4.46979 22.2491 4.26471 21.9927C3.86975 21.499 3.90731 20.7105 4.44121 20.1707L7.93207 16.3806L10.2158 7.72165H9.31264L8.38352 10.6949C8.38166 10.7008 8.37966 10.7067 8.37753 10.7126C8.24421 11.0792 8.01021 11.3444 7.70924 11.4807C7.41322 11.6148 7.09296 11.6056 6.819 11.5017C6.27072 11.2937 5.85663 10.6818 6.07662 9.94757C6.07667 9.9474 6.07673 9.94723 6.07678 9.94706L7.1968 6.17971C7.19807 6.17545 7.1994 6.1712 7.20081 6.16698ZM7.97564 6.41911L6.85747 10.1802L6.85719 10.1812C6.77199 10.4652 6.91799 10.6678 7.10796 10.7399C7.2032 10.776 7.29669 10.7731 7.37304 10.7385C7.44346 10.7066 7.53876 10.6298 7.60886 10.4421L8.62429 7.19276C8.67744 7.02268 8.83495 6.90688 9.01313 6.90688H10.7445C10.8709 6.90688 10.9901 6.96553 11.0672 7.06563C11.1444 7.16574 11.1707 7.29597 11.1384 7.41816L8.69412 16.6862C8.67719 16.7504 8.64483 16.8094 8.59986 16.8583L5.03524 20.7284C5.03146 20.7325 5.0276 20.7366 5.02365 20.7405C4.7488 21.0154 4.78821 21.3428 4.90093 21.4837C4.95046 21.5457 5.01812 21.5827 5.11736 21.578C5.22638 21.5728 5.4165 21.5133 5.6726 21.2814L9.57199 17.1821L10.8673 13.2962C10.9083 13.1731 11.0055 13.0769 11.129 13.0372C11.2525 12.9975 11.3876 13.019 11.4927 13.0951L14.4462 15.2339C14.5547 15.3124 14.6176 15.4392 14.6146 15.5731C14.6115 15.7069 14.5429 15.8307 14.431 15.9043L10.8664 18.2467L10.8614 18.25C10.477 18.4946 10.4404 18.8766 10.5593 19.1074C10.6176 19.2207 10.7122 19.2994 10.8364 19.3287C10.9606 19.3579 11.1634 19.3484 11.4483 19.1882L16.2121 16.0461C16.3391 15.9477 16.4129 15.8176 16.4245 15.7015C16.4342 15.6042 16.4073 15.4522 16.1945 15.2719L12.9444 12.8343C12.8154 12.7376 12.7556 12.5739 12.7919 12.4168L13.403 9.76882C13.442 9.59965 13.584 9.47381 13.7566 9.45535C13.9292 9.43689 14.0946 9.52987 14.1685 9.68696L14.981 11.4134C15.0384 11.5261 15.1155 11.583 15.1989 11.6019C15.2873 11.622 15.4572 11.616 15.7228 11.45C15.7239 11.4493 15.7251 11.4486 15.7263 11.4479C15.7278 11.447 15.7292 11.4461 15.7307 11.4452L18.9851 9.51294C19.1731 9.39267 19.249 9.10311 19.132 8.84414C19.0795 8.72773 19.001 8.65585 18.916 8.62514C18.8375 8.59674 18.6974 8.58333 18.4764 8.69067L15.9446 10.2098C15.8466 10.2685 15.7285 10.2835 15.619 10.2509C15.5095 10.2184 15.4186 10.1414 15.3687 10.0386L13.5478 6.29569C13.4535 6.15616 13.4225 6.12977 13.4058 6.11931L13.4055 6.11912C13.3995 6.11534 13.3628 6.09211 13.1888 6.09211H8.40206C8.36759 6.09211 8.27592 6.10585 8.18396 6.15925C8.10231 6.20666 8.0223 6.28343 7.97564 6.41911Z" fill="#46D7CB"/>
<path fill-rule="evenodd" clip-rule="evenodd" d="M15.124 4.25908C15.7989 4.25908 16.3461 3.7119 16.3461 3.03692C16.3461 2.36195 15.7989 1.81477 15.124 1.81477C14.449 1.81477 13.9018 2.36195 13.9018 3.03692C13.9018 3.7119 14.449 4.25908 15.124 4.25908ZM15.124 5.07385C16.2489 5.07385 17.1609 4.16189 17.1609 3.03692C17.1609 1.91196 16.2489 1 15.124 1C13.999 1 13.087 1.91196 13.087 3.03692C13.087 4.16189 13.999 5.07385 15.124 5.07385Z" fill="#46D7CB"/>
</svg>
