<svg width="44" height="44" viewBox="0 0 44 44" fill="none" xmlns="http://www.w3.org/2000/svg">
<path fill-rule="evenodd" clip-rule="evenodd" d="M21.8181 14.8338L17.2565 19.4141C14.7179 21.9609 14.684 26.1328 17.1772 28.7146C18.3777 29.9594 19.9806 30.6524 21.6886 30.6664H21.6909C23.4001 30.6792 25.0147 30.0131 26.235 28.7881C28.7713 26.246 28.8052 22.0752 26.3109 19.4911L21.8181 14.8338ZM21.67 32.9997C19.3285 32.9799 17.1375 32.0337 15.4984 30.3351C12.1279 26.8445 12.1734 21.2084 15.5999 17.7703L21.005 12.3442C21.2266 12.1225 21.5276 11.9977 21.8415 12C22.1553 12.0035 22.4539 12.133 22.6709 12.357L27.9909 17.8718C31.3601 21.3636 31.3146 27.0008 27.8882 30.4354C26.2211 32.1084 24.0138 33.0184 21.6723 32.9997H21.67Z" fill="#46D7CB"/>
</svg>
