<svg width="44" height="44" viewBox="0 0 44 44" fill="none" xmlns="http://www.w3.org/2000/svg">
<path fill-rule="evenodd" clip-rule="evenodd" d="M26.4813 14.6845C26.4813 14.3064 26.7877 14 27.1658 14H29.9037C30.2818 14 30.5882 14.3064 30.5882 14.6845V16.0535H32.6417C33.0198 16.0535 33.3262 16.3599 33.3262 16.738V20.8449H35.3797V22.2139H33.3262V26.3209C33.3262 26.6989 33.0198 27.0053 32.6417 27.0053H30.5882V28.3743C30.5882 28.7524 30.2818 29.0588 29.9037 29.0588H27.1658C26.7877 29.0588 26.4813 28.7524 26.4813 28.3743V22.2139H16.8984V28.3743C16.8984 28.7524 16.5919 29.0588 16.2139 29.0588H13.4759C13.0979 29.0588 12.7914 28.7524 12.7914 28.3743V27.0053H10.738C10.3599 27.0053 10.0535 26.6989 10.0535 26.3209V22.2139H8V20.8449H10.0535V16.738C10.0535 16.3599 10.3599 16.0535 10.738 16.0535H12.7914V14.6845C12.7914 14.3064 13.0979 14 13.4759 14H16.2139C16.5919 14 16.8984 14.3064 16.8984 14.6845V20.8449H26.4813V14.6845ZM14.1604 27.6898H15.5294V15.369H14.1604V27.6898ZM12.7914 17.4225H11.4225V25.6364H12.7914V17.4225ZM30.5882 25.6364V17.4225H31.9572V25.6364H30.5882ZM29.2193 15.369V27.6898H27.8503V15.369H29.2193Z" fill="#46D7CB"/>
</svg>
