<svg width="44" height="44" viewBox="0 0 44 44" fill="none" xmlns="http://www.w3.org/2000/svg">
<path fill-rule="evenodd" clip-rule="evenodd" d="M14.7326 12C15.1371 12 15.4651 12.328 15.4651 12.7326V32.2674C15.4651 32.672 15.1371 33 14.7326 33C14.328 33 14 32.672 14 32.2674V12.7326C14 12.328 14.328 12 14.7326 12Z" fill="#46D7CB"/>
<path fill-rule="evenodd" clip-rule="evenodd" d="M14 12.7326C14 12.328 14.328 12 14.7326 12H28.4958C28.7774 12 29.034 12.1614 29.156 12.4152C29.278 12.669 29.2437 12.9703 29.0678 13.1902L25.8652 17.1935L29.0882 21.6252C29.2503 21.848 29.2736 22.1429 29.1486 22.3884C29.0235 22.634 28.7713 22.7886 28.4958 22.7886H15.1765C14.772 22.7886 14.444 22.4606 14.444 22.056C14.444 21.6514 14.772 21.3235 15.1765 21.3235H27.0572L24.3515 17.6032C24.1574 17.3362 24.1657 16.9724 24.3719 16.7147L26.9716 13.4651H14.7326C14.328 13.4651 14 13.1371 14 12.7326Z" fill="#46D7CB"/>
</svg>
