<svg width="44" height="44" viewBox="0 0 44 44" fill="none" xmlns="http://www.w3.org/2000/svg">
<path d="M33.9913 17.7287C33.9066 15.9985 33.196 14.358 31.9907 13.1096C31.5002 12.6003 30.9354 12.1711 30.3139 11.8349C29.3856 11.2889 28.3258 11.0004 27.2477 11.0004C26.7483 11.0004 26.2518 11.0628 25.7725 11.1855C24.9285 11.3976 24.119 11.8045 23.4358 12.362C23.3333 12.4395 23.2332 12.5237 23.1368 12.613C22.7184 12.9491 22.3427 13.3317 22.0154 13.7515C21.617 13.2416 21.1467 12.7871 20.6134 12.4024L20.3361 12.1862C20.2812 12.1409 20.2339 12.1082 20.2029 12.0875C19.1851 11.376 17.9925 11 16.7518 11C15.7869 11 14.8617 11.2229 14.0019 11.6624C13.2594 12.0164 12.5952 12.4922 12.0275 13.0767C10.8185 14.3202 10.102 15.9576 10.01 17.6872C9.91612 19.4563 10.4835 21.1143 11.6079 22.3564C13.5161 24.4637 19.2374 30.0041 21.0005 31.51L21.9712 32.339L22.9448 31.5135C24.7141 30.0135 30.4582 24.4919 32.3753 22.3918C33.5042 21.1535 34.0782 19.4976 33.9914 17.7285L33.9913 17.7287ZM31.267 21.3806C29.3482 23.4831 23.6288 28.9669 21.9745 30.3694C20.609 29.203 16.4679 25.2288 14.0003 22.6993H18.5123L19.7979 21.0213L22.1905 26.2355L24.7211 22.6994H26.5014C26.9155 22.6994 27.2514 22.3638 27.2514 21.9495C27.2514 21.5354 26.9155 21.1996 26.5014 21.1996H23.95L22.4755 23.2601L20.1224 18.1318L17.772 21.1994H12.5914C10.9647 19.2353 11.176 16.1049 13.1036 14.1223C13.5485 13.6641 14.072 13.2898 14.6585 13.0116L14.678 13.0018C15.3259 12.6694 16.0229 12.5004 16.7518 12.5004C17.7163 12.5004 18.6202 12.8064 19.3618 13.3302C19.3701 13.3357 19.3801 13.3412 19.3883 13.3498L19.7143 13.6039C20.8255 14.3975 21.6316 15.6267 21.9073 17.0558C21.9157 17.0976 21.924 17.141 21.931 17.1844C21.9619 17.366 21.9842 17.5476 21.9982 17.7333C22.0082 17.8745 22.0137 18.1607 22.0137 18.1607C22.0137 18.1607 22.0194 17.8744 22.0292 17.7333C22.043 17.5474 22.064 17.3632 22.0964 17.1844C22.1033 17.141 22.1119 17.0992 22.1202 17.0558C22.3805 15.7105 23.1096 14.5426 24.1201 13.7478C24.1999 13.671 24.281 13.6025 24.3621 13.5426C24.8757 13.118 25.4831 12.8051 26.145 12.6388C26.4989 12.5481 26.8684 12.5004 27.2478 12.5004C28.0665 12.5004 28.8684 12.721 29.5696 13.1373L29.5948 13.1512C30.0818 13.4139 30.5255 13.7505 30.9116 14.1514C32.8821 16.1923 33.0404 19.4363 31.2672 21.3806L31.267 21.3806Z" fill="#46D7CB"/>
</svg>
