<svg width="44" height="44" viewBox="0 0 44 44" fill="none" xmlns="http://www.w3.org/2000/svg">
<path fill-rule="evenodd" clip-rule="evenodd" d="M22 15.8C22.9941 15.8 23.8 14.9941 23.8 14C23.8 13.0059 22.9941 12.2 22 12.2C21.0059 12.2 20.2 13.0059 20.2 14C20.2 14.9941 21.0059 15.8 22 15.8ZM22 17C23.6568 17 25 15.6568 25 14C25 12.3431 23.6568 11 22 11C20.3432 11 19 12.3431 19 14C19 15.6568 20.3432 17 22 17Z" fill="#46D7CB"/>
<path fill-rule="evenodd" clip-rule="evenodd" d="M18.4663 19.7432C18.9694 19.8359 19.3334 20.2616 19.3334 20.7573V31.4516C19.3334 31.7367 19.5722 31.9678 19.8668 31.9678H19.913C20.1889 31.9678 20.4192 31.7642 20.4442 31.4984L20.9334 26.2905C20.9349 25.7215 21.412 25.2609 22 25.2609C22.5879 25.2609 23.065 25.7214 23.0666 26.2904L23.5558 31.4984C23.5808 31.7642 23.8111 31.9678 24.0869 31.9678H24.1332C24.4277 31.9678 24.6665 31.7367 24.6665 31.4516V20.7767C24.6665 20.281 25.0307 19.8553 25.5339 19.7627C26.4704 19.5903 27.4606 19.3512 28.5489 19.0442C28.8317 18.9645 28.9941 18.678 28.9117 18.4043C28.8293 18.1307 28.5332 17.9735 28.2504 18.0532C25.779 18.7503 23.8829 19.0729 22.0023 19.0647C20.1197 19.0565 18.2213 18.7169 15.7429 18.0514C15.4591 17.9752 15.1652 18.1361 15.0864 18.4108C15.0077 18.6854 15.1739 18.9699 15.4578 19.046C16.542 19.3372 17.5301 19.5708 18.4663 19.7432ZM21.4549 31.8658C21.2664 32.5251 20.6428 33 19.913 33H19.8668C18.9831 33 18.2668 32.3068 18.2668 31.4516V20.7573C17.2931 20.5779 16.2751 20.3368 15.1725 20.0407C14.3211 19.8121 13.8224 18.9588 14.0587 18.1347C14.2949 17.3108 15.1766 16.8281 16.0281 17.0568C18.465 17.7112 20.2599 18.0249 22.007 18.0325C23.7486 18.04 25.5365 17.7435 27.952 17.0622C28.8003 16.823 29.6884 17.2946 29.9357 18.1155C30.1829 18.9365 29.6956 19.796 28.8473 20.0352C27.7358 20.3487 26.7115 20.5967 25.7331 20.7767V31.4516C25.7331 32.3068 25.0168 33 24.1332 33H24.0869C23.3571 33 22.7335 32.5251 22.5451 31.8658C22.5278 31.8052 22.5141 31.7431 22.5044 31.6796C22.5 31.6507 22.4963 31.6213 22.4936 31.5918L22.0044 26.3839C22.0015 26.3536 22.0001 26.3234 22 26.2932C21.9999 26.3234 21.9984 26.3536 21.9956 26.3839L21.5064 31.5918C21.5036 31.6213 21.5 31.6507 21.4956 31.6796C21.4858 31.7431 21.4722 31.8052 21.4549 31.8658Z" fill="#46D7CB"/>
</svg>
