<svg width="24" height="24" viewBox="0 0 24 24" fill="none" xmlns="http://www.w3.org/2000/svg">
<path d="M9.94673 22.9986C9.66106 22.9986 9.43371 22.7712 9.43371 22.4856C9.43371 22.2318 9.6188 22.0254 9.85678 21.978V19.2861C9.85678 19.0004 10.0841 18.7731 10.3698 18.7731C10.502 18.7731 10.5707 18.6779 10.5707 18.498V16.5043C10.5707 16.335 10.4597 16.1976 10.3221 16.1976H8.25445C8.11705 16.1976 8.00585 16.335 8.00585 16.5043V18.498C8.00585 18.6831 8.07455 18.7731 8.20676 18.7731C8.49242 18.7731 8.71977 19.0004 8.71977 19.2861V21.978C8.96294 22.0202 9.14284 22.2318 9.14284 22.4856C9.14284 22.7712 8.91549 22.9986 8.62982 22.9986C8.04291 22.9986 7.69376 22.6496 7.69376 22.0679V19.6934C7.26006 19.4977 6.97986 19.0536 6.97986 18.4983V16.5046C6.97986 15.7694 7.55095 15.1719 8.25426 15.1719H10.3219C11.0252 15.1719 11.5963 15.7694 11.5963 16.5046V18.4983C11.5963 19.0536 11.3161 19.4979 10.8824 19.6934V22.0679C10.8881 22.6549 10.5337 22.9986 9.94683 22.9986H9.94673Z" fill="#222B45"/>
<path d="M9.29092 14.9184C8.45542 14.9184 7.77313 14.2361 7.77313 13.4006C7.77313 12.5651 8.45542 11.8828 9.29092 11.8828C10.1264 11.8828 10.8033 12.5651 10.8033 13.4006C10.8087 14.2415 10.1264 14.9184 9.29092 14.9184ZM9.29092 12.914C9.02131 12.914 8.79915 13.1362 8.79915 13.4058C8.79915 13.6754 9.02131 13.8975 9.29092 13.8975C9.56053 13.8975 9.78269 13.6754 9.78269 13.4058C9.78269 13.1362 9.56053 12.914 9.29092 12.914Z" fill="#222B45"/>
<path d="M7.7462 7.1611C6.64084 7.1611 5.74182 6.26208 5.74182 5.15672C5.74182 4.05136 6.64084 3.15234 7.7462 3.15234C8.85155 3.15234 9.75057 4.05136 9.75057 5.15672C9.75057 6.26208 8.85155 7.1611 7.7462 7.1611ZM7.7462 4.18378C7.20674 4.18378 6.76782 4.62267 6.76782 5.16216C6.76782 5.70165 7.20671 6.14053 7.7462 6.14053C8.28566 6.14053 8.72457 5.70165 8.72457 5.16216C8.72457 4.62267 8.28569 4.18378 7.7462 4.18378Z" fill="#222B45"/>
<path d="M7.74617 2.71872C7.4605 2.71872 7.23315 2.49137 7.23315 2.2057V1.51302C7.23315 1.22735 7.4605 1 7.74617 1C8.03184 1 8.25919 1.22735 8.25919 1.51302V2.2057C8.25919 2.49137 8.03184 2.71872 7.74617 2.71872Z" fill="#222B45"/>
<path d="M5.65747 3.58532C5.52526 3.58532 5.39305 3.53763 5.29247 3.4373L4.80071 2.94553C4.5998 2.74462 4.5998 2.42189 4.80071 2.22099C5.00162 2.02009 5.32435 2.02009 5.52524 2.22099L6.01701 2.71276C6.21792 2.91367 6.21792 3.23641 6.01701 3.4373C5.92187 3.53244 5.78966 3.58532 5.65745 3.58532H5.65747Z" fill="#222B45"/>
<path d="M4.795 5.67447H4.10231C3.81664 5.67447 3.58929 5.44712 3.58929 5.16146C3.58929 4.87579 3.81664 4.64844 4.10231 4.64844H4.795C5.08066 4.64844 5.30801 4.87579 5.30801 5.16146C5.30801 5.44689 5.07523 5.67447 4.795 5.67447Z" fill="#222B45"/>
<path d="M5.17089 8.24939C5.03868 8.24939 4.90647 8.2017 4.80589 8.10136C4.60499 7.90045 4.60499 7.57772 4.80589 7.37683L5.29766 6.88506C5.49857 6.68415 5.82131 6.68415 6.0222 6.88506C6.22309 7.08597 6.22311 7.4087 6.0222 7.60959L5.53043 8.10136C5.42985 8.20194 5.29764 8.24939 5.17087 8.24939H5.17089Z" fill="#222B45"/>
<path d="M7.74617 9.32419C7.4605 9.32419 7.23315 9.09684 7.23315 8.81117V8.11849C7.23315 7.83282 7.4605 7.60547 7.74617 7.60547C8.03184 7.60547 8.25919 7.83282 8.25919 8.11849V8.81117C8.25919 9.0914 8.03184 9.32419 7.74617 9.32419Z" fill="#222B45"/>
<path d="M10.327 8.24938C10.1948 8.24938 10.0625 8.20169 9.96197 8.10135L9.4702 7.60958C9.26929 7.40868 9.26929 7.08594 9.4702 6.88505C9.67111 6.68416 9.99384 6.68414 10.1947 6.88505L10.6865 7.37682C10.8874 7.57773 10.8874 7.90046 10.6865 8.10135C10.5914 8.20193 10.4592 8.24938 10.3269 8.24938H10.327Z" fill="#222B45"/>
<path d="M11.3948 5.67447H10.7022C10.4165 5.67447 10.1891 5.44712 10.1891 5.16146C10.1891 4.87579 10.4165 4.64844 10.7022 4.64844H11.3948C11.6805 4.64844 11.9079 4.87579 11.9079 5.16146C11.9079 5.44689 11.6805 5.67447 11.3948 5.67447Z" fill="#222B45"/>
<path d="M9.83489 3.58532C9.70268 3.58532 9.57047 3.53763 9.4699 3.4373C9.26899 3.23639 9.26899 2.91365 9.4699 2.71276L9.96166 2.22099C10.1626 2.02009 10.4853 2.02009 10.6862 2.22099C10.8871 2.4219 10.8871 2.74464 10.6862 2.94553L10.1999 3.43187C10.0993 3.53244 9.96707 3.58533 9.83486 3.58533L9.83489 3.58532Z" fill="#222B45"/>
<path d="M17.2658 17.9335C15.3568 17.9335 13.8071 16.7488 13.8071 15.2999C13.8071 15.0462 13.8548 14.7976 13.9445 14.5596C13.1935 13.9408 12.7652 13.1265 12.7652 12.2749C12.7652 11.4446 13.1512 10.662 13.8651 10.0486C13.8229 9.81067 13.8016 9.57269 13.8016 9.33475C13.8016 7.24588 15.3511 5.54297 17.2603 5.54297C19.1693 5.54297 20.719 7.24588 20.719 9.33475C20.719 9.57272 20.6978 9.8107 20.6555 10.0486C21.3694 10.662 21.7554 11.4394 21.7554 12.2749C21.7554 13.1263 21.3323 13.9407 20.5761 14.5596C20.6713 14.7976 20.7135 15.0462 20.7135 15.3051C20.7244 16.7543 19.1695 17.9335 17.2657 17.9335H17.2658ZM17.2658 6.56867C15.9224 6.56867 14.8331 7.8114 14.8331 9.33444C14.8331 9.59886 14.8702 9.86328 14.9337 10.1225C14.9866 10.3288 14.9073 10.5456 14.738 10.6672C14.1299 11.1115 13.7913 11.6826 13.7913 12.2749C13.7913 12.9147 14.1773 13.5177 14.8754 13.9724C15.1134 14.1259 15.1821 14.4432 15.0234 14.6812C14.8912 14.8821 14.8277 15.0884 14.8277 15.2999C14.8277 16.1725 15.9435 16.9077 17.2604 16.9077C18.5773 16.9077 19.693 16.1725 19.693 15.2999C19.693 15.0884 19.6243 14.8821 19.4973 14.6812C19.3438 14.4432 19.4128 14.1259 19.6453 13.9724C20.3434 13.5177 20.7295 12.9147 20.7295 12.2749C20.7295 11.6826 20.3963 11.1115 19.7828 10.6672C19.6135 10.5456 19.5342 10.3286 19.587 10.1225C19.6557 9.86327 19.6876 9.59886 19.6876 9.33444C19.6985 7.80626 18.6037 6.56867 17.2659 6.56867H17.2658Z" fill="#222B45"/>
<path d="M17.2658 23.0008C16.9801 23.0008 16.7527 22.7735 16.7527 22.4878V9.84896C16.7527 9.56329 16.9801 9.33594 17.2658 9.33594C17.5514 9.33594 17.7788 9.56329 17.7788 9.84896V22.4878C17.7788 22.7735 17.5514 23.0008 17.2658 23.0008Z" fill="#222B45"/>
<path d="M17.2603 14.0169C17.1175 14.0169 16.9746 13.9589 16.8743 13.837L15.3936 12.1235C15.2085 11.9068 15.2349 11.584 15.4464 11.399C15.658 11.2139 15.9859 11.2351 16.171 11.4518L17.6517 13.1654C17.8368 13.3821 17.8104 13.7048 17.5988 13.8899C17.4983 13.9744 17.3819 14.0169 17.2603 14.0169H17.2603Z" fill="#222B45"/>
<path d="M17.2604 12.9154C17.1175 12.9154 16.9801 12.8573 16.8796 12.7461C16.6893 12.5346 16.7103 12.2121 16.9218 12.0216L18.2123 10.8688C18.4238 10.6785 18.7463 10.6995 18.9368 10.911C19.1271 11.1226 19.1061 11.4451 18.8946 11.6356L17.6041 12.7884C17.5035 12.8731 17.3819 12.9154 17.2604 12.9154L17.2604 12.9154Z" fill="#222B45"/>
<path d="M17.2604 15.7005C17.1175 15.7005 16.9801 15.6425 16.8796 15.5313C16.6893 15.3197 16.7103 14.9972 16.9218 14.8067L18.2123 13.6539C18.4238 13.4636 18.7463 13.4846 18.9368 13.6962C19.1271 13.9077 19.1061 14.2302 18.8946 14.4207L17.6041 15.5735C17.5035 15.6583 17.3819 15.7005 17.2604 15.7005H17.2604Z" fill="#222B45"/>
<path d="M21.2328 22.9855H3.35199C3.15599 22.9855 3 22.7645 3 22.4869C3 22.2092 3.15599 21.9883 3.35199 21.9883H21.2328C21.4288 21.9883 21.5848 22.2092 21.5848 22.4869C21.5848 22.7595 21.4288 22.9855 21.2329 22.9855H21.2328Z" fill="#222B45"/>
</svg>
