<svg width="24" height="24" viewBox="0 0 24 24" fill="none" xmlns="http://www.w3.org/2000/svg">
<path fill-rule="evenodd" clip-rule="evenodd" d="M12.4654 6.52419L9.20711 9.79586C7.39377 11.615 7.36961 14.595 9.15044 16.4392C10.0079 17.3284 11.1529 17.8234 12.3729 17.8334H12.3746C13.5954 17.8425 14.7488 17.3667 15.6204 16.4917C17.4321 14.6759 17.4563 11.6967 15.6746 9.85086L12.4654 6.52419ZM12.3596 19.5C10.6871 19.4859 9.12211 18.81 7.95127 17.5967C5.54378 15.1034 5.57627 11.0775 8.02377 8.62169L11.8846 4.74586C12.0429 4.58752 12.2579 4.49836 12.4821 4.50002C12.7063 4.50252 12.9196 4.59502 13.0746 4.75502L16.8746 8.69419C19.2813 11.1884 19.2488 15.215 16.8013 17.6684C15.6104 18.8634 14.0338 19.5134 12.3613 19.5H12.3596Z" fill="#46D7CB"/>
<mask id="mask0_2135_4820" style="mask-type:alpha" maskUnits="userSpaceOnUse" x="6" y="4" width="13" height="16">
<path fill-rule="evenodd" clip-rule="evenodd" d="M12.4654 6.52419L9.20711 9.79586C7.39377 11.615 7.36961 14.595 9.15044 16.4392C10.0079 17.3284 11.1529 17.8234 12.3729 17.8334H12.3746C13.5954 17.8425 14.7488 17.3667 15.6204 16.4917C17.4321 14.6759 17.4563 11.6967 15.6746 9.85086L12.4654 6.52419ZM12.3596 19.5C10.6871 19.4859 9.12211 18.81 7.95127 17.5967C5.54378 15.1034 5.57627 11.0775 8.02377 8.62169L11.8846 4.74586C12.0429 4.58752 12.2579 4.49836 12.4821 4.50002C12.7063 4.50252 12.9196 4.59502 13.0746 4.75502L16.8746 8.69419C19.2813 11.1884 19.2488 15.215 16.8013 17.6684C15.6104 18.8634 14.0338 19.5134 12.3613 19.5H12.3596Z" fill="white"/>
</mask>
<g mask="url(#mask0_2135_4820)">
</g>
</svg>
