<svg width="24" height="24" viewBox="0 0 24 24" fill="none" xmlns="http://www.w3.org/2000/svg">
<path fill-rule="evenodd" clip-rule="evenodd" d="M12 5.8C12.9941 5.8 13.8 4.99414 13.8 4C13.8 3.00589 12.9941 2.2 12 2.2C11.0059 2.2 10.2 3.00589 10.2 4C10.2 4.99414 11.0059 5.8 12 5.8ZM12 7C13.6568 7 15 5.65684 15 4C15 2.34315 13.6568 1 12 1C10.3432 1 9 2.34315 9 4C9 5.65684 10.3432 7 12 7Z" fill="#46D7CB"/>
<path fill-rule="evenodd" clip-rule="evenodd" d="M8.46629 9.74322C8.96942 9.83591 9.33345 10.2616 9.33345 10.7573V21.4516C9.33345 21.7367 9.57221 21.9678 9.86676 21.9678H9.91305C10.1889 21.9678 10.4192 21.7642 10.4442 21.4984L10.9334 16.2905C10.9349 15.7215 11.412 15.2609 12 15.2609C12.5879 15.2609 13.065 15.7214 13.0666 16.2904L13.5558 21.4984C13.5808 21.7642 13.8111 21.9678 14.0869 21.9678H14.1332C14.4277 21.9678 14.6665 21.7367 14.6665 21.4516V10.7767C14.6665 10.281 15.0307 9.85532 15.5339 9.76268C16.4704 9.59035 17.4606 9.35118 18.5489 9.04424C18.8317 8.9645 18.9941 8.67801 18.9117 8.40431C18.8293 8.13066 18.5332 7.97351 18.2504 8.05325C15.779 8.75031 13.8829 9.07289 12.0023 9.06473C10.1197 9.05653 8.22129 8.71692 5.74291 8.05144C5.45909 7.97521 5.16518 8.13608 5.08641 8.41076C5.0077 8.68544 5.17393 8.96987 5.45776 9.04605C6.54202 9.33724 7.53013 9.57078 8.46629 9.74322ZM11.4549 21.8658C11.2664 22.5251 10.6428 23 9.91305 23H9.86676C8.98312 23 8.26684 22.3068 8.26684 21.4516V10.7573C7.29313 10.5779 6.2751 10.3368 5.17254 10.0407C4.32111 9.81207 3.8224 8.95877 4.05865 8.13474C4.29491 7.31076 5.17665 6.82814 6.02807 7.05678C8.46496 7.71116 10.2599 8.02491 12.007 8.0325C13.7486 8.04003 15.5365 7.74352 17.952 7.06225C18.8003 6.82298 19.6884 7.29455 19.9357 8.11549C20.1829 8.93648 19.6956 9.79597 18.8473 10.0352C17.7358 10.3487 16.7115 10.5967 15.7331 10.7767V21.4516C15.7331 22.3068 15.0168 23 14.1332 23H14.0869C13.3571 23 12.7335 22.5251 12.5451 21.8658C12.5278 21.8052 12.5141 21.7431 12.5044 21.6796C12.5 21.6507 12.4963 21.6213 12.4936 21.5918L12.0044 16.3839C12.0015 16.3536 12.0001 16.3234 12 16.2932C11.9999 16.3234 11.9984 16.3536 11.9956 16.3839L11.5064 21.5918C11.5036 21.6213 11.5 21.6507 11.4956 21.6796C11.4858 21.7431 11.4722 21.8052 11.4549 21.8658Z" fill="#46D7CB"/>
</svg>
