<svg width="24" height="24" viewBox="0 0 24 24" fill="none" xmlns="http://www.w3.org/2000/svg">
<path fill-rule="evenodd" clip-rule="evenodd" d="M9.51932 10.4987C10.7295 10.4987 11.7105 9.51763 11.7105 8.30747C11.7105 7.09731 10.7295 6.11627 9.51932 6.11627C8.30916 6.11627 7.32813 7.09731 7.32813 8.30747C7.32813 9.51763 8.30916 10.4987 9.51932 10.4987ZM9.51932 11.6149C11.346 11.6149 12.8268 10.1341 12.8268 8.30747C12.8268 6.48081 11.346 5 9.51932 5C7.69266 5 6.21185 6.48081 6.21185 8.30747C6.21185 10.1341 7.69266 11.6149 9.51932 11.6149Z" fill="#222B45"/>
<path fill-rule="evenodd" clip-rule="evenodd" d="M16.1343 12.1535C16.8878 12.1535 17.4986 11.5427 17.4986 10.7892C17.4986 10.0357 16.8878 9.42487 16.1343 9.42487C15.3808 9.42487 14.77 10.0357 14.77 10.7892C14.77 11.5427 15.3808 12.1535 16.1343 12.1535ZM16.1343 13.2698C17.5043 13.2698 18.6149 12.1592 18.6149 10.7892C18.6149 9.4192 17.5043 8.30859 16.1343 8.30859C14.7643 8.30859 13.6537 9.4192 13.6537 10.7892C13.6537 12.1592 14.7643 13.2698 16.1343 13.2698Z" fill="#222B45"/>
<path fill-rule="evenodd" clip-rule="evenodd" d="M6.23427 16.3024C5.47297 17.254 5.11627 18.3746 5.11627 19.0545C5.11627 19.3628 4.86639 19.6126 4.55814 19.6126C4.24989 19.6126 4 19.3628 4 19.0545C4 18.0807 4.47017 16.7206 5.36261 15.6051C6.26919 14.4719 7.65812 13.5352 9.51934 13.5352C10.9723 13.5352 12.3151 14.0407 13.3178 14.9975C14.3223 15.9561 14.953 17.3363 15.038 19.0265C15.0535 19.3343 14.8164 19.5965 14.5086 19.6119C14.2007 19.6274 13.9386 19.3904 13.9231 19.0825C13.8509 17.6458 13.323 16.5454 12.5472 15.8051C11.7695 15.0631 10.7103 14.6514 9.51934 14.6514C8.07309 14.6514 6.98143 15.3685 6.23427 16.3024Z" fill="#222B45"/>
<path fill-rule="evenodd" clip-rule="evenodd" d="M17.5009 15.8155C16.1529 15.0067 14.9143 15.6926 14.4618 16.145C14.2439 16.363 13.8905 16.363 13.6725 16.145C13.4545 15.9271 13.4545 15.5737 13.6725 15.3557C14.3226 14.7057 16.1158 13.6827 18.0752 14.8583C19.2188 15.5445 19.8272 16.8368 19.9955 18.1606C20.0344 18.4664 19.818 18.7458 19.5122 18.7847C19.2064 18.8235 18.927 18.6072 18.8881 18.3014C18.7462 17.1852 18.2534 16.267 17.5009 15.8155Z" fill="#222B45"/>
</svg>
