<svg width="24" height="24" viewBox="0 0 24 24" fill="none" xmlns="http://www.w3.org/2000/svg">
<path fill-rule="evenodd" clip-rule="evenodd" d="M6.25411 1.76806C6.57558 1.84842 6.77104 2.17418 6.69067 2.49565C6.59968 2.85963 6.52263 3.28706 6.48165 3.75071C6.49057 3.75032 6.49955 3.75012 6.50857 3.75012H17.1684C17.1354 3.35235 17.0663 2.93473 16.9565 2.49565C16.8761 2.17418 17.0716 1.84842 17.393 1.76806C17.7145 1.68769 18.0403 1.88314 18.1206 2.20461C18.8089 4.95782 18.1163 7.0811 16.8079 8.72385C15.7854 10.0076 14.655 10.7878 13.429 11.4755C12.972 11.7318 12.5172 11.9681 12.0522 12.2097L12.0521 12.2097C11.2403 12.6315 10.3974 13.0694 9.45734 13.6584C8.82834 14.0525 8.3231 14.4893 7.92104 14.9499H15.6005C15.0775 14.4581 14.3943 14.032 13.5067 13.715C13.1946 13.6036 13.032 13.2602 13.1435 12.9482C13.2549 12.6361 13.5982 12.4735 13.9103 12.5849C16.3402 13.4528 17.5618 15.072 18.0777 16.7761C18.5835 18.447 18.4034 20.1641 18.1206 21.2954C18.0402 21.6168 17.7144 21.8123 17.393 21.7319C17.0715 21.6516 16.876 21.3258 16.9564 21.0043C17.073 20.5379 17.1667 19.9674 17.1909 19.3499H6.54166C6.59853 19.9706 6.73868 20.5181 6.8988 20.9345C7.01776 21.2437 6.86347 21.5909 6.55419 21.7098C6.24491 21.8288 5.89776 21.6745 5.7788 21.3652C5.05664 19.4876 4.64972 15.2548 8.82018 12.6415C9.79137 12.033 10.7263 11.5462 11.571 11.1064L11.571 11.1064C12.0233 10.8709 12.4497 10.6489 12.842 10.4289C13.9345 9.81605 14.8755 9.16534 15.7272 8.15005H7.66726C8.22506 8.81079 9.01991 9.38481 10.1404 9.78498C10.4524 9.89642 10.6151 10.2397 10.5036 10.5518C10.3922 10.8639 10.0488 11.0265 9.73678 10.915C7.30688 10.0472 6.08524 8.42804 5.56936 6.72391C5.06354 5.05302 5.24369 3.33593 5.52652 2.20461C5.60688 1.88314 5.93264 1.68769 6.25411 1.76806ZM16.5253 16.1497C16.5197 16.1498 16.5141 16.1499 16.5084 16.1499H7.11396C6.78046 16.8179 6.60831 17.5008 6.54444 18.1499H17.1435C17.1012 17.8081 17.032 17.4634 16.9292 17.1238C16.8293 16.7937 16.6972 16.4665 16.5253 16.1497ZM6.71787 6.37623C6.57461 5.90299 6.49657 5.41973 6.46576 4.94859C6.4799 4.94959 6.49418 4.9501 6.50857 4.9501H17.1559C17.0749 5.6902 16.8579 6.35246 16.5433 6.95107C16.5318 6.9504 16.5201 6.95007 16.5084 6.95007H6.92733C6.84553 6.76076 6.77622 6.56898 6.71787 6.37623Z" fill="#46D7CB"/>
</svg>
