<svg width="114" height="24" viewBox="0 0 114 24" fill="none" xmlns="http://www.w3.org/2000/svg">
<g clip-path="url(#clip0_2135_4852)">
<path d="M39.289 21.3164L34.5564 15.3747V21.3164H31.0308V2.6875H34.5564V13.2847L39.2391 7.36794H43.82L37.6767 14.3671L43.8698 21.3164H39.2867H39.289Z" fill="#0A0014"/>
<path d="M44.4268 10.5433C44.9884 9.45192 45.7515 8.6141 46.7184 8.02537C47.683 7.4389 48.7608 7.14453 49.9541 7.14453C50.9935 7.14453 51.906 7.35512 52.685 7.77402C53.4662 8.19293 54.0911 8.72279 54.5598 9.35908V7.37097H58.1104V21.3172H54.5598V19.277C54.107 19.9314 53.482 20.4726 52.685 20.9005C51.8879 21.3285 50.9686 21.5436 49.9292 21.5436C48.754 21.5436 47.6852 21.2425 46.7184 20.6379C45.7537 20.0333 44.9906 19.1819 44.4268 18.0837C43.8653 16.9855 43.5845 15.7219 43.5845 14.2954C43.5845 12.8688 43.8653 11.6348 44.4268 10.5433ZM54.0572 12.142C53.722 11.5306 53.2692 11.0596 52.6985 10.7313C52.1279 10.403 51.5143 10.2399 50.8599 10.2399C50.2055 10.2399 49.6009 10.4007 49.0461 10.7177C48.4914 11.037 48.043 11.5034 47.6988 12.1148C47.3546 12.7285 47.1825 13.4531 47.1825 14.2931C47.1825 15.1332 47.3546 15.8669 47.6988 16.4964C48.043 17.1258 48.4959 17.6082 49.0574 17.9433C49.619 18.2784 50.2191 18.446 50.8576 18.446C51.4962 18.446 52.1257 18.2829 52.6963 17.9546C53.2669 17.6285 53.7198 17.1576 54.0549 16.5439C54.39 15.9303 54.5576 15.1966 54.5576 14.3407C54.5576 13.4848 54.39 12.7511 54.0549 12.1375L54.0572 12.142Z" fill="#0A0014"/>
<path d="M64.5592 2.6875V21.3164H61.0336V2.6875H64.5592Z" fill="#0A0014"/>
<path d="M67.7611 5.1167C67.349 4.72271 67.1452 4.23134 67.1452 3.64487C67.1452 3.0584 67.3513 2.56703 67.7611 2.17303C68.1732 1.77903 68.6872 1.58203 69.3099 1.58203C69.9326 1.58203 70.4466 1.77903 70.8588 2.17303C71.2709 2.56703 71.4747 3.0584 71.4747 3.64487C71.4747 4.23134 71.2686 4.72271 70.8588 5.1167C70.4466 5.5107 69.9304 5.7077 69.3099 5.7077C68.6895 5.7077 68.1732 5.5107 67.7611 5.1167ZM71.0467 7.36975V21.316H67.5211V7.36975H71.0467Z" fill="#0A0014"/>
<path d="M79.3999 7.77326C80.197 7.35435 81.1072 7.14377 82.1307 7.14377C83.3218 7.14377 84.3996 7.43814 85.3665 8.02461C86.3311 8.61334 87.0942 9.44663 87.658 10.529C88.2196 11.6114 88.5004 12.8658 88.5004 14.2924C88.5004 15.7189 88.2196 16.9824 87.658 18.0806C87.0965 19.1811 86.3311 20.0325 85.3665 20.6349C84.4019 21.2394 83.324 21.5406 82.1307 21.5406C81.0891 21.5406 80.1788 21.3345 79.3999 20.9247C78.6187 20.5126 77.9937 19.9805 77.525 19.326V21.3142H73.9994V2.6875H77.525V9.4104C77.9779 8.74015 78.6028 8.19443 79.3999 7.77326ZM84.3838 12.1163C84.0396 11.5027 83.5867 11.0385 83.0252 10.7192C82.4636 10.3999 81.8545 10.2414 81.2001 10.2414C80.5457 10.2414 79.9615 10.4045 79.3999 10.7328C78.8383 11.0589 78.3855 11.5344 78.0413 12.1548C77.6971 12.7752 77.525 13.5066 77.525 14.3444C77.525 15.1823 77.6971 15.9137 78.0413 16.5341C78.3855 17.1545 78.8383 17.63 79.3999 17.9561C79.9615 18.2844 80.5615 18.4475 81.2001 18.4475C81.8386 18.4475 82.4636 18.2799 83.0252 17.9448C83.5867 17.6097 84.0396 17.1319 84.3838 16.5092C84.728 15.8887 84.9 15.1506 84.9 14.2946C84.9 13.4387 84.728 12.73 84.3838 12.1163Z" fill="#0A0014"/>
<path d="M99.5347 10.5433C100.096 9.45192 100.859 8.6141 101.826 8.02537C102.791 7.4389 103.869 7.14453 105.062 7.14453C106.101 7.14453 107.014 7.35512 107.793 7.77402C108.574 8.19293 109.199 8.72279 109.668 9.35908V7.37097H113.218V21.3172H109.668V19.277C109.215 19.9314 108.59 20.4726 107.793 20.9005C106.996 21.3285 106.076 21.5436 105.037 21.5436C103.862 21.5436 102.791 21.2425 101.826 20.6379C100.862 20.0333 100.098 19.1819 99.5347 18.0837C98.9731 16.9855 98.6923 15.7219 98.6923 14.2954C98.6923 12.8688 98.9731 11.6348 99.5347 10.5433ZM109.165 12.142C108.83 11.5306 108.375 11.0596 107.806 10.7313C107.236 10.403 106.622 10.2399 105.968 10.2399C105.313 10.2399 104.709 10.4007 104.154 10.7177C103.599 11.037 103.151 11.5034 102.807 12.1148C102.462 12.7285 102.29 13.4531 102.29 14.2931C102.29 15.1332 102.462 15.8669 102.807 16.4964C103.151 17.1258 103.604 17.6082 104.165 17.9433C104.727 18.2784 105.327 18.446 105.965 18.446C106.604 18.446 107.234 18.2829 107.804 17.9546C108.375 17.6285 108.828 17.1576 109.163 16.5439C109.498 15.9303 109.665 15.1966 109.665 14.3407C109.665 13.4848 109.498 12.7511 109.163 12.1375L109.165 12.142Z" fill="#0A0014"/>
<path d="M97.7073 9.43127C98.1307 8.61157 98.6493 7.89151 99.2516 7.26881V7.25748C96.2807 6.88386 93.9552 7.40693 92.3815 8.81537C90.9844 10.0653 90.2938 11.8609 90.3277 14.1525V21.3147H93.8466V14.1004C93.8398 13.643 93.8171 12.2504 94.7274 11.4375C95.3342 10.8941 96.2536 10.6948 97.182 10.6631C97.3291 10.2374 97.5035 9.82527 97.7073 9.42901V9.43127Z" fill="#0A0014"/>
<path d="M14.3787 20.876L5.50014 18.4961L3.12256 9.61982L9.62129 3.12109L18.4999 5.49868L20.8774 14.3773L14.3787 20.876ZM5.74243 18.2561L14.2904 20.5476L20.5491 14.2889L18.2576 5.7387L9.7096 3.44943L3.45089 9.70813L5.74243 18.2561Z" fill="url(#paint0_linear_2135_4852)"/>
<path d="M13.5273 21.6404L4.41327 18.142L4.39968 18.0582L2.88708 8.50033L10.4727 2.35938L19.5845 5.85782L19.5981 5.9416L21.113 15.4995L13.5273 21.6427V21.6404ZM4.6782 17.9291L13.473 21.3053L20.7937 15.3772L19.3196 6.07293L10.5248 2.6945L3.2041 8.62261L4.6782 17.9269V17.9291Z" fill="url(#paint1_linear_2135_4852)"/>
<path d="M12.5423 22.3499L12.4676 22.3114L3.30596 17.6445L3.30143 17.5585L2.76251 7.28959L11.4577 1.64453L11.5324 1.68303L20.694 6.34988L20.6985 6.43593L21.2375 16.7048L12.5423 22.3499ZM3.59127 17.4589L12.5242 22.0102L20.934 16.5486L20.4087 6.53556L11.4758 1.98419L3.06594 7.44583L3.59127 17.4589Z" fill="url(#paint2_linear_2135_4852)"/>
<path d="M11.4237 22.9977L2.18964 16.9994L2.19416 16.9133L2.76478 6.00136L12.5763 1.00391L21.8104 6.99994L21.8058 7.08599L21.2352 17.998L11.4237 22.9977ZM2.4908 16.8454L11.4396 22.658L20.9476 17.8145L21.5069 7.15845L12.5582 1.34356L3.05009 6.1893L2.4908 16.8454Z" fill="url(#paint3_linear_2135_4852)"/>
<path d="M10.1692 23.5525L10.1036 23.4982L1.08008 16.1911L2.90968 4.64056L13.8285 0.449219L13.8941 0.503564L22.9176 7.81067L21.088 19.3635L10.1692 23.5548V23.5525ZM1.39709 16.0711L10.2213 23.2174L20.8231 19.1483L22.6006 7.93294L13.7764 0.784345L3.17462 4.85341L1.39709 16.0688V16.0711Z" fill="url(#paint4_linear_2135_4852)"/>
<path d="M8.78347 24L0 15.2143L0.0226436 15.1327L3.2154 3.2154L15.2143 0L23.9977 8.78347L23.9751 8.86499L20.7823 20.7823L8.78121 23.9977L8.78347 24ZM0.328333 15.126L8.87178 23.6694L20.5423 20.5423L23.6694 8.87178L15.126 0.328333L3.45542 3.45542L0.328333 15.126Z" fill="url(#paint5_linear_2135_4852)"/>
</g>
<defs>
<linearGradient id="paint0_linear_2135_4852" x1="4.30986" y1="14.0591" x2="19.6881" y2="9.93855" gradientUnits="userSpaceOnUse">
<stop offset="0.1" stop-color="#00F2FF"/>
<stop offset="0.9" stop-color="#00FF7D"/>
</linearGradient>
<linearGradient id="paint1_linear_2135_4852" x1="3.38469" y1="14.3084" x2="20.6133" y2="9.69202" gradientUnits="userSpaceOnUse">
<stop offset="0.1" stop-color="#00F2FF"/>
<stop offset="0.9" stop-color="#00FF7D"/>
</linearGradient>
<linearGradient id="paint2_linear_2135_4852" x1="2.47478" y1="14.5507" x2="21.5232" y2="9.44665" gradientUnits="userSpaceOnUse">
<stop offset="0.1" stop-color="#00F2FF"/>
<stop offset="0.9" stop-color="#00FF7D"/>
</linearGradient>
<linearGradient id="paint3_linear_2135_4852" x1="1.59553" y1="14.7887" x2="22.4024" y2="9.21351" gradientUnits="userSpaceOnUse">
<stop offset="0.1" stop-color="#00F2FF"/>
<stop offset="0.9" stop-color="#00FF7D"/>
</linearGradient>
<linearGradient id="paint4_linear_2135_4852" x1="46.1395" y1="184.354" x2="68.6087" y2="178.333" gradientUnits="userSpaceOnUse">
<stop offset="0.1" stop-color="#00F2FF"/>
<stop offset="0.9" stop-color="#00FF7D"/>
</linearGradient>
<linearGradient id="paint5_linear_2135_4852" x1="-0.00112748" y1="15.2157" x2="23.9991" y2="8.78489" gradientUnits="userSpaceOnUse">
<stop offset="0.1" stop-color="#00F2FF"/>
<stop offset="0.9" stop-color="#00FF7D"/>
</linearGradient>
<clipPath id="clip0_2135_4852">
<rect width="113.218" height="24" fill="white"/>
</clipPath>
</defs>
</svg>
