<svg width="24" height="24" viewBox="0 0 24 24" fill="none" xmlns="http://www.w3.org/2000/svg">
<path d="M17.1125 21H16.2164C15.5324 21 14.9767 20.4443 14.9767 19.7609V15.0841C14.9767 15.0295 14.9587 14.9762 14.9261 14.9317L13.6931 13.2876C13.3956 12.8911 13.264 12.4179 13.3225 11.9555C14.0943 5.84558 15.2772 3 17.0469 3C17.7663 3 18.3519 3.5856 18.3519 4.30505V19.7608C18.3519 20.4442 17.7962 20.9999 17.1128 20.9999L17.1125 21ZM17.0467 4.12519C16.7791 4.12519 15.3969 4.50939 14.4384 12.0968C14.4171 12.2679 14.4716 12.4507 14.5926 12.6126L15.8262 14.2574C16.004 14.4949 16.1013 14.7879 16.1013 15.0837V19.7605C16.1013 19.8235 16.153 19.8746 16.2161 19.8746H17.1122C17.1752 19.8746 17.2263 19.8234 17.2263 19.7605V4.30538C17.2268 4.20644 17.1458 4.12533 17.0469 4.12533L17.0467 4.12519ZM8.24998 8.62514C7.93947 8.62514 7.68748 8.37315 7.68748 8.06264V4.40643C7.68748 4.09593 7.93947 3.84394 8.24998 3.84394C8.56048 3.84394 8.81247 4.09593 8.81247 4.40643V8.06264C8.81247 8.37315 8.56048 8.62514 8.24998 8.62514ZM9.93746 8.62514C9.62695 8.62514 9.37496 8.37315 9.37496 8.06264V4.40643C9.37496 4.09593 9.62695 3.84394 9.93746 3.84394C10.248 3.84394 10.5 4.09593 10.5 4.40643V8.06264C10.5 8.37315 10.248 8.62514 9.93746 8.62514ZM9.09372 21C8.00817 21 7.12499 20.1168 7.12499 19.0313V11.9856C6.42351 11.4558 6 10.6266 6 9.75022V4.40653C6 3.63148 6.63118 3.0003 7.40623 3.0003C7.72239 3.0003 8.01482 3.10551 8.24998 3.28204C8.72019 2.92822 9.46724 2.92822 9.93746 3.28204C10.1726 3.10539 10.465 3.0003 10.7812 3.0003C11.5563 3.0003 12.1874 3.63148 12.1874 4.40653V9.75022C12.1874 10.6266 11.7639 11.4557 11.0624 11.9856V19.0313C11.0624 20.1168 10.1793 21 9.09372 21ZM8.24998 11.7475V19.0313C8.24998 19.4965 8.62852 19.875 9.09372 19.875C9.55891 19.875 9.93746 19.4965 9.93746 19.0313V11.7471L9.9347 11.7022C9.92905 11.4969 10.0359 11.3051 10.2137 11.2016C10.7367 10.8967 11.0624 10.3404 11.0624 9.75043V4.40674C11.0624 4.25432 10.9336 4.1255 10.7812 4.1255C10.6288 4.1255 10.4999 4.25432 10.4999 4.40674C10.4999 4.71725 10.248 4.96924 9.93745 4.96924C9.62695 4.96924 9.37496 4.71725 9.37496 4.40674C9.37496 4.25432 9.24613 4.1255 9.09371 4.1255C8.94128 4.1255 8.81246 4.25432 8.81246 4.40674C8.81246 4.71725 8.56047 4.96924 8.24997 4.96924C7.93947 4.96924 7.68747 4.71725 7.68747 4.40674C7.68747 4.25432 7.55865 4.1255 7.40623 4.1255C7.2538 4.1255 7.12498 4.25432 7.12498 4.40674V9.75043C7.12498 10.3405 7.45068 10.8968 7.97438 11.2022C8.15154 11.3057 8.25839 11.4976 8.25337 11.7028L8.24998 11.7478V11.7475Z" fill="#46D7CB"/>
</svg>
