<svg width="24" height="24" viewBox="0 0 24 24" fill="none" xmlns="http://www.w3.org/2000/svg">
<path fill-rule="evenodd" clip-rule="evenodd" d="M20.2817 6.58691C20.4183 6.68005 20.5 6.83468 20.5 7V16.8621C20.5 17.0677 20.3741 17.2524 20.1826 17.3275L12.1826 20.4655C12.0287 20.5258 11.8549 20.5062 11.7183 20.4131C11.5817 20.32 11.5 20.1653 11.5 20V10.1379C11.5 9.93226 11.6259 9.74756 11.8174 9.67246L19.8174 6.53453C19.9713 6.47416 20.1451 6.49377 20.2817 6.58691ZM12.5 10.4789V19.2668L19.5 16.5211V7.73321L12.5 10.4789Z" fill="#46D7CB"/>
<path fill-rule="evenodd" clip-rule="evenodd" d="M3.7183 6.58691C3.85488 6.49377 4.02868 6.47416 4.18258 6.53453L12.1826 9.67246C12.3741 9.74756 12.5 9.93226 12.5 10.1379V20C12.5 20.1653 12.4183 20.32 12.2817 20.4131C12.1451 20.5062 11.9713 20.5258 11.8174 20.4655L3.81742 17.3275C3.62595 17.2524 3.5 17.0677 3.5 16.8621V7C3.5 6.83468 3.58172 6.68005 3.7183 6.58691ZM4.5 7.73321V16.5211L11.5 19.2668V10.4789L4.5 7.73321Z" fill="#46D7CB"/>
<path fill-rule="evenodd" clip-rule="evenodd" d="M11.8244 3.53184C11.9376 3.48939 12.0624 3.48939 12.1756 3.53184L20.1756 6.53184C20.3707 6.60502 20.5 6.79158 20.5 7C20.5 7.20842 20.3707 7.39498 20.1756 7.46816L12.1756 10.4682C12.0624 10.5106 11.9376 10.5106 11.8244 10.4682L3.82444 7.46816C3.62929 7.39498 3.5 7.20842 3.5 7C3.5 6.79158 3.62929 6.60502 3.82444 6.53184L11.8244 3.53184ZM5.424 7L12 9.466L18.576 7L12 4.534L5.424 7Z" fill="#46D7CB"/>
</svg>
