<svg width="24" height="24" viewBox="0 0 24 24" fill="none" xmlns="http://www.w3.org/2000/svg">
<path d="M7.00243 9.94695C7.07815 9.76441 7.19609 9.32037 6.84666 8.97094L6.84639 8.97066L6.23083 8.35591C6.23066 8.35574 6.23049 8.35556 6.23032 8.35539C5.94012 8.0633 5.94168 7.59004 6.22986 7.30186L7.30186 6.22986C7.44359 6.08814 7.62771 6.012 7.828 6.012H7.8296C8.02979 6.012 8.21478 6.08881 8.3552 6.23013L8.35543 6.23036L8.96653 6.84465C8.96676 6.84488 8.96699 6.84511 8.96721 6.84534C9.30184 7.18244 9.73158 7.09337 9.92222 7.01307C10.1021 6.93762 10.5 6.70839 10.5 6.2136V5.3464C10.5 4.93537 10.8354 4.6 11.2464 4.6H12.76C13.1678 4.6 13.5008 4.93297 13.5008 5.3408V6.2136C13.5008 6.68402 13.8634 6.92451 14.0541 7.00287C14.2337 7.07691 14.6784 7.19812 15.0299 6.84666L15.0301 6.84639L15.6452 6.23051C15.6453 6.23039 15.6455 6.23026 15.6456 6.23013C15.9373 5.93976 16.4101 5.94061 16.6986 6.22954L16.6989 6.22986L17.7717 7.30267L17.7724 7.30333C17.913 7.44348 17.9892 7.62741 17.9888 7.82827V7.8296C17.9888 8.0288 17.9121 8.21384 17.7707 8.3544L17.7702 8.35491L17.155 8.96771L17.1541 8.96854C16.8231 9.29954 16.905 9.72281 16.9866 9.91868C17.0633 10.1047 17.2929 10.5 17.7872 10.5H18.6544C19.0654 10.5 19.4 10.8346 19.4 11.2456V12.7592C19.4 13.1678 19.0678 13.5 18.6592 13.5H17.7872C17.3207 13.5 17.0813 13.857 17.001 14.0467L16.9992 14.0508L16.99 14.0727L16.99 14.0728L16.9893 14.0744L16.9891 14.0748L16.9891 14.0748L16.9873 14.0791C16.9107 14.264 16.8188 14.6938 17.1541 15.0291L17.1544 15.0293L17.77 15.6441C17.7701 15.6443 17.7703 15.6444 17.7705 15.6446C18.0607 15.9367 18.0591 16.41 17.7709 16.6981L16.6989 17.7701C16.5572 17.9119 16.3731 17.988 16.1728 17.988H16.1712C15.971 17.988 15.786 17.9112 15.6456 17.7699L15.6454 17.7696L15.0334 17.1544L15.0323 17.1533L6.448 9.7176M7.00243 9.94695C7.00224 9.94743 7.00204 9.9479 7.00185 9.94837L6.448 9.7176M7.00243 9.94695C7.00274 9.94623 7.00303 9.9455 7.00333 9.94478L6.448 9.7176M7.00243 9.94695C6.92484 10.1349 6.68533 10.5 6.2136 10.5H5.3416C4.9325 10.5 4.6 10.8326 4.6 11.2408V12.7544C4.6 13.165 4.93491 13.5 5.3464 13.5H6.2136C6.70802 13.5 6.93763 13.8954 7.01427 14.0814M6.448 9.7176C6.412 9.8056 6.3312 9.9 6.2136 9.9H5.3416C4.6016 9.9 4 10.5008 4 11.2408V12.7544C4 13.4968 4.604 14.1 5.3464 14.1H6.2136C6.332 14.1 6.412 14.1936 6.46 14.3112M7.01427 14.0814C7.01368 14.08 7.0131 14.0786 7.01251 14.0773L6.46 14.3112M7.01427 14.0814C7.09586 14.2774 7.1776 14.7005 6.84667 15.0315L6.84583 15.0323L6.2316 15.6441M7.01427 14.0814C7.01469 14.0824 7.0151 14.0835 7.01551 14.0845L6.46 14.3112M6.46 14.3112L6.2316 15.6441M6.2316 15.6441L6.23143 15.6443L5.808 15.2192L6.2316 15.6441ZM6.012 16.1711C6.012 16.1709 6.012 16.1706 6.012 16.1704H5.412L6.012 16.1717C6.012 16.1715 6.012 16.1713 6.012 16.1711ZM6.22986 16.6981L5.8056 17.1224L14.0799 16.9864C14.0798 16.9864 14.0798 16.9864 14.0797 16.9865C13.9004 17.0614 13.5008 17.2906 13.5008 17.7864V18.6536C13.5008 19.0646 13.1654 19.4 12.7544 19.4H11.2408C10.833 19.4 10.5 19.067 10.5 18.6592V17.7864C10.5 17.3153 10.1363 17.0748 9.94588 16.9968C9.7629 16.9218 9.32654 16.8077 8.97707 17.1473L8.97702 17.1472L8.97066 17.1536L8.35558 17.7695C8.3555 17.7696 8.35542 17.7697 8.35534 17.7697C8.06368 18.0602 7.59072 18.0594 7.30219 17.7705L7.30186 17.7701L6.22986 16.6981Z" stroke="#46D7CB" stroke-width="1.2"/>
<circle cx="12" cy="12" r="2.4" stroke="#46D7CB" stroke-width="1.2"/>
</svg>
