<svg width="24" height="24" viewBox="0 0 24 24" fill="none" xmlns="http://www.w3.org/2000/svg">
<path fill-rule="evenodd" clip-rule="evenodd" d="M17.875 13.25H17.125C16.875 14.4375 16.1875 15.5 15.25 16.3125L14.75 20.8125C14.75 21.5 14.1875 22 13.5 22H9.75C9.0625 22 8.5 21.4375 8.5 20.8125L8 16.3125C6.75 15.25 6 13.75 6 12C6 10.25 6.75 8.75 8 7.6875L8.5 3.1875C8.5 2.5625 9.0625 2 9.75 2H13.5C14.1875 2 14.75 2.5625 14.75 3.1875L15.25 7.6875C16.1875 8.4375 16.8125 9.5 17.125 10.75H17.875V13.25ZM9.75 20.75H13.5V20.6875L13.875 17.125C13.1875 17.4375 12.4375 17.625 11.625 17.625C10.8125 17.625 10.0625 17.4375 9.375 17.125L9.75 20.75ZM13.5 3.25H9.75V3.3125L9.375 6.875C10.0625 6.5625 10.8125 6.375 11.625 6.375C12.4375 6.375 13.1875 6.5625 13.875 6.875L13.5 3.25ZM11.625 7.625C9.1875 7.625 7.25 9.5625 7.25 12C7.25 14.4375 9.1875 16.375 11.625 16.375C14.0625 16.375 16 14.4375 16 12C16 9.5625 14.0625 7.625 11.625 7.625ZM12.3125 11.375L10.4375 15.125L8.75 12.625H7.875V11.375H9.4375L10.25 12.625L12.125 8.875L13.8125 11.375H15.375V12.625H13.1875L12.3125 11.375Z" fill="#222B45"/>
</svg>
