<svg class="plus-icon" width="24px" height="22px" viewBox="0 0 24 22" version="1.1" xmlns="http://www.w3.org/2000/svg" style="margin: 0.3rem 1.5rem 0px 0px;"><g id="Design" stroke="none" stroke-width="1" fill="none" fill-rule="evenodd"><g id="Artboard" transform="translate(-342.000000, -411.000000)"><g id="Group" transform="translate(342.000000, 410.000000)"><rect id="Rectangle" x="0" y="0" width="24" height="24"></rect><path d="M11.9999107,1.5 C13.0350434,1.5 13.9928562,1.98875426 14.6161952,2.78376382 L14.7363272,2.94679506 L14.8066667,3.05485664 L14.9904436,3.04042244 C15.4656569,3.01650725 15.9424157,3.09787786 16.3921454,3.28115618 L16.6146256,3.38127201 L16.8049763,3.48273229 C17.3975958,3.82256533 17.8614068,4.32118551 18.1526044,4.91597103 L18.243217,5.11770865 L18.3133333,5.30521059 C18.9122032,5.43486536 19.4578396,5.72732544 19.9027045,6.15663426 L20.0647123,6.32398915 L20.2019748,6.48532535 C20.5902657,6.97061286 20.834797,7.53712047 20.9208244,8.13071911 L20.945626,8.35448277 L20.9533333,8.54317161 L20.9715656,8.55217105 C21.1628599,8.65857622 21.3436287,8.7839381 21.5113503,8.92662194 L21.6746295,9.07501923 L21.8286501,9.23460121 C22.346686,9.80774945 22.6516669,10.5382653 22.6988995,11.3094898 L22.7009524,11.3853175 L22.7589286,11.3858002 C23.3586647,11.3858002 23.8590579,11.8170432 23.9747853,12.3903052 L23.9935924,12.5152154 L24,12.6438407 C24,13.208353 23.6331784,13.6860361 23.1279808,13.8453212 L22.992381,13.8789529 L22.9729333,14.018516 C22.4526179,17.4004578 20.4384264,20.3613092 17.4932704,22.0609502 L17.2053679,22.2214662 L16.9207461,22.3694381 C16.7923639,22.4338464 16.6543226,22.4750833 16.5127483,22.4916763 L16.3702232,22.5 L7.62973214,22.5 C7.43876648,22.5 7.2503749,22.4553105 7.07918506,22.3694259 C3.92219259,20.7853989 1.71727481,17.8031195 1.08196474,14.3441639 L1.02702172,14.0185184 L1.00666667,13.8789529 L0.990955725,13.8763218 C0.506216135,13.7757706 0.124409595,13.3887436 0.0252146571,12.8973762 L0.00640764492,12.772466 L0,12.6438407 C0,11.9924804 0.488371917,11.456721 1.11418108,11.3922954 L1.24107143,11.3858002 L1.48285714,11.3853175 L1.48587787,11.3094945 C1.52404935,10.6862952 1.73054485,10.089663 2.08177385,9.58114943 L2.22022303,9.39470763 L2.3562001,9.23456942 C2.55512301,9.0145166 2.7802392,8.82331052 3.02556567,8.66483208 L3.21325647,8.55217031 L3.23047619,8.54317161 L3.23917192,8.3545532 C3.28005776,7.82343559 3.4468094,7.30825158 3.72916414,6.84661377 L3.85722113,6.652157 L3.98278805,6.4853428 C4.42197493,5.93640175 5.00088369,5.5494816 5.64726715,5.3615155 L5.87238095,5.30521059 L5.8808162,5.28034799 C6.07264385,4.73615186 6.40042,4.25177964 6.83652813,3.87042374 L7.0050928,3.73232853 L7.18348996,3.60439726 C7.72037492,3.24491236 8.33270509,3.0520892 8.9548945,3.03816844 L9.19619048,3.04230641 L9.29985338,2.89016113 C9.84090051,2.13723827 10.671312,1.6375883 11.5976163,1.52444023 L11.7975073,1.50615861 L11.9999107,1.5 Z M5.75786321,18.3091311 C6.34028054,18.9279513 7.01371531,19.461595 7.76068259,19.889303 L7.93238095,19.9831949 L16.0666667,19.9831949 L16.2393151,19.889301 C16.9862872,19.4615827 17.6597201,18.9279364 18.2421355,18.3091311 L5.75786321,18.3091311 Z M20.4733333,13.9011572 L3.52571429,13.9011572 C3.66134752,14.6113719 3.99245863,15.3215865 4.51904762,16.0318012 L19.48,16.0318012 C20.0795779,15.257165 20.410689,14.5469503 20.4733333,13.9011572 Z M12,4.01608107 C11.6183195,4.01608107 11.2888659,4.2680331 11.1803421,4.62841662 L11.1563491,4.72928359 C11.087926,5.11624948 10.8449558,5.44857992 10.4995337,5.62759508 C10.1972711,5.78416786 9.84710013,5.80753687 9.53018185,5.69672119 L9.39663223,5.64101051 C9.12333909,5.50772641 8.81074997,5.53023357 8.55174955,5.70368489 C8.32374269,5.85639508 8.19166383,6.08201828 8.17171747,6.34865247 L8.17008153,6.46534213 C8.18712627,6.84587288 8.03314948,7.21373238 7.75134394,7.46575946 C7.50482532,7.68621977 7.1836587,7.79725019 6.85914632,7.77835055 L6.72007262,7.76223604 C6.40786851,7.70783798 6.10982251,7.8213043 5.91065286,8.07026357 C5.733737,8.29133949 5.67394955,8.56384688 5.73946943,8.82679208 L5.7752451,8.93871962 C5.91962623,9.30708193 5.88434496,9.72286579 5.68006708,10.0605507 C5.49848059,10.3609959 5.20215573,10.568655 4.86510082,10.6368962 L4.73694056,10.6558603 C4.36732944,10.6907392 4.07537287,10.9532398 3.98832099,11.3021295 L3.97238095,11.3853175 L20.2114286,11.3853175 L20.1965883,11.3021269 C20.1182361,10.988124 19.8738896,10.7441026 19.5562346,10.6730031 L19.4477617,10.655849 C19.0584982,10.6190322 18.7091055,10.3985036 18.504865,10.0606599 C18.3261142,9.76505317 18.2767296,9.40983541 18.3638614,9.07883435 L18.4095825,8.9387038 C18.5255991,8.64273378 18.4764064,8.32293619 18.2742035,8.07020622 C18.0999383,7.85243054 17.8500202,7.73836581 17.5811687,7.74964494 L17.4649528,7.76221604 C17.0944507,7.8268506 16.7154091,7.71781948 16.4336916,7.46587107 C16.1870381,7.24541963 16.0383109,6.93625569 16.0163092,6.60833505 L16.0157589,6.42504768 C16.0157589,6.10660616 15.8563094,5.82949657 15.5827344,5.67262819 C15.3393128,5.53300253 15.0651821,5.51795237 14.8212048,5.62554774 L14.7186667,5.67916332 C14.3604756,5.89726808 13.9180691,5.918021 13.5413694,5.73439392 C13.2066498,5.57112019 12.9639481,5.26578659 12.8752703,4.90500925 L12.8493571,4.76728799 C12.7931345,4.34046117 12.426854,4.01608107 12,4.01608107 Z" id="Shape" fill="rgb(183, 140, 105)"></path></g></g></g></svg>