<svg width="20px" height="20px" viewBox="0 0 20 20" version="1.1" xmlns="http://www.w3.org/2000/svg" class="plus-icon" style="margin: 0.5rem 1.5rem 0px 0px;"><title>20px - Microbiome - Violet@1.5x</title><g id="Design" stroke="none" stroke-width="1" fill="none" fill-rule="evenodd"><g id="Artboard" transform="translate(-388.000000, -328.000000)"><g id="Icon" transform="translate(388.000000, 328.000000)"><rect id="Rectangle" x="0" y="0" width="20" height="20"></rect><path d="M14.75,3.55271368e-14 C17.3733526,3.55271368e-14 19.5000266,2.12664744 19.5000266,4.75 C19.5000266,5.9439825 19.0554881,7.06301443 18.289776,7.91799234 C18.7910976,8.5281065 19.0833333,9.31468203 19.0833333,10.1666667 C19.0833333,11.0564433 18.7480822,11.886136 18.1787391,12.5153094 C18.7585647,13.2646587 19.0833333,14.1910842 19.0833333,15.1666667 C19.0833333,15.8813685 18.9103105,16.5556587 18.603867,17.1499349 L18.6368092,17.2574644 C18.700363,17.5116797 18.8577337,17.7477357 19.1380297,17.9799882 C19.5632954,18.3323623 19.6223858,18.9627639 19.2700118,19.3880297 C18.9176377,19.8132954 18.2872361,19.8723858 17.8619703,19.5200118 C17.5851642,19.2906509 17.3509976,19.0388742 17.1623928,18.7661228 C16.4743278,19.2294184 15.6437628,19.5 14.75,19.5 C12.3567661,19.5 10.4166667,17.5599006 10.4166667,15.1666667 C10.4166667,13.8202876 11.0365498,12.5829006 12.0525041,11.7747789 C12.1535077,11.6944375 12.258426,11.6183389 12.3670391,11.5467977 C12.1821163,11.1180824 12.0833333,10.6499624 12.0833333,10.1666667 C12.0833333,9.60979905 12.2136624,9.071246 12.4509185,8.58983212 C12.0467446,8.36405439 11.6783303,8.07985842 11.3571015,7.74797792 C11.1062274,7.80391351 10.8470644,7.83333333 10.5833333,7.83333333 C10.0109585,7.83333333 9.462827,7.6946042 8.9767769,7.44339658 L8.95118051,7.47696479 C8.85587437,7.59455737 8.75448625,7.70710586 8.64746272,7.81412939 C8.58513783,7.87645427 8.52104224,7.93677166 8.45527679,7.99501594 C8.59374677,8.4203283 8.66666667,8.87116618 8.66666667,9.33333333 C8.66666667,10.24502 8.38299596,11.1133351 7.8724019,11.8345699 C8.38321463,12.5540011 8.66666667,13.4219982 8.66666667,14.3333333 C8.66666667,15.3085189 8.34453889,16.2084674 7.80088542,16.9325769 L7.67167187,16.8687236 C8.18767715,17.113085 8.57401818,17.3711321 8.84059755,17.6802247 C9.2012995,18.0984502 9.15466746,18.7298956 8.73644198,19.0905976 C8.3460982,19.4272527 7.77001614,19.4090747 7.40167602,19.0651219 L7.32606911,18.986442 C7.28174364,18.9350476 7.14341939,18.8399338 6.91773035,18.7261285 L6.81567695,18.6762835 C6.57119017,18.5605034 6.35637227,18.4196344 6.17731489,18.25478 C5.61779038,18.5193706 4.99276327,18.6666667 4.33333333,18.6666667 C1.94009942,18.6666667 5.92118946e-15,16.7265672 5.92118946e-15,14.3333333 C5.92118946e-15,13.4219982 0.283452038,12.5540011 0.793674357,11.832931 C0.283670709,11.1133351 5.92118946e-15,10.24502 5.92118946e-15,9.33333333 C5.92118946e-15,8.05238367 0.559792893,6.88662957 1.46174124,6.08748764 C1.32280547,5.66260975 1.25,5.21187063 1.25,4.75 C1.25,2.35676608 3.19009942,0.416666667 5.58333333,0.416666667 C6.63719835,0.416666667 7.63510253,0.795490985 8.41637078,1.47095335 L8.48476786,1.53197118 C9.07452729,1.09014923 9.80431138,0.833333333 10.5833333,0.833333333 C10.9159588,0.833333333 11.240777,0.880170747 11.5502162,0.968969093 L11.7791667,1.04333333 L11.8811352,0.963963859 C11.9761971,0.891842373 12.0739622,0.823296316 12.1742241,0.758490596 C12.9358587,0.2661972 13.8244705,3.55271368e-14 14.75,3.55271368e-14 Z M14.75,2 C14.2881164,2 13.8448946,2.11332671 13.449768,2.32594577 C13.4510756,2.32809538 13.450506,2.33088946 13.4484614,2.33235574 L12.0493076,3.33572352 C11.9318281,3.41995429 11.7702167,3.40462681 11.6706764,3.29980329 C11.6706764,3.29980329 11.6706764,3.29980329 11.6706764,3.29980329 C11.3915765,3.00588983 11.0026032,2.83333333 10.5833333,2.83333333 C10.2541363,2.83333333 9.94537348,2.94037904 9.69443972,3.12483352 C9.69939873,3.12118829 9.70416385,3.11779077 9.70873508,3.11464096 C9.52592061,3.2375356 9.30827475,3.29896276 9.08831855,3.28725433 L7.449487,3.2000181 C7.36726631,3.19564143 7.28986281,3.15986955 7.23324916,3.10008418 L7.23324916,3.10008418 L7.23324916,3.10008418 C7.19302178,3.0598568 7.15134852,3.02109978 7.10832075,2.98389918 C6.68707055,2.61969822 6.15224207,2.41666667 5.58333333,2.41666667 C4.29466892,2.41666667 3.25,3.46133558 3.25,4.75 C3.25,5.32104512 3.45496523,5.85755056 3.8193613,6.27750728 C3.89178435,6.35523386 3.92679987,6.4606283 3.91528814,6.5662408 L3.89577596,6.74525207 C3.87693028,6.91814825 3.75906273,7.06420954 3.59404882,7.11915184 C3.59404882,7.11915184 3.59404882,7.11915184 3.59404882,7.11915184 C2.65805619,7.4307958 2,8.31477699 2,9.33333333 C2,9.96148297 2.24800793,10.5478396 2.68341751,10.9832492 C2.75565354,11.0554852 2.83248338,11.122912 2.91336155,11.1850649 C2.99138229,11.2410705 3.03764687,11.3312307 3.03764687,11.4272717 L3.03764687,11.9172883 C3.03765436,12.1954277 2.92181478,12.4610011 2.71795884,12.6502212 C2.70546946,12.6618139 2.69395569,12.6728793 2.68341751,12.6834175 C2.24800793,13.1188271 2,13.7051837 2,14.3333333 C2,15.6219977 3.04466892,16.6666667 4.33333333,16.6666667 C5.62199775,16.6666667 6.66666667,15.6219977 6.66666667,14.3333333 C6.66666667,13.7051837 6.41865873,13.1188271 5.98324916,12.6834175 C5.91101313,12.6111815 5.83418328,12.5437546 5.75330511,12.4816018 C5.67528437,12.4255962 5.6290198,12.3354359 5.6290198,12.239395 L5.6290198,11.7493784 C5.6290123,11.471239 5.74485189,11.2056656 5.94870783,11.0164455 C5.9611972,11.0048528 5.97271098,10.9937873 5.98324916,10.9832492 C6.41865873,10.5478396 6.66666667,9.96148297 6.66666667,9.33333333 C6.66666667,8.73178116 6.4389919,8.16870957 6.03866272,7.74068 C5.96800924,7.67009218 5.93826077,7.56833072 5.95976761,7.47080119 L6.0105454,7.24053326 C6.037163,7.11987947 6.12725966,7.02322727 6.24575321,6.98822564 C6.24575321,6.98822564 6.24575321,6.98822564 6.24575321,6.98822564 C6.6182665,6.87818952 6.95736936,6.67579562 7.23324916,6.39991582 C7.29110821,6.34205677 7.34591437,6.28121778 7.39741568,6.21767338 C7.44931189,6.15364174 7.49778781,6.0869428 7.54261703,6.01786949 L7.80848337,5.55253802 C7.84740676,5.48441252 7.92256929,5.44533901 8.00069185,5.45261777 L9.8141626,5.62158068 L9.8141626,5.62158068 C10.0415478,5.75741189 10.3056467,5.83333333 10.5833333,5.83333333 C10.9648816,5.83333333 11.3217042,5.6911772 11.5952717,5.44066487 C11.6504421,5.3852794 11.7393971,5.3830223 11.7973053,5.43553855 L13.1747993,6.68477156 L13.1747993,6.68477156 C13.3505165,6.81023077 13.5411427,6.91523459 13.7429925,6.99663965 C13.8509339,7.0359635 13.9307753,7.12843191 13.9539435,7.24095283 L14.2971433,8.90777303 C14.3410507,9.12113205 14.3141121,9.34299578 14.2204007,9.53963785 C14.2171973,9.54635977 14.2142152,9.55283853 14.2114544,9.55907414 C14.1284984,9.74643998 14.0833333,9.95250574 14.0833333,10.1666667 C14.0833333,10.5382531 14.2180582,10.886397 14.4569467,11.1573674 C14.5161773,11.2187847 14.5420291,11.3050659 14.5263292,11.3889341 C14.5187902,11.4292074 14.5112511,11.4694807 14.5037121,11.509754 C14.4569486,11.7595629 14.3911106,12.1112667 14.3061982,12.5648654 C14.2712667,12.7514613 14.1400107,12.9055423 13.9613402,12.9696914 C13.9613402,12.9696914 13.9613402,12.9696914 13.9613402,12.9696914 C13.8549637,13.0078843 13.751553,13.0538334 13.6517981,13.107186 C12.8971653,13.5107915 12.4166667,14.295851 12.4166667,15.1666667 C12.4166667,16.4553311 13.4613356,17.5 14.75,17.5 C16.0386644,17.5 17.0833333,16.4553311 17.0833333,15.1666667 C17.0833333,14.5560525 16.8491204,13.9848488 16.4351996,13.5527989 C16.3307365,13.4437604 16.2160724,13.3450739 16.0929708,13.2582204 C16.0164036,13.2078113 15.9765902,13.1171275 15.9913008,13.0266443 C16.0628816,12.5863575 16.1344624,12.1460707 16.2060432,11.7057839 C16.2162438,11.6430408 16.2162438,11.5957459 16.2366451,11.5175545 C16.2570463,11.4393631 16.4096935,11.4227729 16.4872282,11.364211 C16.8561023,11.0856009 17.0833333,10.6467616 17.0833333,10.1666667 C17.0833333,9.65615857 16.8261379,9.19848336 16.4282548,8.92658392 C16.4194313,8.92055425 16.4089997,8.91373956 16.3969599,8.90613985 C16.3390237,8.86941387 16.3038464,8.8056103 16.3038464,8.73701448 C16.3038464,7.78865591 16.3038464,7.24936837 16.3038464,7.11915184 C16.3038464,6.91618511 16.5964887,6.78929963 16.6442641,6.74394528 C17.182672,6.23282178 17.5,5.51893033 17.5,4.75 C17.5,3.23121694 16.2687831,2 14.75,2 Z" id="Shape" fill="rgb(183, 140, 105)"></path></g></g></g></svg>