<svg class="plus-icon" width="20px" height="16px" viewBox="0 0 20 16" version="1.1" xmlns="http://www.w3.org/2000/svg" 
style="margin: 0.5rem 1.5rem 0px 0px;"><g id="Design" stroke="none" stroke-width="1" fill="none" fill-rule="evenodd">
<g id="Artboard" transform="translate(-344.000000, -370.000000)"><g id="Group" transform="translate(342.000000, 366.000000)">
<rect id="Rectangle" x="0" y="0" width="24" height="24"></rect>
<path d="M12.4360804,5.0567387 C12.7914279,5.61616224 12.6259916,6.35773071 12.0665681,6.71307824 L10.2644812,7.84639796 C9.57812822,8.2754853 8.8436562,8.41119891 8.03353176,8.33458732 L7.89980975,8.32047937 L7.6389264,8.28339843 C7.59478136,8.27602233 7.54983959,8.26797794 7.50340437,8.25915981 L7.20129787,8.19612222 L6.65575901,8.06837005 L6.35592132,8.00271991 L6.11341393,7.95839418 L5.91950372,7.93455981 C5.68947347,7.91607132 5.5657473,7.95000505 5.45517172,8.02747532 C4.74347574,8.52609602 4.88813907,9.34322826 6.49352663,10.9448099 C7.84772723,10.3554838 9.48146635,10.6144416 10.5883635,11.7213388 L10.5883635,11.7213388 L12.0025771,13.1355523 C13.447517,14.5804922 13.447517,16.9232026 12.0025771,18.3681425 C10.5576372,19.8130824 8.21492679,19.8130824 6.76998691,18.3681425 L6.76998691,18.3681425 L5.35577334,16.953929 C4.16583932,15.7639949 3.9558374,13.9652092 4.72576759,12.5603724 C2.24430939,9.97749382 1.81520775,7.64725538 4.07805865,6.06188137 C5.00467554,5.4126851 5.73125508,5.39738956 7.13528506,5.7161312 L7.6845764,5.84474274 L7.91176929,5.89316947 L8.09551556,5.92526989 L8.25948609,5.94524753 C8.57931129,5.97549265 8.79278514,5.93604757 8.99223475,5.81135764 L10.7797409,4.6872264 C11.3391644,4.33187887 12.0807329,4.49731516 12.4360804,5.0567387 Z M8.89130725,13.4183951 C8.38362567,12.9107135 7.5605112,12.9107135 7.05282962,13.4183951 C6.54514804,13.9260766 6.54514804,14.7491911 7.05282962,15.2568727 L7.05282962,15.2568727 L8.46704318,16.6710862 C8.97472476,17.1787678 9.79783923,17.1787678 10.3055208,16.6710862 C10.8132024,16.1634047 10.8132024,15.3402902 10.3055208,14.8326086 L10.3055208,14.8326086 Z M18.1791752,12.3447407 C16.411864,12.3447407 14.9791752,13.7774295 14.9791752,15.5447407 C14.9791752,17.3120519 16.411864,18.7447407 18.1791752,18.7447407 C19.9464864,18.7447407 21.3791752,17.3120519 21.3791752,15.5447407 C21.3791752,13.7774295 19.9464864,12.3447407 18.1791752,12.3447407 Z M18.1791752,14.7447407 C18.621003,14.7447407 18.9791752,15.1029129 18.9791752,15.5447407 C18.9791752,15.9865685 18.621003,16.3447407 18.1791752,16.3447407 C17.7373474,16.3447407 17.3791752,15.9865685 17.3791752,15.5447407 C17.3791752,15.1029129 17.7373474,14.7447407 18.1791752,14.7447407 Z M15.6791752,9.54474065 C16.5076023,9.54474065 17.1791752,8.87316778 17.1791752,8.04474065 C17.1791752,7.21631353 16.5076023,6.54474065 15.6791752,6.54474065 C14.8507481,6.54474065 14.1791752,7.21631353 14.1791752,8.04474065 C14.1791752,8.87316778 14.8507481,9.54474065 15.6791752,9.54474065 Z" id="SHAPE" fill="rgb(183, 140, 105)">
</path></g></g></g></svg>