<svg class="plus-icon" width="24px" height="24px" viewBox="0 0 24 24" version="1.1" xmlns="http://www.w3.org/2000/svg" style="margin: 0.3rem 1.5rem 0px 0px;"><g stroke="none" stroke-width="1" fill="none" fill-rule="evenodd"><g transform="translate(-40.000000, -40.000000)"><g id="Icon---Medical-Health" transform="translate(40.000000, 40.000000)"><rect x="0" y="0" width="24" height="24"></rect><path d="M18,0.8 C20.8718807,0.8 23.2,3.1281193 23.2,6 C23.2,7.32941076 22.7011261,8.54230326 21.8803729,9.46168278 C22.0920393,10.2836658 22.2,11.1350019 22.2,12 C22.2,13.5179281 21.8684279,14.9584133 21.2737604,16.2529791 C22.4216085,16.8802941 23.2,18.0992455 23.2,19.5 C23.2,21.5434536 21.5434536,23.2 19.5,23.2 C18.0992455,23.2 16.8802941,22.4216085 16.2520976,21.2737772 C14.9584133,21.8684279 13.5179281,22.2 12,22.2 C10.7368312,22.2 9.50506747,21.9696449 8.35268709,21.5282425 C7.58838409,22.5431982 6.37089419,23.2 5,23.2 C2.68040405,23.2 0.8,21.3195959 0.8,19 C0.8,17.6291058 1.45680185,16.4116159 2.47289477,15.6450411 C2.03024675,14.4945295 1.8,13.2628996 1.8,12 C1.8,10.4820719 2.13157211,9.04158669 2.72623965,7.74702095 C1.57839151,7.11970585 0.8,5.90075447 0.8,4.5 C0.8,2.45654643 2.45654643,0.8 4.5,0.8 C5.90075447,0.8 7.11970585,1.57839151 7.74790241,2.72622279 C9.04158669,2.13157211 10.4820719,1.8 12,1.8 C12.8647233,1.8 13.7158908,1.90788928 14.5386127,2.11871454 C15.4576967,1.29887394 16.6705892,0.8 18,0.8 Z M5,17.2 C4.00588745,17.2 3.2,18.0058875 3.2,19 C3.2,19.9941125 4.00588745,20.8 5,20.8 C5.99411255,20.8 6.8,19.9941125 6.8,19 C6.8,18.0058875 5.99411255,17.2 5,17.2 Z M20.0152907,18.3061249 L19.9122315,18.4376361 C19.4370039,19.0210109 18.898546,19.5508303 18.3073054,20.0166465 C18.5056474,20.4769397 18.9650963,20.8 19.5,20.8 C20.2179702,20.8 20.8,20.2179702 20.8,19.5 C20.8,18.9650963 20.4769397,18.5056474 20.0152907,18.3061249 Z M12,4.2 C7.69217895,4.2 4.2,7.69217895 4.2,12 C4.2,12.9755127 4.37867825,13.9239217 4.72126507,14.8103899 L4.79037764,14.8051401 L4.79037764,14.8051401 L5,14.8 C7.31959595,14.8 9.2,16.6804041 9.2,19 C9.2,19.0933815 9.19695247,19.1860512 9.19095144,19.277915 C10.0753437,19.6211612 11.0240848,19.8 12,19.8 C16.307821,19.8 19.8,16.307821 19.8,12 C19.8,11.631086 19.7744674,11.2659247 19.7240815,10.9062958 C19.1842014,11.0969766 18.6041319,11.2 18,11.2 C15.1281193,11.2 12.8,8.8718807 12.8,6 C12.8,5.39586811 12.9030234,4.81579863 13.0924599,4.27640188 C12.733898,4.2255182 12.3688181,4.2 12,4.2 Z M18,3.2 C16.4536027,3.2 15.2,4.4536027 15.2,6 C15.2,7.5463973 16.4536027,8.8 18,8.8 C19.5463973,8.8 20.8,7.5463973 20.8,6 C20.8,4.4536027 19.5463973,3.2 18,3.2 Z M4.5,3.2 C3.78202983,3.2 3.2,3.78202983 3.2,4.5 C3.2,5.03490366 3.52306029,5.49435256 3.98470928,5.69387508 C4.48362594,5.05772023 5.05772023,4.48362594 5.69269461,3.98335355 C5.49435256,3.52306029 5.03490366,3.2 4.5,3.2 Z" id="Combined-Shape" fill="rgb(183, 140, 105)"></path></g></g></g></svg>