<svg class="plus-icon" width="24px" height="24px" viewBox="0 0 24 24" version="1.1" xmlns="http://www.w3.org/2000/svg" style="margin: 0.3rem 1.5rem 0px 0px;"><g stroke="none" stroke-width="1" fill="none" fill-rule="evenodd"><g id="Artboard" transform="translate(-40.000000, -84.000000)"><g id="Icon---Muscle-Repai" transform="translate(40.000000, 84.000000)"><rect id="Rectangle" x="0" y="0" width="24" height="24"></rect><path d="M6.69090318,5.99538832 C7.97222313,4.71406837 9.2712516,4.07450943 11.1217212,3.59987692 L11.7148657,3.45725316 L12.5284678,3.27112374 L12.9086879,3.17610103 C13.080944,3.13025172 13.2291737,3.0860308 13.3657714,3.03954714 C13.7423488,2.91139926 14.0155909,2.76937783 14.225022,2.59236836 L14.3246029,2.50085021 L15.3678752,1.45757791 C16.1762021,0.649251076 17.4598269,0.609010593 18.3034712,1.34059229 L18.4157006,1.4451378 L22.5548622,5.58429945 C23.3566173,6.38605452 23.3863803,7.6693936 22.6478873,8.51903827 L22.5424221,8.63212476 L21.9574777,9.21682771 L21.9602962,9.21932316 L21.4991498,9.67539706 C20.6160444,10.5585025 20.3530118,11.1566404 20.1310923,12.5387238 L20.087085,12.8259098 C19.7863377,14.8738558 19.3810155,15.932693 18.0046117,17.3090968 C16.7085742,18.6051343 15.6006739,19.1001613 13.7575921,19.4552251 L13.1361031,19.5672871 C11.8231934,19.7997368 11.1972577,20.0302787 10.5176367,20.6619827 L10.3709119,20.8036349 L8.63212476,22.5424221 C7.82379793,23.3507489 6.54017311,23.3909894 5.69652875,22.6594077 L5.58429945,22.5548622 L1.4451378,18.4157006 C0.643382735,17.6139455 0.613619657,16.3306064 1.35211274,15.4809617 L1.45757791,15.3678752 L3.29151973,13.5368025 L3.36200675,13.4607635 C3.42644664,13.3802279 3.47739838,13.2720331 3.55674091,13.0086519 L3.66018708,12.6401538 L4.11056261,10.8812536 C4.63354574,8.82082612 5.32502792,7.36126358 6.69090318,5.99538832 Z M8.34656784,7.65105298 C7.40346513,8.59415569 6.88797086,9.61240928 6.47592768,11.1130597 L6.30141371,11.7974098 L6.15029521,12.4305632 L6.0403447,12.8716901 L5.9391858,13.2398394 C5.92235906,13.2974476 5.90537396,13.3537637 5.88796819,13.409662 C5.66728293,14.1183884 5.39971983,14.6693978 5.00581958,15.120261 L4.85202973,15.2847527 L3.74732028,16.3894622 C3.47395328,16.6628292 3.47395328,17.1060447 3.74732028,17.3794117 L6.62058834,20.2526797 C6.89395534,20.5260467 7.33717081,20.5260467 7.61053781,20.2526797 L8.71524727,19.1479703 C9.80555094,18.0576666 10.7816491,17.6292848 12.427861,17.3108625 L13.0345181,17.2013201 C14.6463394,16.917041 15.3883492,16.61403 16.348947,15.6534322 C17.2320524,14.7703268 17.495085,14.1721889 17.7170046,12.7901055 L17.7610118,12.5029194 C18.0459304,10.5627601 18.4247055,9.51033266 19.6341018,8.23461076 L19.8434851,8.0197324 L20.2038529,7.662607 L20.2028345,7.66038305 C20.5037302,7.35948729 20.5037302,6.87163886 20.2028345,6.5707431 L17.4292569,3.79716552 C17.1534358,3.5213444 16.7205225,3.4983593 16.4185194,3.72821024 L16.3396169,3.79716552 L15.9802676,4.15651486 C15.4730023,4.66378017 14.86452,5.00681845 14.1068594,5.26464746 C13.8582694,5.34924169 13.5996263,5.42336947 13.2928891,5.5001985 L12.6936859,5.64125538 L12.0217779,5.79496208 C10.3566769,6.18804599 9.34542796,6.65219286 8.34656784,7.65105298 Z M16.043599,5.61087603 C16.5045457,5.14992933 17.24885,5.14689135 17.7060492,5.60409052 C18.1632484,6.06128969 18.1602104,6.80559399 17.6992637,7.26654069 C16.8161583,8.1496461 16.5531257,8.74778399 16.3312062,10.1298674 L16.2871989,10.4170534 C15.9864516,12.4649994 15.5811294,13.5238367 14.2047256,14.9002404 C13.7437789,15.3611872 12.9994746,15.3642251 12.5422754,14.907026 C12.0850762,14.4498268 12.0881142,13.7055225 12.5490609,13.2445758 C13.4321663,12.3614704 13.6951989,11.7633325 13.9171185,10.3812491 L13.9611257,10.0940631 C14.2618731,8.04611708 14.6671952,6.98727982 16.043599,5.61087603 Z M9.79527442,9.09975955 C10.2562211,8.63881285 11.0005254,8.63577487 11.4577246,9.09297404 C11.9149238,9.55017321 11.9118858,10.2944775 11.4509391,10.7554242 C10.5503786,11.6559847 10.2277753,12.3644267 9.95672895,13.777564 L9.7935087,14.6765103 C9.47508646,16.3227222 9.04670463,17.2988203 7.95640097,18.389124 C7.49545426,18.8500707 6.75114997,18.8531086 6.2939508,18.3959095 C5.83675163,17.9387103 5.8397896,17.194406 6.30073631,16.7334593 C6.99180562,16.04239 7.25292218,15.4579104 7.4871558,14.239361 L7.64914613,13.3467792 C8.00420996,11.5036974 8.49923698,10.395797 9.79527442,9.09975955 Z" id="Shape" fill="rgb(183, 140, 105)"></path></g></g></g></svg>