<svg class="plus-icon" width="24px" height="24px" viewBox="0 0 24 24" version="1.1" xmlns="http://www.w3.org/2000/svg" style="margin: 0.3rem 1.5rem 0px 0px;"><g stroke="none" stroke-width="1" fill="none" fill-rule="evenodd"><g transform="translate(-40.000000, -128.000000)"><g id="Icon---Oxidative-Stress" transform="translate(40.000000, 128.000000)"><rect x="0" y="0" width="24" height="24"></rect><path d="M12.002479,0.592059111 L12.6296867,0.977948553 C13.7580723,1.67218766 14.6472604,2.61066361 15.2165269,3.6933389 L15.5010523,3.61125898 C16.4620261,3.36097431 17.4893023,3.32834564 18.526264,3.51203657 L18.8721989,3.58127689 L19.682568,3.77628385 L19.8532053,4.49262613 C20.1257372,5.63672594 20.1312051,6.80042762 19.8621493,7.88332653 C19.8104156,8.09154501 19.748703,8.29609152 19.677139,8.49634218 C20.9054287,8.97912891 21.9890642,9.85813113 22.8026455,11.0351753 L22.9728052,11.2919252 L23.4079148,12.0028172 L23.0220704,12.6299941 C22.3278545,13.7584183 21.3894049,14.64764 20.3067553,15.2169288 C20.3364676,15.3101317 20.3636765,15.4055619 20.3887405,15.5018023 C20.6390126,16.4627925 20.6716396,17.4900859 20.4879579,18.5270653 L20.4187211,18.8730061 L20.2237259,19.6833811 L19.5073861,19.8540294 C18.3566516,20.1281603 17.186163,20.1320812 16.0980538,19.8582998 C15.8964513,19.8075742 15.6983211,19.7474783 15.5042304,19.678129 C15.0064267,20.946299 14.0874803,22.0588177 12.8615179,22.8737597 L12.6296867,23.0220514 L12.0013133,23.4086581 L11.3726966,23.0224473 C10.2432856,22.3285578 9.35333213,21.3899426 8.78366663,20.3068462 C8.66657918,20.3436251 8.54655086,20.3771304 8.42527731,20.4072508 C7.45084924,20.6492667 6.41102021,20.669009 5.37893919,20.4719132 L5.03529949,20.398191 L4.31760027,20.2272361 L4.14619332,19.5096447 C3.87124764,18.3585907 3.86685427,17.1876597 4.14050479,16.0990741 C4.19128521,15.8970689 4.2514768,15.6985471 4.32096149,15.5040794 C3.08325385,15.0166231 1.99257157,14.1273271 1.17721368,12.9362211 L1.02719479,12.7087514 L0.592085168,11.9978594 L0.977929566,11.3706825 C1.67214545,10.2422582 2.61059515,9.3530366 3.69324468,8.78374777 C3.66145367,8.68395018 3.63255245,8.58204011 3.60609586,8.47921292 C3.36003976,7.52288206 3.32912521,6.50150893 3.51202932,5.47050032 L3.58091475,5.12654991 L3.77590995,4.31617494 L4.49224974,4.14552666 C5.64298426,3.87139576 6.81347287,3.86747485 7.90158209,4.14125621 C8.10387267,4.19215495 8.30266718,4.25248807 8.49739266,4.32213739 C8.9793968,3.09404953 9.85817224,2.0107272 11.0348824,1.19733623 L11.2915588,1.02721538 L12.002479,0.592059111 Z M11.999,14.384 L11.7922066,14.5682739 C10.9482212,15.3627191 10.4727494,16.3827796 10.4727494,17.4546858 C10.4727494,18.4771954 10.9056449,19.4522289 11.6771521,20.228613 L11.8476235,20.3918854 L12,20.524 L12.1530718,20.3919008 C12.9090546,19.7018337 13.3824031,18.8336064 13.4989908,17.9060209 L13.5206623,17.6729566 L13.5272506,17.4546858 C13.5272506,16.4324563 13.0945708,15.4574824 12.3234564,14.6808102 L12.1530718,14.5174708 L11.999,14.384 Z M8.34774584,15.6521749 C7.83350208,15.8132293 7.29631822,15.9061943 6.74553918,15.9243773 L6.84696996,15.7271168 C6.68065667,16.0226748 6.55371611,16.3435566 6.46808811,16.684186 C6.37346381,17.0606028 6.33013773,17.4579905 6.33866523,17.8656311 L6.35562353,18.1851844 L6.46168044,18.1955366 C6.84464304,18.2203216 7.22033987,18.2000251 7.58008757,18.1350853 L7.84677219,18.0780166 L8.09791387,18.0066507 C8.08122536,17.824278 8.07274936,17.6401807 8.07274936,17.4546858 C8.07274936,16.834345 8.16754831,16.2294984 8.34774584,15.6521749 Z M15.6510669,15.6525643 C15.8127914,16.1670717 15.9056788,16.7035585 15.9239186,17.2534932 L15.7267522,17.1518611 C16.0222503,17.3181738 16.3430794,17.4451466 16.6836698,17.5308433 C17.0600033,17.6255333 17.4573206,17.6689793 17.8649049,17.6606278 L18.185376,17.6429252 L18.1990553,17.4712703 C18.2184607,17.0933637 18.1937872,16.7231852 18.1255494,16.3690886 L18.0662107,16.106662 L18.0065971,15.9025339 C17.8242905,15.919211 17.6402625,15.9276812 17.4548396,15.9276812 C16.8338498,15.9276812 16.2285068,15.8326785 15.6510669,15.6525643 Z M6.54516044,10.4729954 C5.52299172,10.4729954 4.54806719,10.905684 3.77142834,11.6768211 L3.60809576,11.8472108 L3.475,12 L3.65965726,12.2089969 C4.34374542,12.9354615 5.19502054,13.3887221 6.10258486,13.5005205 L6.33058445,13.5213168 L6.54516044,13.5276812 C7.56760925,13.5276812 8.54259341,13.0947768 9.31894418,12.3232469 L9.48220966,12.1527704 L9.615,11.999 L9.48222512,11.8472108 C8.79218662,11.0912052 7.92400193,10.617846 6.99646926,10.5012558 L6.76341842,10.4795838 L6.54516044,10.4729954 Z M17.4548396,10.4729954 C16.4323908,10.4729954 15.4574066,10.9058997 14.6810558,11.6774296 L14.5177903,11.8479062 L14.384,12 L14.5177749,12.1534658 C15.2078134,12.9094714 16.0759981,13.3828305 17.0035307,13.4994208 L17.2365816,13.5210927 L17.4548396,13.5276812 C18.4770083,13.5276812 19.4519328,13.0949925 20.2285717,12.3238554 L20.3919042,12.1534658 L20.524,11.999 L20.3403427,11.7916797 C19.6562546,11.065215 18.8049795,10.6119545 17.8974151,10.5001561 L17.6694155,10.4793598 L17.4548396,10.4729954 Z M11.999,3.475 L11.7922066,3.6589023 C10.9482212,4.45334748 10.4727494,5.47340803 10.4727494,6.5453142 C10.4727494,7.56782377 10.9056449,8.54285734 11.6771521,9.31924139 L11.8476235,9.48251375 L12,9.615 L12.1530718,9.48252922 C12.9090546,8.79246213 13.3824031,7.92423483 13.4989908,6.99664929 L13.5206623,6.76358502 L13.5272506,6.5453142 C13.5272506,5.52308473 13.0945708,4.54811079 12.3234564,3.77143864 L12.1530718,3.60809917 L11.999,3.475 Z M16.3683613,5.87443973 L16.1059503,5.93377882 L15.9021044,5.99354638 C15.9187808,6.1758565 15.9272506,6.35988787 15.9272506,6.5453142 C15.9272506,7.16631519 15.832252,7.77167028 15.6521451,8.34912269 C16.2279764,8.1680831 16.8335679,8.07299539 17.4548396,8.07299539 L17.2520852,8.07705911 L17.2720442,8.0393468 C17.3818947,7.80719288 17.4691441,7.56148775 17.5329651,7.30462017 C17.6420681,6.86550098 17.6815591,6.39804852 17.650581,5.91923362 L17.6415539,5.81421013 L17.4704779,5.80093337 C17.0925933,5.78152765 16.7224368,5.80620138 16.3683613,5.87443973 Z M6.13473103,6.33892824 L5.81471236,6.35497534 L5.80083148,6.52345301 C5.78116207,6.89928762 5.80507556,7.26752924 5.87207497,7.61995978 L5.93039537,7.8811897 L5.99340291,8.09814269 C6.17570954,8.0814656 6.35973748,8.07299539 6.54516044,8.07299539 C7.16615018,8.07299539 7.77149319,8.16799807 8.34893314,8.34811223 C8.19801639,7.86818596 8.10683326,7.36764022 8.08063102,6.85458418 L8.07708517,6.74605911 L8.04659757,6.73036687 C7.81573593,6.62047558 7.57140885,6.53298521 7.31596605,6.46871273 C6.93963263,6.37402271 6.54231527,6.33057668 6.13473103,6.33892824 Z" fill="rgb(183, 140, 105)"></path></g></g></g></svg>